<svg width="1061" height="457" xmlns="http://www.w3.org/2000/svg" xmlns:xlink="http://www.w3.org/1999/xlink" overflow="hidden"><defs><clipPath id="clip0"><rect x="110" y="55" width="1061" height="457"/></clipPath></defs><g clip-path="url(#clip0)" transform="translate(-110 -55)"><rect x="224.5" y="133.5" width="303" height="38" stroke="#2983A9" stroke-width="1.33333" stroke-miterlimit="8" fill="#3CB4E6"/><text fill="#FFFFFF" font-family="Arial,Arial_MSFontService,sans-serif" font-weight="400" font-size="24" transform="translate(239.837 161)">MX_AZURE_RTOS_Init()</text><path d="M111.5 66C111.5 61.8579 114.858 58.5001 119 58.5001L255 58.5001C259.142 58.5001 262.5 61.8579 262.5 66L262.5 96.0001C262.5 100.142 259.142 103.5 255 103.5L119 103.5C114.858 103.5 111.5 100.142 111.5 96.0001Z" stroke="#021735" stroke-width="1.33333" stroke-miterlimit="8" fill="#03234B" fill-rule="evenodd"/><text fill="#FFFFFF" font-family="Arial,Arial_MSFontService,sans-serif" font-weight="400" font-size="24" transform="translate(151.073 89)">Main.c</text><rect x="300.5" y="209.5" width="302" height="38" stroke="#2983A9" stroke-width="1.33333" stroke-miterlimit="8" fill="#3CB4E6"/><text fill="#FFFFFF" font-family="Arial,Arial_MSFontService,sans-serif" font-weight="400" font-size="24" transform="translate(360.336 236)">t<tspan font-size="24" x="6.66666" y="0">x_kernel_enter</tspan>()</text><rect x="375.5" y="284.5" width="303" height="38" stroke="#2983A9" stroke-width="1.33333" stroke-miterlimit="8" fill="#3CB4E6"/><text fill="#FFFFFF" font-family="Arial,Arial_MSFontService,sans-serif" font-weight="400" font-size="24" transform="translate(413.935 312)">t<tspan font-size="24" x="6.66669" y="0">x_application_define</tspan></text><rect x="564.5" y="360.5" width="303" height="38" stroke="#A9005B" stroke-width="1.33333" stroke-miterlimit="8" fill="#E6007E"/><text fill="#FFFFFF" font-family="Arial,Arial_MSFontService,sans-serif" font-weight="400" font-size="24" transform="translate(607.599 387)">tx_byte_pool_create</text><rect x="716.5" y="247.5" width="151" height="75" stroke="#BC9A00" stroke-width="1.33333" stroke-miterlimit="8" fill="#FFD200"/><text fill="#FFFFFF" font-family="Arial,Arial_MSFontService,sans-serif" font-weight="400" font-size="24" transform="translate(756.531 279)">Global <tspan font-size="24" x="4.21997" y="29">buffer</tspan></text><path d="M0-1.16667 57.8659-1.16667 57.8659 31.1328 55.5325 31.1328 55.5325 0 56.6992 1.16667 0 1.16667ZM60.6992 29.7995 56.6992 37.7995 52.6992 29.7995Z" fill="#03234B" transform="matrix(1.83697e-16 1 1 -1.83697e-16 527 322)"/><path d="M0-1.16667 57.8659-1.16667 57.8659 31.1328 55.5325 31.1328 55.5325 0 56.6992 1.16667 0 1.16667ZM60.6992 29.7995 56.6992 37.7995 52.6992 29.7995Z" fill="#03234B" transform="matrix(1.83697e-16 1 1 -1.83697e-16 338 247)"/><path d="M0-1.16667 57.8659-1.16667 57.8659 31.1328 55.5325 31.1328 55.5325 0 56.6992 1.16667 0 1.16667ZM60.6992 29.7995 56.6992 37.7995 52.6992 29.7995Z" fill="#03234B" transform="matrix(1.83697e-16 1 1 -1.83697e-16 262 171)"/><path d="M0-1.16667 50.306-1.16667 50.306 31.1328 47.9726 31.1328 47.9726 0 49.1393 1.16667 0 1.16667ZM53.1393 29.7995 49.1393 37.7995 45.1393 29.7995Z" fill="#03234B" transform="matrix(1.83697e-16 1 1 -1.83697e-16 186 103)"/><path d="M792.167 322 792.167 329 789.833 329 789.833 322ZM792.167 331.333 792.167 338.333 789.833 338.333 789.833 331.333ZM792.167 340.667 792.167 347.667 789.833 347.667 789.833 340.667ZM792.167 350 792.167 353.133 789.833 353.133 789.833 350ZM795 351.799 791 359.799 787 351.799Z" fill="#03234B"/><rect x="942" y="58" width="227" height="453" fill="#03234B" fill-opacity="0.501961"/><text fill="#FFFFFF" font-family="Arial,Arial_MSFontService,sans-serif" font-weight="400" font-size="24" transform="translate(1029.13 85)">RAM</text><rect x="942.5" y="95.5001" width="227" height="38" stroke="#650056" stroke-width="1.33333" stroke-miterlimit="8" fill="#8C0078"/><text fill="#FFFFFF" font-family="Arial,Arial_MSFontService,sans-serif" font-weight="400" font-size="24" transform="translate(1006.01 123)">RW RAM</text><rect x="942.5" y="133.5" width="227" height="106" stroke="#338150" stroke-width="1.33333" stroke-miterlimit="8" fill="#49B170"/><text fill="#FFFFFF" font-family="Arial,Arial_MSFontService,sans-serif" font-weight="400" font-size="24" transform="translate(1015.13 161)">ZI RAM</text><rect x="942.5" y="179.5" width="227" height="37" stroke="#BC9A00" stroke-width="1.33333" stroke-miterlimit="8" fill="#FFD200"/><text fill="#FFFFFF" font-family="Arial,Arial_MSFontService,sans-serif" font-weight="400" font-size="24" transform="translate(987.344 206)">Global buffer</text><rect x="942.5" y="239.5" width="227" height="68" stroke="#2983A9" stroke-width="1.33333" stroke-miterlimit="8" fill="#3CB4E6"/><text fill="#FFFFFF" font-family="Arial,Arial_MSFontService,sans-serif" font-weight="400" font-size="24" transform="translate(993.794 267)">Stack/Heap</text><path d="M935 307C932.791 307 931 306.702 931 306.333L931 201.667C931 201.298 929.209 201 927 201 929.209 201 931 200.702 931 200.333L931 95.6666C931 95.2984 932.791 95 935 95" stroke="#03234B" stroke-width="2.33333" stroke-miterlimit="8" fill="none" fill-rule="evenodd"/><path d="M716 156.834C716 151.955 719.955 148 724.833 148L816.917 148 816.917 148 860.167 148 880.167 148C885.045 148 889 151.955 889 156.834L889 178.917 916.244 198.01 889 192.167 889 192.166C889 197.045 885.045 201 880.167 201L860.167 201 816.917 201 816.917 201 724.833 201C719.955 201 716 197.045 716 192.166L716 192.167 716 178.917 716 178.917Z" fill="#03234B" fill-rule="evenodd"/><text fill="#FFFFFF" font-family="Arial,Arial_MSFontService,sans-serif" font-weight="400" font-size="24" transform="translate(754.538 169)">Compiler <tspan font-size="24" x="0" y="29">allocated</tspan></text></g></svg>