<svg width="1061" height="639" xmlns="http://www.w3.org/2000/svg" xmlns:xlink="http://www.w3.org/1999/xlink" overflow="hidden"><defs><clipPath id="clip0"><rect x="110" y="54" width="1061" height="639"/></clipPath></defs><g clip-path="url(#clip0)" transform="translate(-110 -54)"><rect x="111.5" y="58.5001" width="302" height="37" stroke="#2983A9" stroke-width="1.33333" stroke-miterlimit="8" fill="#3CB4E6"/><text fill="#FFFFFF" font-family="Arial,Arial_MSFontService,sans-serif" font-weight="400" font-size="24" transform="translate(154.005 85)">tx_byte_pool_create</text><rect x="111.5" y="171.5" width="302" height="38" stroke="#338150" stroke-width="1.33333" stroke-miterlimit="8" fill="#49B170"/><text fill="#FFFFFF" font-family="Arial,Arial_MSFontService,sans-serif" font-weight="400" font-size="24" transform="translate(146.005 199)">tx_byte_pool_allocate</text><rect x="111" y="436" width="302" height="257" fill="#03234B" fill-opacity="0.501961"/><text fill="#FFFFFF" font-family="Arial,Arial_MSFontService,sans-serif" font-weight="400" font-size="24" transform="translate(235.339 463)">RAM</text><rect x="126" y="473" width="272" height="205" fill="#03234B" fill-opacity="0.501961"/><text fill="#FFFFFF" font-family="Arial,Arial_MSFontService,sans-serif" font-weight="400" font-size="24" transform="translate(210.005 501)">byte_poo<tspan font-size="24" x="98.6667" y="0">l</tspan></text><rect x="141" y="519" width="242" height="143" fill="#FFD200"/><text fill="#FFFFFF" font-family="Arial,Arial_MSFontService,sans-serif" font-weight="400" font-size="24" transform="translate(231.555 547)">buffer</text><rect x="111.5" y="95.5001" width="151" height="38" stroke="#BC9A00" stroke-width="1.33333" stroke-miterlimit="8" fill="#FFD200"/><text fill="#FFFFFF" font-family="Arial,Arial_MSFontService,sans-serif" font-weight="400" font-size="24" transform="translate(132.623 123)">buffer 400</text><rect x="111.5" y="209.5" width="151" height="38" stroke="#650056" stroke-width="1.33333" stroke-miterlimit="8" fill="#8C0078"/><text fill="#FFFFFF" font-family="Arial,Arial_MSFontService,sans-serif" font-weight="400" font-size="24" transform="translate(149.74 236)">pointe<tspan font-size="24" x="65.3333" y="0">r</tspan></text><rect x="262.5" y="209.5" width="151" height="38" stroke="#650056" stroke-width="1.33333" stroke-miterlimit="8" fill="#8C0078"/><text fill="#FFFFFF" font-family="Arial,Arial_MSFontService,sans-serif" font-weight="400" font-size="24" transform="translate(281.604 236)">length 128</text><rect x="141.5" y="564.5" width="242" height="38" stroke="#650056" stroke-width="1.33333" stroke-miterlimit="8" fill="#8C0078"/><text fill="#FFFFFF" font-family="Arial,Arial_MSFontService,sans-serif" font-weight="400" font-size="24" transform="translate(214.005 592)">allocated</text><rect x="111.5" y="284.5" width="302" height="38" stroke="#338150" stroke-width="1.33333" stroke-miterlimit="8" fill="#49B170"/><text fill="#FFFFFF" font-family="Arial,Arial_MSFontService,sans-serif" font-weight="400" font-size="24" transform="translate(146.005 312)">tx_byte_pool_allocate</text><rect x="111.5" y="322.5" width="151" height="38" stroke="#2983A9" stroke-width="1.33333" stroke-miterlimit="8" fill="#3CB4E6"/><text fill="#FFFFFF" font-family="Arial,Arial_MSFontService,sans-serif" font-weight="400" font-size="24" transform="translate(143.073 350)">pointer2</text><rect x="262.5" y="322.5" width="151" height="38" stroke="#2983A9" stroke-width="1.33333" stroke-miterlimit="8" fill="#3CB4E6"/><text fill="#FFFFFF" font-family="Arial,Arial_MSFontService,sans-serif" font-weight="400" font-size="24" transform="translate(281.604 350)">length 128</text><rect x="141.5" y="602.5" width="242" height="38" stroke="#2983A9" stroke-width="1.33333" stroke-miterlimit="8" fill="#3CB4E6"/><text fill="#FFFFFF" font-family="Arial,Arial_MSFontService,sans-serif" font-weight="400" font-size="24" transform="translate(214.005 629)">allocated</text><rect x="489.5" y="58.5001" width="302" height="37" stroke="#A9005B" stroke-width="1.33333" stroke-miterlimit="8" fill="#E6007E"/><text fill="#FFFFFF" font-family="Arial,Arial_MSFontService,sans-serif" font-weight="400" font-size="24" transform="translate(526 85)">tx_byte_pool_release</text><rect x="489.5" y="95.5001" width="151" height="38" stroke="#650056" stroke-width="1.33333" stroke-miterlimit="8" fill="#8C0078"/><text fill="#FFFFFF" font-family="Arial,Arial_MSFontService,sans-serif" font-weight="400" font-size="24" transform="translate(527.734 123)">pointe<tspan font-size="24" x="65.3334" y="0">r</tspan></text><rect x="489" y="436" width="302" height="257" fill="#03234B" fill-opacity="0.501961"/><text fill="#FFFFFF" font-family="Arial,Arial_MSFontService,sans-serif" font-weight="400" font-size="24" transform="translate(613.333 463)">RAM</text><rect x="504" y="473" width="272" height="205" fill="#03234B" fill-opacity="0.501961"/><text fill="#FFFFFF" font-family="Arial,Arial_MSFontService,sans-serif" font-weight="400" font-size="24" transform="translate(588 501)">byte_poo<tspan font-size="24" x="98.6667" y="0">l</tspan></text><rect x="519" y="519" width="242" height="143" fill="#FFD200"/><text fill="#FFFFFF" font-family="Arial,Arial_MSFontService,sans-serif" font-weight="400" font-size="24" transform="translate(609.55 547)">buffer</text><rect x="519.5" y="564.5" width="242" height="38" stroke="#BC9A00" stroke-width="1.33333" stroke-miterlimit="8" fill="#FFD200"/><text fill="#FFFFFF" font-family="Arial,Arial_MSFontService,sans-serif" font-weight="400" font-size="24" transform="translate(581.333 592)">unalocated</text><rect x="519.5" y="602.5" width="242" height="38" stroke="#2983A9" stroke-width="1.33333" stroke-miterlimit="8" fill="#3CB4E6"/><text fill="#FFFFFF" font-family="Arial,Arial_MSFontService,sans-serif" font-weight="400" font-size="24" transform="translate(592 629)">allocated</text><rect x="867" y="436" width="302" height="257" fill="#03234B" fill-opacity="0.501961"/><text fill="#FFFFFF" font-family="Arial,Arial_MSFontService,sans-serif" font-weight="400" font-size="24" transform="translate(991.328 463)">RAM</text><rect x="882" y="473" width="272" height="205" fill="#03234B" fill-opacity="0.501961"/><text fill="#FFFFFF" font-family="Arial,Arial_MSFontService,sans-serif" font-weight="400" font-size="24" transform="translate(965.995 501)">byte_poo<tspan font-size="24" x="98.6666" y="0">l</tspan></text><rect x="897" y="519" width="242" height="143" fill="#FFD200"/><text fill="#FFFFFF" font-family="Arial,Arial_MSFontService,sans-serif" font-weight="400" font-size="24" transform="translate(987.545 547)">buffer</text><rect x="897.5" y="564.5" width="242" height="38" stroke="#650056" stroke-width="1.33333" stroke-miterlimit="8" fill="#8C0078"/><text fill="#FFFFFF" font-family="Arial,Arial_MSFontService,sans-serif" font-weight="400" font-size="24" transform="translate(959.328 592)">unalocated</text><rect x="897.5" y="602.5" width="242" height="38" stroke="#2983A9" stroke-width="1.33333" stroke-miterlimit="8" fill="#3CB4E6"/><text fill="#FFFFFF" font-family="Arial,Arial_MSFontService,sans-serif" font-weight="400" font-size="24" transform="translate(969.995 629)">allocated</text><rect x="867.5" y="58.5001" width="302" height="37" stroke="#338150" stroke-width="1.33333" stroke-miterlimit="8" fill="#49B170"/><text fill="#FFFFFF" font-family="Arial,Arial_MSFontService,sans-serif" font-weight="400" font-size="24" transform="translate(901.995 85)">tx_byte_pool_allocate</text><rect x="867.5" y="95.5001" width="151" height="38" stroke="#650056" stroke-width="1.33333" stroke-miterlimit="8" fill="#8C0078"/><text fill="#FFFFFF" font-family="Arial,Arial_MSFontService,sans-serif" font-weight="400" font-size="24" transform="translate(899.062 123)">pointer3</text><rect x="1018.5" y="95.5001" width="151" height="38" stroke="#650056" stroke-width="1.33333" stroke-miterlimit="8" fill="#8C0078"/><text fill="#FFFFFF" font-family="Arial,Arial_MSFontService,sans-serif" font-weight="400" font-size="24" transform="translate(1037.59 123)">length 200</text><path d="M935.701 279.369C932.711 257.366 948.109 237.103 970.094 234.11 979.003 232.898 988.06 234.71 995.818 239.259 1004.04 223.752 1023.25 217.859 1038.72 226.096 1041.43 227.536 1043.91 229.362 1046.09 231.515 1052.49 218.661 1068.09 213.439 1080.92 219.851 1084.47 221.626 1087.57 224.192 1089.98 227.354 1100.3 215.198 1118.53 213.696 1130.7 224 1135.82 228.331 1139.27 234.304 1140.46 240.895 1157.36 245.512 1167.34 263 1162.73 279.956 1162.35 281.382 1161.86 282.779 1161.28 284.136 1174.84 301.804 1171.52 327.128 1153.87 340.698 1148.37 344.922 1141.88 347.657 1135.02 348.638 1134.87 367.646 1119.34 382.932 1100.33 382.779 1093.98 382.728 1087.77 380.921 1082.38 377.558 1075.95 398.868 1053.53 410.913 1032.3 404.461 1023.4 401.757 1015.71 396.038 1010.54 388.281 988.804 401.405 960.587 394.345 947.52 372.512 947.355 372.237 947.193 371.96 947.034 371.681 932.807 373.348 919.919 363.187 918.249 348.985 917.359 341.415 919.856 333.838 925.074 328.274 912.755 321.015 908.617 305.081 915.831 292.686 919.993 285.535 927.292 280.807 935.485 279.957Z" fill="#E6007E" fill-rule="evenodd"/><path d="M1035.52 153.121C1035.52 156.02 1033.17 158.371 1030.27 158.371 1027.37 158.371 1025.02 156.02 1025.02 153.121 1025.02 150.221 1027.37 147.871 1030.27 147.871 1033.17 147.871 1035.52 150.221 1035.52 153.121Z" fill="#E6007E" fill-rule="evenodd"/><path d="M1041.97 170.795C1041.97 176.594 1037.27 181.295 1031.47 181.295 1025.67 181.295 1020.97 176.594 1020.97 170.795 1020.97 164.995 1025.67 160.294 1031.47 160.294 1037.27 160.294 1041.97 164.995 1041.97 170.795Z" fill="#E6007E" fill-rule="evenodd"/><path d="M1049.13 198.944C1049.13 207.643 1042.08 214.694 1033.38 214.694 1024.68 214.694 1017.63 207.643 1017.63 198.944 1017.63 190.246 1024.68 183.194 1033.38 183.194 1042.08 183.194 1049.13 190.246 1049.13 198.944Z" fill="#E6007E" fill-rule="evenodd"/><path d="M935.701 279.369C932.711 257.366 948.109 237.103 970.094 234.11 979.003 232.898 988.06 234.71 995.818 239.259 1004.04 223.752 1023.25 217.859 1038.72 226.096 1041.43 227.536 1043.91 229.362 1046.09 231.515 1052.49 218.661 1068.09 213.439 1080.92 219.851 1084.47 221.626 1087.57 224.192 1089.98 227.354 1100.3 215.198 1118.53 213.696 1130.7 224 1135.82 228.331 1139.27 234.304 1140.46 240.895 1157.36 245.512 1167.34 263 1162.73 279.956 1162.35 281.382 1161.86 282.779 1161.28 284.136 1174.84 301.804 1171.52 327.128 1153.87 340.698 1148.37 344.922 1141.88 347.657 1135.02 348.638 1134.87 367.646 1119.34 382.932 1100.33 382.779 1093.98 382.728 1087.77 380.921 1082.38 377.558 1075.95 398.868 1053.53 410.913 1032.3 404.461 1023.4 401.757 1015.71 396.038 1010.54 388.281 988.804 401.405 960.587 394.345 947.52 372.512 947.355 372.237 947.193 371.96 947.034 371.681 932.807 373.348 919.919 363.187 918.249 348.985 917.359 341.415 919.856 333.838 925.074 328.274 912.755 321.015 908.617 305.081 915.831 292.686 919.993 285.535 927.292 280.807 935.485 279.957Z" stroke="#A9005B" stroke-width="1.33333" stroke-miterlimit="8" fill="none" fill-rule="evenodd"/><path d="M1035.52 153.121C1035.52 156.02 1033.17 158.371 1030.27 158.371 1027.37 158.371 1025.02 156.02 1025.02 153.121 1025.02 150.221 1027.37 147.871 1030.27 147.871 1033.17 147.871 1035.52 150.221 1035.52 153.121Z" stroke="#A9005B" stroke-width="1.33333" stroke-miterlimit="8" fill="none" fill-rule="evenodd"/><path d="M1041.97 170.795C1041.97 176.594 1037.27 181.295 1031.47 181.295 1025.67 181.295 1020.97 176.594 1020.97 170.795 1020.97 164.995 1025.67 160.294 1031.47 160.294 1037.27 160.294 1041.97 164.995 1041.97 170.795Z" stroke="#A9005B" stroke-width="1.33333" stroke-miterlimit="8" fill="none" fill-rule="evenodd"/><path d="M1049.13 198.944C1049.13 207.643 1042.08 214.694 1033.38 214.694 1024.68 214.694 1017.63 207.643 1017.63 198.944 1017.63 190.246 1024.68 183.194 1033.38 183.194 1042.08 183.194 1049.13 190.246 1049.13 198.944Z" stroke="#A9005B" stroke-width="1.33333" stroke-miterlimit="8" fill="none" fill-rule="evenodd"/><path d="M940.419 331.024C935.16 331.437 929.901 330.22 925.349 327.538M953.715 369.183C951.6 370.026 949.384 370.587 947.122 370.852M1010.53 387.519C1008.94 385.131 1007.61 382.579 1006.56 379.906M1083.99 368.536C1083.76 371.368 1083.23 374.168 1082.41 376.889M1115.54 316.924C1127.46 322.733 1134.99 334.878 1134.88 348.142M1161.16 283.674C1159.23 288.191 1156.28 292.197 1152.55 295.38M1140.49 240.239C1140.82 242.063 1140.97 243.914 1140.95 245.767M1085.49 233.79C1086.61 231.239 1088.1 228.865 1089.9 226.74M1044.22 237.15C1044.68 235.042 1045.39 233 1046.36 231.069M995.787 239.215C998.594 240.861 1001.19 242.842 1003.52 245.114M937.052 285.577C936.439 283.547 935.988 281.472 935.702 279.37" stroke="#A9005B" stroke-width="1.33333" stroke-miterlimit="8" fill="none" fill-rule="evenodd"/><text fill="#FFFFFF" font-family="Arial,Arial_MSFontService,sans-serif" font-weight="400" font-size="24" transform="translate(988.202 272)">Error no <tspan font-size="24" x="-21.3333" y="29">linear space </tspan><tspan font-size="24" x="-22.6666" y="58">for 200bytes </tspan><tspan font-size="24" x="8" y="87">in pool</tspan></text></g></svg>