<svg width="909" height="396" xmlns="http://www.w3.org/2000/svg" xmlns:xlink="http://www.w3.org/1999/xlink" overflow="hidden"><defs><clipPath id="clip0"><rect x="110" y="55" width="909" height="396"/></clipPath></defs><g clip-path="url(#clip0)" transform="translate(-110 -55)"><rect x="111.5" y="171.5" width="302" height="38" stroke="#2983A9" stroke-width="1.33333" stroke-miterlimit="8" fill="#3CB4E6"/><text fill="#FFFFFF" font-family="Arial,Arial_MSFontService,sans-serif" font-weight="400" font-size="24" transform="translate(148.672 199)">tx_block_pool_create</text><rect x="111.5" y="247.5" width="302" height="37" stroke="#338150" stroke-width="1.33333" stroke-miterlimit="8" fill="#49B170"/><text fill="#FFFFFF" font-family="Arial,Arial_MSFontService,sans-serif" font-weight="400" font-size="24" transform="translate(140.672 274)">tx_block_pool_allocate</text><path d="M413 188.833 633.13 188.833 633.13 191.167 413 191.167ZM631.797 186 639.797 190 631.797 194Z" fill="#03234B"/><rect x="716" y="58" width="302" height="393" fill="#03234B" fill-opacity="0.501961"/><text fill="#FFFFFF" font-family="Arial,Arial_MSFontService,sans-serif" font-weight="400" font-size="24" transform="translate(840.13 85)">RAM</text><rect x="731" y="95" width="272" height="341" fill="#03234B" fill-opacity="0.501961"/><text fill="#FFFFFF" font-family="Arial,Arial_MSFontService,sans-serif" font-weight="400" font-size="24" transform="translate(809.464 123)">block_poo<tspan font-size="24" x="109.333" y="0">l</tspan></text><rect x="746" y="141" width="242" height="279" fill="#FFD200"/><text fill="#FFFFFF" font-family="Arial,Arial_MSFontService,sans-serif" font-weight="400" font-size="24" transform="translate(836.347 169)">buffer</text><rect x="489.5" y="133.5" width="151" height="38" stroke="#BC9A00" stroke-width="1.33333" stroke-miterlimit="8" fill="#FFD200"/><text fill="#FFFFFF" font-family="Arial,Arial_MSFontService,sans-serif" font-weight="400" font-size="24" transform="translate(533.951 161)">buffer</text><rect x="489.5" y="209.5" width="151" height="38" stroke="#650056" stroke-width="1.33333" stroke-miterlimit="8" fill="#8C0078"/><text fill="#FFFFFF" font-family="Arial,Arial_MSFontService,sans-serif" font-weight="400" font-size="24" transform="translate(527.734 236)">pointe<tspan font-size="24" x="65.3334" y="0">r</tspan></text><rect x="746.5" y="186.5" width="242" height="38" stroke="#650056" stroke-width="1.33333" stroke-miterlimit="8" fill="#8C0078"/><text fill="#FFFFFF" font-family="Arial,Arial_MSFontService,sans-serif" font-weight="400" font-size="24" transform="translate(818.797 214)">allocated</text><path d="M413 264.833 633.13 264.833 633.13 267.167 413 267.167ZM631.797 262 639.797 266 631.797 270Z" fill="#03234B"/><path d="M0.426594-1.08588 6.94185 1.47369 6.08867 3.64544-0.426594 1.08588ZM9.11361 2.32688 15.6289 4.88645 14.7757 7.0582 8.26042 4.49863ZM17.8006 5.73963 24.3159 8.2992 23.4627 10.471 16.9474 7.91139ZM26.4876 9.15239 33.0029 11.712 32.1497 13.8837 25.6344 11.3241ZM35.1746 12.5651 41.6899 15.1247 40.8367 17.2965 34.3215 14.7369ZM43.8617 15.9779 50.3769 18.5375 49.5237 20.7092 43.0085 18.1497ZM52.5487 19.3907 59.0639 21.9502 58.2107 24.122 51.6955 21.5624ZM61.2357 22.8034 67.7509 25.363 66.8978 27.5347 60.3825 24.9752ZM69.9227 26.2162 76.438 28.7757 75.5848 30.9475 69.0695 28.3879ZM78.6097 29.6289 85.125 32.1885 84.2718 34.3602 77.7565 31.8007ZM87.2967 33.0417 93.812 35.6012 92.9588 37.773 86.4435 35.2134ZM95.9837 36.4544 100.06 38.0558 99.2068 40.2276 95.1305 38.6262ZM99.8551 34.9312 105.839 41.5794 96.9299 42.3772Z" fill="#03234B" transform="matrix(1 0 0 -1 640 227.579)"/><rect x="746.5" y="224.5" width="242" height="38" stroke="#BC9A00" stroke-width="1.33333" stroke-miterlimit="8" fill="#FFD200"/><text fill="#FFFFFF" font-family="Arial,Arial_MSFontService,sans-serif" font-weight="400" font-size="24" transform="translate(805.464 251)">unallocated</text><rect x="489.5" y="80.5001" width="151" height="38" stroke="#BC9A00" stroke-width="1.33333" stroke-miterlimit="8" fill="#FFD200"/><text fill="#FFFFFF" font-family="Arial,Arial_MSFontService,sans-serif" font-weight="400" font-size="24" transform="translate(511.734 108)">block size</text><rect x="746.5" y="262.5" width="242" height="38" stroke="#BC9A00" stroke-width="1.33333" stroke-miterlimit="8" fill="#FFD200"/><text fill="#FFFFFF" font-family="Arial,Arial_MSFontService,sans-serif" font-weight="400" font-size="24" transform="translate(805.464 289)">unallocated</text><rect x="746.5" y="300.5" width="242" height="37" stroke="#BC9A00" stroke-width="1.33333" stroke-miterlimit="8" fill="#FFD200"/><text fill="#FFFFFF" font-family="Arial,Arial_MSFontService,sans-serif" font-weight="400" font-size="24" transform="translate(805.464 327)">unallocated</text><rect x="746.5" y="337.5" width="242" height="38" stroke="#BC9A00" stroke-width="1.33333" stroke-miterlimit="8" fill="#FFD200"/><text fill="#FFFFFF" font-family="Arial,Arial_MSFontService,sans-serif" font-weight="400" font-size="24" transform="translate(805.464 365)">unallocated</text><rect x="746.5" y="375.5" width="242" height="38" stroke="#BC9A00" stroke-width="1.33333" stroke-miterlimit="8" fill="#FFD200"/><text fill="#FFFFFF" font-family="Arial,Arial_MSFontService,sans-serif" font-weight="400" font-size="24" transform="translate(805.464 403)">unallocated</text><path d="M0-1.16667 38.9661-1.16667 38.9661 80.2721 36.6328 80.2721 36.6328 0 37.7995 1.16667 0 1.16667ZM41.7995 78.9388 37.7995 86.9388 33.7995 78.9388Z" fill="#03234B" transform="matrix(-1 1.22465e-16 1.22465e-16 1 488.799 99)"/><path d="M0 0 37.7995 0.000104987" stroke="#03234B" stroke-width="2.33333" stroke-miterlimit="8" fill="none" fill-rule="evenodd" transform="matrix(-1 0 0 1 488.799 152)"/><path d="M0 0 37.7995 0.000104987" stroke="#03234B" stroke-width="2.33333" stroke-miterlimit="8" fill="none" fill-rule="evenodd" transform="matrix(-1 0 0 1 488.799 228)"/><path d="M452.167 228 452.167 255.388 449.833 255.388 449.833 228ZM455 254.055 451 262.055 447 254.055Z" fill="#03234B"/></g></svg>