<svg width="1138" height="566" xmlns="http://www.w3.org/2000/svg" xmlns:xlink="http://www.w3.org/1999/xlink" overflow="hidden"><defs><clipPath id="clip0"><rect x="108" y="54" width="1138" height="566"/></clipPath></defs><g clip-path="url(#clip0)" transform="translate(-108 -54)"><rect x="489.5" y="58.5001" width="227" height="75" stroke="#BC9A00" stroke-width="1.33333" stroke-miterlimit="8" fill="#FFD200"/><text fill="#FFFFFF" font-family="Arial,Arial_MSFontService,sans-serif" font-weight="400" font-size="24" transform="translate(567.534 104)">Ready</text><rect x="791.5" y="284.5" width="227" height="76" stroke="#650056" stroke-width="1.33333" stroke-miterlimit="8" fill="#8C0078"/><text fill="#FFFFFF" font-family="Arial,Arial_MSFontService,sans-serif" font-weight="400" font-size="24" transform="translate(857.263 331)">Suspend</text><rect x="186.5" y="284.5" width="227" height="76" stroke="#338150" stroke-width="1.33333" stroke-miterlimit="8" fill="#49B170"/><text fill="#FFFFFF" font-family="Arial,Arial_MSFontService,sans-serif" font-weight="400" font-size="24" transform="translate(247.138 331)">Executing</text><rect x="716" y="511" width="226" height="76" fill="#03234B" fill-opacity="0.501961"/><text fill="#FFFFFF" font-family="Arial,Arial_MSFontService,sans-serif" font-weight="400" font-size="24" transform="translate(769.661 558)">Terminated</text><rect x="262" y="511" width="227" height="76" fill="#03234B"/><text fill="#FFFFFF" font-family="Arial,Arial_MSFontService,sans-serif" font-weight="400" font-size="24" transform="translate(317.404 558)">Completed</text><rect x="942.5" y="58.5001" width="303" height="37" stroke="#2983A9" stroke-width="1.33333" stroke-miterlimit="8" fill="#3CB4E6"/><text fill="#FFFFFF" font-family="Arial,Arial_MSFontService,sans-serif" font-weight="400" font-size="24" transform="translate(1003.59 85)">tx_thread_create</text><path d="M0.166091-1.99309 216.998 16.0762 216.665 20.0624-0.166091 1.99309ZM215.337 11.9239 226.797 18.8997 214.34 23.8825Z" fill="#03234B" transform="matrix(-1 0 0 1 942.797 77)"/><path d="M1.41421-1.41421 183.34 180.512 180.512 183.34-1.41421 1.41421ZM184.755 176.269 188.997 188.997 176.269 184.755Z" fill="#03234B" transform="matrix(-1 0 0 1 1094 95)"/><rect x="753.5" y="73.5001" width="159" height="22" stroke="#BC9A00" stroke-width="1.33333" stroke-miterlimit="8" fill="#FFD200"/><text fill="#FFFFFF" font-family="Arial,Arial_MSFontService,sans-serif" font-weight="400" font-size="16" transform="translate(766.074 90)">TX_AUTO_START</text><rect x="905.5" y="194.5" width="158" height="22" stroke="#650056" stroke-width="1.33333" stroke-miterlimit="8" fill="#8C0078"/><text fill="#FFFFFF" font-family="Arial,Arial_MSFontService,sans-serif" font-weight="400" font-size="16" transform="translate(916.712 211)">TX_DONT_START</text><path d="M9.78025 2.8874 279.359 144.771 277.496 148.311 7.91726 6.42708ZM7.82454 10.8985 0 0 13.4135 0.279449ZM279.451 140.299 287.276 151.198 273.863 150.918Z" fill="#03234B" transform="matrix(-1 0 0 1 587.276 133)"/><path d="M413 320 780.995 320 780.995 324 413 324ZM778.995 316 790.995 322 778.995 328Z" fill="#03234B"/><rect x="519.5" y="307.5" width="159" height="23" stroke="#650056" stroke-width="1.33333" stroke-miterlimit="8" fill="#8C0078"/><text fill="#FFFFFF" font-family="Arial,Arial_MSFontService,sans-serif" font-weight="400" font-size="16" transform="translate(530.671 325)">tx_thread_suspend</text><path d="M626.78 135.887 896.359 277.771 894.496 281.31 624.917 139.427ZM624.825 143.898 617 133 630.414 133.279ZM896.451 273.299 904.276 284.198 890.863 283.918Z" fill="#03234B"/><rect x="769.5" y="231.5" width="158" height="23" stroke="#650056" stroke-width="1.33333" stroke-miterlimit="8" fill="#8C0078"/><text fill="#FFFFFF" font-family="Arial,Arial_MSFontService,sans-serif" font-weight="400" font-size="16" transform="translate(780.147 249)">tx_thread_suspend</text><path d="M301.789 359.106 372.916 501.359 369.338 503.148 298.211 360.894ZM375.599 497.781 375.599 511.198 364.866 503.148Z" fill="#03234B"/><path d="M300.564 358.081 805.043 506.457 803.915 510.295 299.436 361.919ZM804.253 502.056 814.073 511.198 800.867 513.568Z" fill="#03234B"/><path d="M1.85695-0.742781 58.6222 141.17 54.9083 142.656-1.85695 0.742781ZM61.5933 137.828 60.4792 151.198 50.4516 142.285Z" fill="#03234B" transform="matrix(-1 0 0 1 904.479 360)"/><path d="M603.715 131.971 825.367 501.391 821.937 503.449 600.285 134.029ZM827.768 497.618 828.797 510.995 817.478 503.792Z" fill="#03234B"/><rect x="270.5" y="443.5" width="158" height="23" stroke="#021735" stroke-width="1.33333" stroke-miterlimit="8" fill="#03234B"/><text fill="#FFFFFF" font-family="Arial,Arial_MSFontService,sans-serif" font-weight="400" font-size="16" transform="translate(328.111 461)">return</text><rect x="716" y="466" width="166" height="23" fill="#03234B" fill-opacity="0.501961"/><text fill="#FFFFFF" font-family="Arial,Arial_MSFontService,sans-serif" font-weight="400" font-size="16" transform="translate(727.841 484)">tx_thread_terminate</text><rect x="678.5" y="194.5" width="159" height="22" stroke="#BC9A00" stroke-width="1.33333" stroke-miterlimit="8" fill="#FFD200"/><text fill="#FFFFFF" font-family="Arial,Arial_MSFontService,sans-serif" font-weight="400" font-size="16" transform="translate(692.928 211)">tx_thread_resume</text><path d="M375 587 375 617.24" stroke="#03234B" stroke-width="4" stroke-miterlimit="8" fill="none" fill-rule="evenodd"/><path d="M829 587 829 617.24" stroke="#03234B" stroke-width="2.33333" stroke-miterlimit="8" fill="none" fill-rule="evenodd"/><path d="M0 0 718.19 0.000104987" stroke="#03234B" stroke-width="4" stroke-miterlimit="8" fill="none" fill-rule="evenodd" transform="matrix(-1 0 0 1 829.19 617)"/><path d="M0 0 0.000104987 521.633" stroke="#03234B" stroke-width="4" stroke-miterlimit="8" fill="none" fill-rule="evenodd" transform="matrix(1 0 0 -1 111 616.633)"/><path d="M111 93.8333 482.328 93.8334 482.328 96.1668 111 96.1667ZM480.995 91.0001 488.995 95.0001 480.995 99.0001Z" fill="#03234B"/><rect x="209.5" y="80.5001" width="159" height="23" stroke="#BC9A00" stroke-width="1.33333" stroke-miterlimit="8" fill="#FFD200"/><text fill="#FFFFFF" font-family="Arial,Arial_MSFontService,sans-serif" font-weight="400" font-size="16" transform="translate(233.048 98)">tx_thread_reset</text></g></svg>