<svg width="681" height="540" xmlns="http://www.w3.org/2000/svg" xmlns:xlink="http://www.w3.org/1999/xlink" overflow="hidden"><defs><clipPath id="clip0"><rect x="35" y="55" width="681" height="540"/></clipPath></defs><g clip-path="url(#clip0)" transform="translate(-35 -55)"><rect x="489" y="504" width="151" height="90" fill="#03234B" fill-opacity="0.501961"/><text fill="#FFFFFF" font-family="Arial,Arial_MSFontService,sans-serif" font-weight="400" font-size="24" transform="translate(506.401 531)">Completed</text><rect x="35" y="58" width="681" height="249" fill="#3CB4E6" fill-opacity="0.501961"/><text fill="#FFFFFF" font-family="Arial,Arial_MSFontService,sans-serif" font-weight="400" font-size="24" transform="translate(321.404 85)">Scheduler</text><rect x="35" y="352" width="681" height="91" fill="#49B170" fill-opacity="0.501961"/><text fill="#FFFFFF" font-family="Arial,Arial_MSFontService,sans-serif" font-weight="400" font-size="24" transform="translate(330.737 380)">Running</text><rect x="194.5" y="390.5" width="76" height="38" stroke="#338150" stroke-width="1.33333" stroke-miterlimit="8" fill="#49B170"/><text fill="#FFFFFF" font-family="Arial,Arial_MSFontService,sans-serif" font-weight="400" font-size="24" transform="translate(217.766 418)">T1</text><rect x="50" y="95" width="650" height="205" fill="#FFD200" fill-opacity="0.501961"/><text fill="#FFFFFF" font-family="Arial,Arial_MSFontService,sans-serif" font-weight="400" font-size="24" transform="translate(340.737 123)">Ready</text><rect x="360.5" y="390.5" width="76" height="38" stroke="#338150" stroke-width="1.33333" stroke-miterlimit="8" fill="#49B170"/><text fill="#FFFFFF" font-family="Arial,Arial_MSFontService,sans-serif" font-weight="400" font-size="24" transform="translate(384.083 418)">T3</text><rect x="443.5" y="390.5" width="76" height="38" stroke="#338150" stroke-width="1.33333" stroke-miterlimit="8" fill="#49B170"/><text fill="#FFFFFF" font-family="Arial,Arial_MSFontService,sans-serif" font-weight="400" font-size="24" transform="translate(467.242 418)">T4</text><rect x="610.5" y="390.5" width="75" height="38" stroke="#338150" stroke-width="1.33333" stroke-miterlimit="8" fill="#49B170"/><text fill="#FFFFFF" font-family="Arial,Arial_MSFontService,sans-serif" font-weight="400" font-size="24" transform="translate(633.56 418)">T1</text><rect x="194.5" y="209.5" width="76" height="38" stroke="#BC9A00" stroke-width="1.33333" stroke-miterlimit="8" fill="#FFD200"/><text fill="#FFFFFF" font-family="Arial,Arial_MSFontService,sans-serif" font-weight="400" font-size="24" transform="translate(217.766 236)">T3</text><rect x="194.5" y="247.5" width="76" height="37" stroke="#BC9A00" stroke-width="1.33333" stroke-miterlimit="8" fill="#FFD200"/><text fill="#FFFFFF" font-family="Arial,Arial_MSFontService,sans-serif" font-weight="400" font-size="24" transform="translate(217.766 274)">T2</text><rect x="194.5" y="171.5" width="76" height="38" stroke="#BC9A00" stroke-width="1.33333" stroke-miterlimit="8" fill="#FFD200"/><text fill="#FFFFFF" font-family="Arial,Arial_MSFontService,sans-serif" font-weight="400" font-size="24" transform="translate(217.766 199)">T4</text><rect x="194.5" y="133.5" width="76" height="38" stroke="#BC9A00" stroke-width="1.33333" stroke-miterlimit="8" fill="#FFD200"/><text fill="#FFFFFF" font-family="Arial,Arial_MSFontService,sans-serif" font-weight="400" font-size="24" transform="translate(217.766 161)">T5</text><rect x="277.5" y="247.5" width="76" height="37" stroke="#BC9A00" stroke-width="1.33333" stroke-miterlimit="8" fill="#FFD200"/><text fill="#FFFFFF" font-family="Arial,Arial_MSFontService,sans-serif" font-weight="400" font-size="24" transform="translate(300.924 274)">T3</text><rect x="277.5" y="133.5" width="76" height="38" stroke="#BC9A00" stroke-width="1.33333" stroke-miterlimit="8" fill="#FFD200"/><text fill="#FFFFFF" font-family="Arial,Arial_MSFontService,sans-serif" font-weight="400" font-size="24" transform="translate(300.924 161)">T1</text><rect x="277.5" y="209.5" width="76" height="38" stroke="#BC9A00" stroke-width="1.33333" stroke-miterlimit="8" fill="#FFD200"/><text fill="#FFFFFF" font-family="Arial,Arial_MSFontService,sans-serif" font-weight="400" font-size="24" transform="translate(300.924 236)">T4</text><rect x="277.5" y="171.5" width="76" height="38" stroke="#BC9A00" stroke-width="1.33333" stroke-miterlimit="8" fill="#FFD200"/><text fill="#FFFFFF" font-family="Arial,Arial_MSFontService,sans-serif" font-weight="400" font-size="24" transform="translate(300.924 199)">T5</text><rect x="360.5" y="171.5" width="76" height="38" stroke="#BC9A00" stroke-width="1.33333" stroke-miterlimit="8" fill="#FFD200"/><text fill="#FFFFFF" font-family="Arial,Arial_MSFontService,sans-serif" font-weight="400" font-size="24" transform="translate(384.083 199)">T1</text><rect x="360.5" y="247.5" width="76" height="37" stroke="#BC9A00" stroke-width="1.33333" stroke-miterlimit="8" fill="#FFD200"/><text fill="#FFFFFF" font-family="Arial,Arial_MSFontService,sans-serif" font-weight="400" font-size="24" transform="translate(384.083 274)">T4</text><rect x="360.5" y="209.5" width="76" height="38" stroke="#BC9A00" stroke-width="1.33333" stroke-miterlimit="8" fill="#FFD200"/><text fill="#FFFFFF" font-family="Arial,Arial_MSFontService,sans-serif" font-weight="400" font-size="24" transform="translate(384.083 236)">T5</text><rect x="443.5" y="171.5" width="76" height="38" stroke="#BC9A00" stroke-width="1.33333" stroke-miterlimit="8" fill="#FFD200"/><text fill="#FFFFFF" font-family="Arial,Arial_MSFontService,sans-serif" font-weight="400" font-size="24" transform="translate(467.242 199)">T3</text><rect x="443.5" y="209.5" width="76" height="38" stroke="#BC9A00" stroke-width="1.33333" stroke-miterlimit="8" fill="#FFD200"/><text fill="#FFFFFF" font-family="Arial,Arial_MSFontService,sans-serif" font-weight="400" font-size="24" transform="translate(467.242 236)">T1</text><rect x="443.5" y="247.5" width="76" height="37" stroke="#BC9A00" stroke-width="1.33333" stroke-miterlimit="8" fill="#FFD200"/><text fill="#FFFFFF" font-family="Arial,Arial_MSFontService,sans-serif" font-weight="400" font-size="24" transform="translate(467.242 274)">T5</text><rect x="527.5" y="209.5" width="75" height="38" stroke="#BC9A00" stroke-width="1.33333" stroke-miterlimit="8" fill="#FFD200"/><text fill="#FFFFFF" font-family="Arial,Arial_MSFontService,sans-serif" font-weight="400" font-size="24" transform="translate(550.401 236)">T3</text><rect x="527.5" y="171.5" width="75" height="38" stroke="#BC9A00" stroke-width="1.33333" stroke-miterlimit="8" fill="#FFD200"/><text fill="#FFFFFF" font-family="Arial,Arial_MSFontService,sans-serif" font-weight="400" font-size="24" transform="translate(550.401 199)">T4</text><rect x="610.5" y="247.5" width="75" height="37" stroke="#BC9A00" stroke-width="1.33333" stroke-miterlimit="8" fill="#FFD200"/><text fill="#FFFFFF" font-family="Arial,Arial_MSFontService,sans-serif" font-weight="400" font-size="24" transform="translate(633.56 274)">T3</text><rect x="610.5" y="209.5" width="75" height="38" stroke="#BC9A00" stroke-width="1.33333" stroke-miterlimit="8" fill="#FFD200"/><text fill="#FFFFFF" font-family="Arial,Arial_MSFontService,sans-serif" font-weight="400" font-size="24" transform="translate(633.56 236)">T4</text><rect x="610.5" y="171.5" width="75" height="38" stroke="#BC9A00" stroke-width="1.33333" stroke-miterlimit="8" fill="#FFD200"/><text fill="#FFFFFF" font-family="Arial,Arial_MSFontService,sans-serif" font-weight="400" font-size="24" transform="translate(633.56 199)">T5</text><rect x="65.5001" y="133.5" width="121" height="151" stroke="#BC9A00" stroke-width="1.33333" stroke-miterlimit="8" fill="#FFD200"/><text fill="#FFFFFF" font-family="Arial,Arial_MSFontService,sans-serif" font-weight="400" font-size="24" transform="translate(94.5938 189)">Same <tspan font-size="24" x="-4.66666" y="29">priority </tspan><tspan font-size="24" x="18" y="58">15</tspan></text><path d="M43.5001 396.75 160 396.75 160 383.5 186.5 410 160 436.5 160 423.25 43.5001 423.25Z" stroke="#338150" stroke-width="1.33333" stroke-miterlimit="8" fill="#49B170" fill-rule="evenodd"/><text fill="#FFFFFF" font-family="Arial,Arial_MSFontService,sans-serif" font-weight="400" font-size="24" transform="translate(55.3057 418)">Execution</text><rect x="527.5" y="390.5" width="75" height="38" stroke="#338150" stroke-width="1.33333" stroke-miterlimit="8" fill="#49B170"/><text fill="#FFFFFF" font-family="Arial,Arial_MSFontService,sans-serif" font-weight="400" font-size="24" transform="translate(550.401 418)">T5</text><rect x="527.5" y="247.5" width="75" height="37" stroke="#BC9A00" stroke-width="1.33333" stroke-miterlimit="8" fill="#FFD200"/><text fill="#FFFFFF" font-family="Arial,Arial_MSFontService,sans-serif" font-weight="400" font-size="24" transform="translate(550.401 274)">T1</text><path d="M277 555 342.599 555C343.704 555 344.599 555.896 344.599 557 344.599 558.105 343.703 559 342.599 559L277 559C275.895 559 275 558.105 275 557 275 555.895 275.895 555 277 555ZM340.599 551 352.599 557 340.599 563Z" fill="#49B170"/><rect x="277.5" y="390.5" width="76" height="38" stroke="#338150" stroke-width="1.33333" stroke-miterlimit="8" fill="#49B170"/><text fill="#FFFFFF" font-family="Arial,Arial_MSFontService,sans-serif" font-weight="400" font-size="24" transform="translate(300.924 418)">T2</text><path d="M353 541 353 571.24" stroke="#03234B" stroke-width="4" stroke-linecap="round" stroke-miterlimit="8" fill="none" fill-rule="evenodd"/><rect x="527.5" y="541.5" width="75" height="38" stroke="#021735" stroke-width="1.33333" stroke-miterlimit="8" fill="#03234B"/><text fill="#FFFFFF" font-family="Arial,Arial_MSFontService,sans-serif" font-weight="400" font-size="24" transform="translate(550.401 569)">T2</text><path d="M277 541 277 571.24" stroke="#49B170" stroke-width="4" stroke-linecap="round" stroke-miterlimit="8" fill="none" fill-rule="evenodd"/><path d="M353 558 516.878 558C517.982 558 518.878 558.896 518.878 560 518.878 561.105 517.982 562 516.878 562L353 562C351.895 562 351 561.105 351 560 351 558.895 351.895 558 353 558ZM514.878 554 526.878 560 514.878 566Z" fill="#03234B"/><path d="M2-9.25823e-06 2.00006 12.6797C2.00006 13.7842 1.10464 14.6797 6.7954e-05 14.6797-1.1045 14.6797-1.99994 13.7843-1.99994 12.6797L-2 9.25823e-06C-2.00001-1.10456-1.10458-1.99999-9.25823e-06-2 1.10456-2.00001 1.99999-1.10458 2-9.25823e-06ZM6.00005 10.6797 0.000104987 22.6797-5.99995 10.6797Z" fill="#49B170" transform="matrix(1 0 0 -1 292 579.68)"/><path d="M292 579 329.799 579" stroke="#49B170" stroke-width="4" stroke-linecap="round" stroke-miterlimit="8" fill="none" fill-rule="evenodd"/><path d="M0 0 0.000104987 22.6797" stroke="#49B170" stroke-width="4" stroke-linecap="round" stroke-miterlimit="8" fill="none" fill-rule="evenodd" transform="matrix(1 0 0 -1 330 579.68)"/><path d="M277 428 277 503.599" stroke="#49B170" stroke-width="4" stroke-linecap="round" stroke-miterlimit="8" stroke-dasharray="0 8" fill="none" fill-rule="evenodd"/><path d="M353 428 353 503.599" stroke="#49B170" stroke-width="4" stroke-linecap="round" stroke-miterlimit="8" stroke-dasharray="0 8" fill="none" fill-rule="evenodd"/><rect x="277.5" y="504.5" width="76" height="37" stroke="#338150" stroke-width="1.33333" stroke-miterlimit="8" fill="#49B170"/><text fill="#FFFFFF" font-family="Arial,Arial_MSFontService,sans-serif" font-weight="400" font-size="24" transform="translate(300.924 531)">T2</text></g></svg>