<svg width="908" height="624" xmlns="http://www.w3.org/2000/svg" xmlns:xlink="http://www.w3.org/1999/xlink" overflow="hidden"><defs><clipPath id="clip0"><rect x="35" y="39" width="908" height="624"/></clipPath></defs><g clip-path="url(#clip0)" transform="translate(-35 -39)"><rect x="35" y="111" width="681" height="325" fill="#3CB4E6" fill-opacity="0.501961"/><text fill="#FFFFFF" font-family="Arial,Arial_MSFontService,sans-serif" font-weight="400" font-size="24" transform="translate(321.404 138)">Scheduler</text><rect x="35" y="496" width="681" height="91" fill="#49B170" fill-opacity="0.501961"/><text fill="#FFFFFF" font-family="Arial,Arial_MSFontService,sans-serif" font-weight="400" font-size="24" transform="translate(330.737 524)">Running</text><rect x="194.5" y="534.5" width="76" height="38" stroke="#338150" stroke-width="1.33333" stroke-miterlimit="8" fill="#49B170"/><text fill="#FFFFFF" font-family="Arial,Arial_MSFontService,sans-serif" font-weight="400" font-size="24" transform="translate(217.766 561)">T1</text><rect x="50" y="148" width="650" height="280" fill="#FFD200" fill-opacity="0.501961"/><text fill="#FFFFFF" font-family="Arial,Arial_MSFontService,sans-serif" font-weight="400" font-size="24" transform="translate(340.737 176)">Ready</text><rect x="277.5" y="284.5" width="76" height="38" stroke="#BC9A00" stroke-width="1.33333" stroke-miterlimit="8" fill="#FFD200"/><text fill="#FFFFFF" font-family="Arial,Arial_MSFontService,sans-serif" font-weight="400" font-size="24" transform="translate(300.924 312)">T3</text><rect x="194.5" y="375.5" width="76" height="38" stroke="#BC9A00" stroke-width="1.33333" stroke-miterlimit="8" fill="#FFD200"/><text fill="#FFFFFF" font-family="Arial,Arial_MSFontService,sans-serif" font-weight="400" font-size="24" transform="translate(217.766 403)">T2</text><rect x="277.5" y="231.5" width="76" height="38" stroke="#BC9A00" stroke-width="1.33333" stroke-miterlimit="8" fill="#FFD200"/><text fill="#FFFFFF" font-family="Arial,Arial_MSFontService,sans-serif" font-weight="400" font-size="24" transform="translate(300.924 259)">T4</text><rect x="277.5" y="194.5" width="76" height="37" stroke="#BC9A00" stroke-width="1.33333" stroke-miterlimit="8" fill="#FFD200"/><text fill="#FFFFFF" font-family="Arial,Arial_MSFontService,sans-serif" font-weight="400" font-size="24" transform="translate(300.924 221)">T5</text><rect x="65.5001" y="337.5" width="121" height="76" stroke="#BC9A00" stroke-width="1.33333" stroke-miterlimit="8" fill="#FFD200"/><text fill="#FFFFFF" font-family="Arial,Arial_MSFontService,sans-serif" font-weight="400" font-size="21" transform="translate(76.0938 384)">Priority<tspan font-size="24" x="73" y="0">15</tspan></text><path d="M43.5001 539.75 160 539.75 160 526.5 186.5 553 160 579.5 160 566.25 43.5001 566.25Z" stroke="#338150" stroke-width="1.33333" stroke-miterlimit="8" fill="#49B170" fill-rule="evenodd"/><text fill="#FFFFFF" font-family="Arial,Arial_MSFontService,sans-serif" font-weight="400" font-size="24" transform="translate(55.3057 561)">Execution</text><rect x="65.5001" y="284.5" width="121" height="38" stroke="#BC9A00" stroke-width="1.33333" stroke-miterlimit="8" fill="#FFD200"/><text fill="#FFFFFF" font-family="Arial,Arial_MSFontService,sans-serif" font-weight="400" font-size="21" transform="translate(76.0938 312)">Priority<tspan font-size="24" x="73" y="0">14</tspan></text><rect x="65.5001" y="194.5" width="121" height="75" stroke="#BC9A00" stroke-width="1.33333" stroke-miterlimit="8" fill="#FFD200"/><text fill="#FFFFFF" font-family="Arial,Arial_MSFontService,sans-serif" font-weight="400" font-size="21" transform="translate(76.0938 240)">Priority<tspan font-size="24" x="73" y="0">13</tspan></text><rect x="277.5" y="534.5" width="76" height="38" stroke="#338150" stroke-width="1.33333" stroke-miterlimit="8" fill="#49B170"/><text fill="#FFFFFF" font-family="Arial,Arial_MSFontService,sans-serif" font-weight="400" font-size="24" transform="translate(300.924 561)">T2</text><rect x="277.5" y="375.5" width="76" height="38" stroke="#BC9A00" stroke-width="1.33333" stroke-miterlimit="8" fill="#FFD200"/><text fill="#FFFFFF" font-family="Arial,Arial_MSFontService,sans-serif" font-weight="400" font-size="24" transform="translate(300.924 403)">T1</text><rect x="443.5" y="534.5" width="76" height="38" stroke="#338150" stroke-width="1.33333" stroke-miterlimit="8" fill="#49B170"/><text fill="#FFFFFF" font-family="Arial,Arial_MSFontService,sans-serif" font-weight="400" font-size="24" transform="translate(467.242 561)">T5</text><rect x="527.5" y="534.5" width="75" height="38" stroke="#338150" stroke-width="1.33333" stroke-miterlimit="8" fill="#49B170"/><text fill="#FFFFFF" font-family="Arial,Arial_MSFontService,sans-serif" font-weight="400" font-size="24" transform="translate(550.401 561)">T3</text><rect x="610.5" y="534.5" width="75" height="38" stroke="#338150" stroke-width="1.33333" stroke-miterlimit="8" fill="#49B170"/><text fill="#FFFFFF" font-family="Arial,Arial_MSFontService,sans-serif" font-weight="400" font-size="24" transform="translate(633.56 561)">T1</text><rect x="360.5" y="375.5" width="76" height="38" stroke="#BC9A00" stroke-width="1.33333" stroke-miterlimit="8" fill="#FFD200"/><text fill="#FFFFFF" font-family="Arial,Arial_MSFontService,sans-serif" font-weight="400" font-size="24" transform="translate(384.083 403)">T1</text><rect x="360.5" y="337.5" width="76" height="38" stroke="#BC9A00" stroke-width="1.33333" stroke-miterlimit="8" fill="#FFD200"/><text fill="#FFFFFF" font-family="Arial,Arial_MSFontService,sans-serif" font-weight="400" font-size="24" transform="translate(384.083 365)">T2</text><rect x="443.5" y="375.5" width="76" height="38" stroke="#BC9A00" stroke-width="1.33333" stroke-miterlimit="8" fill="#FFD200"/><text fill="#FFFFFF" font-family="Arial,Arial_MSFontService,sans-serif" font-weight="400" font-size="24" transform="translate(467.242 403)">T1</text><rect x="443.5" y="337.5" width="76" height="38" stroke="#BC9A00" stroke-width="1.33333" stroke-miterlimit="8" fill="#FFD200"/><text fill="#FFFFFF" font-family="Arial,Arial_MSFontService,sans-serif" font-weight="400" font-size="24" transform="translate(467.242 365)">T2</text><rect x="527.5" y="375.5" width="75" height="38" stroke="#BC9A00" stroke-width="1.33333" stroke-miterlimit="8" fill="#FFD200"/><text fill="#FFFFFF" font-family="Arial,Arial_MSFontService,sans-serif" font-weight="400" font-size="24" transform="translate(550.401 403)">T1</text><rect x="527.5" y="337.5" width="75" height="38" stroke="#BC9A00" stroke-width="1.33333" stroke-miterlimit="8" fill="#FFD200"/><text fill="#FFFFFF" font-family="Arial,Arial_MSFontService,sans-serif" font-weight="400" font-size="24" transform="translate(550.401 365)">T2</text><rect x="610.5" y="375.5" width="75" height="38" stroke="#BC9A00" stroke-width="1.33333" stroke-miterlimit="8" fill="#FFD200"/><text fill="#FFFFFF" font-family="Arial,Arial_MSFontService,sans-serif" font-weight="400" font-size="24" transform="translate(633.56 403)">T2</text><rect x="360.5" y="284.5" width="76" height="38" stroke="#BC9A00" stroke-width="1.33333" stroke-miterlimit="8" fill="#FFD200"/><text fill="#FFFFFF" font-family="Arial,Arial_MSFontService,sans-serif" font-weight="400" font-size="24" transform="translate(384.083 312)">T3</text><rect x="443.5" y="284.5" width="76" height="38" stroke="#BC9A00" stroke-width="1.33333" stroke-miterlimit="8" fill="#FFD200"/><text fill="#FFFFFF" font-family="Arial,Arial_MSFontService,sans-serif" font-weight="400" font-size="24" transform="translate(467.242 312)">T3</text><rect x="791" y="587" width="151" height="75" fill="#03234B" fill-opacity="0.501961"/><text fill="#FFFFFF" font-family="Arial,Arial_MSFontService,sans-serif" font-weight="400" font-size="24" transform="translate(808.797 615)">Completed</text><path d="M436 623 781.315 623C782.42 623 783.315 623.896 783.315 625 783.315 626.105 782.42 627 781.315 627L436 627C434.895 627 434 626.105 434 625 434 623.895 434.895 623 436 623ZM779.315 619 791.315 625 779.315 631Z" fill="#727277"/><path d="M436 572 436 624.919" stroke="#727277" stroke-width="4" stroke-linecap="round" stroke-miterlimit="8" fill="none" fill-rule="evenodd"/><rect x="360.5" y="534.5" width="76" height="38" stroke="#338150" stroke-width="1.33333" stroke-miterlimit="8" fill="#49B170"/><text fill="#FFFFFF" font-family="Arial,Arial_MSFontService,sans-serif" font-weight="400" font-size="24" transform="translate(384.083 561)">T4</text><path d="M519 572 519 624.919" stroke="#727277" stroke-width="4" stroke-linecap="round" stroke-miterlimit="8" fill="none" fill-rule="evenodd"/><path d="M602 572 602 624.919" stroke="#727277" stroke-width="4" stroke-linecap="round" stroke-miterlimit="8" fill="none" fill-rule="evenodd"/><path d="M224 80 224 306.797" stroke="#FFD200" stroke-width="4" stroke-linecap="round" stroke-miterlimit="8" fill="none" fill-rule="evenodd"/><path d="M224 305 266.919 305C268.024 305 268.919 305.896 268.919 307 268.919 308.105 268.024 309 266.919 309L224 309C222.895 309 222 308.105 222 307 222 305.895 222.895 305 224 305ZM264.919 301 276.919 307 264.919 313Z" fill="#FFD200"/><path d="M224 252 266.919 252C268.024 252 268.919 252.896 268.919 254 268.919 255.105 268.024 256 266.919 256L224 256C222.895 256 222 255.105 222 254 222 252.895 222.895 252 224 252ZM264.919 248 276.919 254 264.919 260Z" fill="#FFD200"/><path d="M224 214 266.919 214C268.024 214 268.919 214.896 268.919 216 268.919 217.105 268.024 218 266.919 218L224 218C222.895 218 222 217.105 222 216 222 214.895 222.895 214 224 214ZM264.919 210 276.919 216 264.919 222Z" fill="#FFD200"/><rect x="96.5001" y="42.5001" width="302" height="38" stroke="#2983A9" stroke-width="1.33333" stroke-miterlimit="8" fill="#3CB4E6"/><text fill="#FFFFFF" font-family="Arial,Arial_MSFontService,sans-serif" font-weight="400" font-size="24" transform="translate(156.885 70)">tx_thread_create</text></g></svg>