<svg width="706" height="541" xmlns="http://www.w3.org/2000/svg" xmlns:xlink="http://www.w3.org/1999/xlink" overflow="hidden"><defs><clipPath id="clip0"><rect x="35" y="145" width="706" height="541"/></clipPath></defs><g clip-path="url(#clip0)" transform="translate(-35 -145)"><rect x="35" y="148" width="681" height="356" fill="#3CB4E6" fill-opacity="0.501961"/><text fill="#FFFFFF" font-family="Arial,Arial_MSFontService,sans-serif" font-weight="400" font-size="24" transform="translate(321.404 176)">Scheduler</text><rect x="35" y="549" width="681" height="91" fill="#49B170" fill-opacity="0.501961"/><text fill="#FFFFFF" font-family="Arial,Arial_MSFontService,sans-serif" font-weight="400" font-size="24" transform="translate(330.737 577)">Running</text><rect x="194.5" y="587.5" width="76" height="38" stroke="#338150" stroke-width="1.33333" stroke-miterlimit="8" fill="#49B170"/><text fill="#FFFFFF" font-family="Arial,Arial_MSFontService,sans-serif" font-weight="400" font-size="24" transform="translate(217.766 614)">T1</text><rect x="50" y="322" width="650" height="174" fill="#FFD200" fill-opacity="0.501961"/><text fill="#FFFFFF" font-family="Arial,Arial_MSFontService,sans-serif" font-weight="400" font-size="24" transform="translate(340.737 350)">Ready</text><rect x="360.5" y="587.5" width="76" height="38" stroke="#338150" stroke-width="1.33333" stroke-miterlimit="8" fill="#49B170"/><text fill="#FFFFFF" font-family="Arial,Arial_MSFontService,sans-serif" font-weight="400" font-size="24" transform="translate(384.083 614)">T2</text><rect x="443.5" y="587.5" width="76" height="38" stroke="#338150" stroke-width="1.33333" stroke-miterlimit="8" fill="#49B170"/><text fill="#FFFFFF" font-family="Arial,Arial_MSFontService,sans-serif" font-weight="400" font-size="24" transform="translate(467.242 614)">T2</text><path d="M43.5001 592.75 160 592.75 160 579.5 186.5 606 160 632.5 160 619.25 43.5001 619.25Z" stroke="#338150" stroke-width="1.33333" stroke-miterlimit="8" fill="#49B170" fill-rule="evenodd"/><text fill="#FFFFFF" font-family="Arial,Arial_MSFontService,sans-serif" font-weight="400" font-size="24" transform="translate(55.3057 614)">Execution</text><path d="M232 625 232 662.799" stroke="#8C0078" stroke-width="4" stroke-linecap="round" stroke-miterlimit="8" fill="none" fill-rule="evenodd"/><path d="M232 662 738.513 662" stroke="#8C0078" stroke-width="4" stroke-linecap="round" stroke-miterlimit="8" fill="none" fill-rule="evenodd"/><path d="M0 0 0.000104987 438.474" stroke="#8C0078" stroke-width="4" stroke-linecap="round" stroke-miterlimit="8" fill="none" fill-rule="evenodd" transform="matrix(1 0 0 -1 738 662.474)"/><rect x="610.5" y="587.5" width="75" height="38" stroke="#338150" stroke-width="1.33333" stroke-miterlimit="8" fill="#49B170"/><text fill="#FFFFFF" font-family="Arial,Arial_MSFontService,sans-serif" font-weight="400" font-size="24" transform="translate(633.56 614)">T2</text><rect x="50" y="186" width="650" height="129" fill="#E6007E" fill-opacity="0.501961"/><text fill="#FFFFFF" font-family="Arial,Arial_MSFontService,sans-serif" font-weight="400" font-size="24" transform="translate(328.07 214)">Suspend</text><rect x="277.5" y="247.5" width="76" height="37" stroke="#650056" stroke-width="1.33333" stroke-miterlimit="8" fill="#8C0078"/><text fill="#FFFFFF" font-family="Arial,Arial_MSFontService,sans-serif" font-weight="400" font-size="24" transform="translate(300.924 274)">T1</text><rect x="360.5" y="247.5" width="76" height="37" stroke="#650056" stroke-width="1.33333" stroke-miterlimit="8" fill="#8C0078"/><text fill="#FFFFFF" font-family="Arial,Arial_MSFontService,sans-serif" font-weight="400" font-size="24" transform="translate(384.083 274)">T1</text><path d="M0 0 423.354 0.000104987" stroke="#8C0078" stroke-width="4" stroke-linecap="round" stroke-miterlimit="8" fill="none" fill-rule="evenodd" transform="matrix(-1 0 0 1 738.354 224)"/><path d="M317 224 317 236.68C317 237.784 316.105 238.68 315 238.68 313.896 238.68 313 237.784 313 236.68L313 224C313 222.895 313.895 222 315 222 316.105 222 317 222.895 317 224ZM321 234.68 315 246.68 309 234.68Z" fill="#8C0078"/><rect x="277.5" y="587.5" width="76" height="38" stroke="#338150" stroke-width="1.33333" stroke-miterlimit="8" fill="#49B170"/><text fill="#FFFFFF" font-family="Arial,Arial_MSFontService,sans-serif" font-weight="400" font-size="24" transform="translate(300.924 614)">T2</text><rect x="65.5001" y="451.5" width="121" height="38" stroke="#BC9A00" stroke-width="1.33333" stroke-miterlimit="8" fill="#FFD200"/><text fill="#FFFFFF" font-family="Arial,Arial_MSFontService,sans-serif" font-weight="400" font-size="19" transform="translate(78.8571 476)">P-<tspan font-size="19" x="18.6667" y="0">15 PT</tspan>-<tspan font-size="19" x="73.4733" y="0">14</tspan></text><rect x="65.5001" y="360.5" width="121" height="38" stroke="#BC9A00" stroke-width="1.33333" stroke-miterlimit="8" fill="#FFD200"/><text fill="#FFFFFF" font-family="Arial,Arial_MSFontService,sans-serif" font-weight="400" font-size="19" transform="translate(81.4271 386)">P-<tspan font-size="19" x="18.6667" y="0">13 PT13</tspan></text><rect x="171.5" y="655.5" width="182" height="23" stroke="#650056" stroke-width="1.33333" stroke-miterlimit="8" fill="#8C0078"/><text fill="#FFFFFF" font-family="Arial,Arial_MSFontService,sans-serif" font-weight="400" font-size="16" transform="translate(195.589 673)">tx_thread<tspan font-size="16" x="66.5" y="0">_sleep</tspan><tspan font-size="16" x="113.333" y="0">(3)</tspan></text><rect x="194.5" y="451.5" width="76" height="38" stroke="#BC9A00" stroke-width="1.33333" stroke-miterlimit="8" fill="#FFD200"/><text fill="#FFFFFF" font-family="Arial,Arial_MSFontService,sans-serif" font-weight="400" font-size="24" transform="translate(217.766 478)">T2</text><path d="M65 398 692.471 398" stroke="#E6007E" stroke-width="4" stroke-linecap="round" stroke-miterlimit="8" fill="none" fill-rule="evenodd"/><path d="M0-2 32.2396-2 32.2396 61.819C32.2396 62.9236 31.3441 63.819 30.2396 63.819 29.135 63.819 28.2396 62.9236 28.2396 61.819L28.2396 0 30.2396 2 0 2C-1.10457 2-2 1.10457-2 0-2-1.10457-1.10457-2 0-2ZM36.2396 59.819 30.2396 71.819 24.2396 59.819Z" fill="#E6007E" transform="matrix(1 0 0 -1 270 469.819)"/><rect x="224.5" y="375.5" width="204" height="23" stroke="#E6007E" stroke-width="1.33333" stroke-miterlimit="8" fill="#E6007E"/><text fill="#FFFFFF" font-family="Arial,Arial_MSFontService,sans-serif" font-weight="400" font-size="16" transform="translate(244.264 393)">T2 preemption <tspan font-size="16" x="107.333" y="0">treshold</tspan></text><path d="M564 625 564 662.799" stroke="#8C0078" stroke-width="4" stroke-linecap="round" stroke-miterlimit="8" fill="none" fill-rule="evenodd"/><path d="M566 398 566 576.997C566 578.102 565.105 578.997 564 578.997 562.896 578.997 562 578.102 562 576.997L562 398C562 396.895 562.895 396 564 396 565.105 396 566 396.895 566 398ZM570 574.997 564 586.997 558 574.997Z" fill="#49B170"/><path d="M482.345 282.52 558.105 351.392C558.922 352.135 558.982 353.4 558.239 354.218 557.496 355.035 556.232 355.095 555.414 354.352L479.655 285.48C478.837 284.737 478.777 283.472 479.52 282.655 480.263 281.837 481.528 281.777 482.345 282.52ZM559.316 347.087 564.159 359.599 551.244 355.967Z" fill="#FFD200"/><rect x="443.5" y="247.5" width="76" height="37" stroke="#650056" stroke-width="1.33333" stroke-miterlimit="8" fill="#8C0078"/><text fill="#FFFFFF" font-family="Arial,Arial_MSFontService,sans-serif" font-weight="400" font-size="24" transform="translate(467.242 274)">T1</text><rect x="527.5" y="360.5" width="75" height="38" stroke="#BC9A00" stroke-width="1.33333" stroke-miterlimit="8" fill="#FFD200"/><text fill="#FFFFFF" font-family="Arial,Arial_MSFontService,sans-serif" font-weight="400" font-size="24" transform="translate(550.401 387)">T1</text><rect x="527.5" y="587.5" width="75" height="38" stroke="#338150" stroke-width="1.33333" stroke-miterlimit="8" fill="#49B170"/><text fill="#FFFFFF" font-family="Arial,Arial_MSFontService,sans-serif" font-weight="400" font-size="24" transform="translate(550.401 614)">T1</text><rect x="527.5" y="451.5" width="75" height="38" stroke="#BC9A00" stroke-width="1.33333" stroke-miterlimit="8" fill="#FFD200"/><text fill="#FFFFFF" font-family="Arial,Arial_MSFontService,sans-serif" font-weight="400" font-size="24" transform="translate(550.401 478)">T2</text></g></svg>