<svg width="736" height="437" xmlns="http://www.w3.org/2000/svg" xmlns:xlink="http://www.w3.org/1999/xlink" overflow="hidden"><defs><clipPath id="clip0"><rect x="35" y="221" width="736" height="437"/></clipPath></defs><g clip-path="url(#clip0)" transform="translate(-35 -221)"><rect x="35" y="224" width="681" height="280" fill="#3CB4E6" fill-opacity="0.501961"/><text fill="#FFFFFF" font-family="Arial,Arial_MSFontService,sans-serif" font-weight="400" font-size="24" transform="translate(321.404 252)">Scheduler</text><rect x="35" y="549" width="681" height="91" fill="#49B170" fill-opacity="0.501961"/><text fill="#FFFFFF" font-family="Arial,Arial_MSFontService,sans-serif" font-weight="400" font-size="24" transform="translate(330.737 577)">Running</text><path d="M43.5001 592.75 160 592.75 160 579.5 186.5 606 160 632.5 160 619.25 43.5001 619.25Z" stroke="#338150" stroke-width="1.33333" stroke-miterlimit="8" fill="#49B170" fill-rule="evenodd"/><text fill="#FFFFFF" font-family="Arial,Arial_MSFontService,sans-serif" font-weight="400" font-size="24" transform="translate(55.3057 614)">Execution</text><rect x="50" y="269" width="650" height="227" fill="#03234B" fill-opacity="0.501961"/><text fill="#FFFFFF" font-family="Arial,Arial_MSFontService,sans-serif" font-weight="400" font-size="24" transform="translate(313.404 297)">Semaphore</text><path d="M232 625 232 655.24" stroke="#03234B" stroke-width="4" stroke-linecap="round" stroke-miterlimit="8" fill="none" fill-rule="evenodd"/><path d="M234 655 768.396 655" stroke="#03234B" stroke-width="4" stroke-linecap="round" stroke-miterlimit="8" fill="none" fill-rule="evenodd"/><path d="M0 0 0.000104987 321.296" stroke="#03234B" stroke-width="4" stroke-linecap="round" stroke-miterlimit="8" fill="none" fill-rule="evenodd" transform="matrix(1 0 0 -1 769 655.296)"/><path d="M0 0 536.753 0.000104987" stroke="#03234B" stroke-width="4" stroke-linecap="round" stroke-miterlimit="8" fill="none" fill-rule="evenodd" transform="matrix(-1 0 0 1 768.753 413)"/><path d="M234 413 234 440.799C234 441.904 233.105 442.799 232 442.799 230.896 442.799 230 441.904 230 440.799L230 413C230 411.895 230.895 411 232 411 233.105 411 234 411.895 234 413ZM238 438.799 232 450.799 226 438.799Z" fill="#03234B"/><path d="M317 413 317 440.799C317 441.904 316.105 442.799 315 442.799 313.896 442.799 313 441.904 313 440.799L313 413C313 411.895 313.895 411 315 411 316.105 411 317 411.895 317 413ZM321 438.799 315 450.799 309 438.799Z" fill="#03234B"/><rect x="65.5001" y="451.5" width="121" height="38" stroke="#021735" stroke-width="1.33333" stroke-miterlimit="8" fill="#03234B"/><text fill="#FFFFFF" font-family="Arial,Arial_MSFontService,sans-serif" font-weight="400" font-size="24" transform="translate(111.26 478)">S1</text><rect x="360.5" y="451.5" width="76" height="38" stroke="#021735" stroke-width="1.33333" stroke-miterlimit="8" fill="#03234B"/><text fill="#FFFFFF" font-family="Arial,Arial_MSFontService,sans-serif" font-weight="400" font-size="24" transform="translate(391.417 478)">1</text><rect x="277.5" y="451.5" width="76" height="38" stroke="#021735" stroke-width="1.33333" stroke-miterlimit="8" fill="#03234B"/><text fill="#FFFFFF" font-family="Arial,Arial_MSFontService,sans-serif" font-weight="400" font-size="24" transform="translate(308.258 478)">1</text><rect x="527.5" y="451.5" width="75" height="38" stroke="#021735" stroke-width="1.33333" stroke-miterlimit="8" fill="#03234B"/><text fill="#FFFFFF" font-family="Arial,Arial_MSFontService,sans-serif" font-weight="400" font-size="24" transform="translate(557.734 478)">1</text><path d="M400 413 400 440.799C400 441.904 399.105 442.799 398 442.799 396.896 442.799 396 441.904 396 440.799L396 413C396 411.895 396.895 411 398 411 399.105 411 400 411.895 400 413ZM404 438.799 398 450.799 392 438.799Z" fill="#03234B"/><path d="M315 625 315 655.24" stroke="#03234B" stroke-width="4" stroke-linecap="round" stroke-miterlimit="8" fill="none" fill-rule="evenodd"/><path d="M398 625 398 655.24" stroke="#03234B" stroke-width="4" stroke-linecap="round" stroke-miterlimit="8" fill="none" fill-rule="evenodd"/><path d="M564 625 564 655.24" stroke="#03234B" stroke-width="4" stroke-linecap="round" stroke-miterlimit="8" fill="none" fill-rule="evenodd"/><rect x="194.5" y="587.5" width="76" height="38" stroke="#338150" stroke-width="1.33333" stroke-miterlimit="8" fill="#49B170"/><text fill="#FFFFFF" font-family="Arial,Arial_MSFontService,sans-serif" font-weight="400" font-size="24" transform="translate(217.766 614)">T1</text><rect x="360.5" y="587.5" width="76" height="38" stroke="#338150" stroke-width="1.33333" stroke-miterlimit="8" fill="#49B170"/><text fill="#FFFFFF" font-family="Arial,Arial_MSFontService,sans-serif" font-weight="400" font-size="24" transform="translate(384.083 614)">T1</text><rect x="443.5" y="587.5" width="76" height="38" stroke="#338150" stroke-width="1.33333" stroke-miterlimit="8" fill="#49B170"/><text fill="#FFFFFF" font-family="Arial,Arial_MSFontService,sans-serif" font-weight="400" font-size="24" transform="translate(467.242 614)">T1</text><rect x="610.5" y="587.5" width="75" height="38" stroke="#338150" stroke-width="1.33333" stroke-miterlimit="8" fill="#49B170"/><text fill="#FFFFFF" font-family="Arial,Arial_MSFontService,sans-serif" font-weight="400" font-size="24" transform="translate(633.56 614)">T1</text><rect x="277.5" y="587.5" width="76" height="38" stroke="#338150" stroke-width="1.33333" stroke-miterlimit="8" fill="#49B170"/><text fill="#FFFFFF" font-family="Arial,Arial_MSFontService,sans-serif" font-weight="400" font-size="24" transform="translate(300.924 614)">T1</text><rect x="527.5" y="587.5" width="75" height="38" stroke="#338150" stroke-width="1.33333" stroke-miterlimit="8" fill="#49B170"/><text fill="#FFFFFF" font-family="Arial,Arial_MSFontService,sans-serif" font-weight="400" font-size="24" transform="translate(550.401 614)">T1</text><path d="M566 413 566 440.799C566 441.904 565.105 442.799 564 442.799 562.896 442.799 562 441.904 562 440.799L562 413C562 411.895 562.895 411 564 411 565.105 411 566 411.895 566 413ZM570 438.799 564 450.799 558 438.799Z" fill="#03234B"/><rect x="443.5" y="451.5" width="76" height="38" stroke="#021735" stroke-width="1.33333" stroke-miterlimit="8" fill="#03234B"/><text fill="#FFFFFF" font-family="Arial,Arial_MSFontService,sans-serif" font-weight="400" font-size="24" transform="translate(474.576 478)">1</text><rect x="610.5" y="451.5" width="75" height="38" stroke="#021735" stroke-width="1.33333" stroke-miterlimit="8" fill="#03234B"/><text fill="#FFFFFF" font-family="Arial,Arial_MSFontService,sans-serif" font-weight="400" font-size="24" transform="translate(640.893 478)">1</text><rect x="542.5" y="413.5" width="227" height="23" stroke="#021735" stroke-width="1.33333" stroke-miterlimit="8" fill="#03234B"/><text fill="#FFFFFF" font-family="Arial,Arial_MSFontService,sans-serif" font-weight="400" font-size="16" transform="translate(552.453 431)">tx_semaphore_ceiling_put<tspan font-size="16" x="185.833" y="0">(1)</tspan></text><rect x="194" y="451" width="76" height="38" stroke="#03234B" stroke-width="4" stroke-linejoin="round" stroke-miterlimit="10" stroke-dasharray="4 4" fill="#03234B" fill-opacity="0.501961"/><text fill="#FFFFFF" font-family="Arial,Arial_MSFontService,sans-serif" font-weight="400" font-size="24" transform="translate(225.099 478)">0</text><path d="M234 322 234 349.799C234 350.904 233.105 351.799 232 351.799 230.896 351.799 230 350.904 230 349.799L230 322C230 320.895 230.895 320 232 320 233.105 320 234 320.895 234 322ZM238 347.799 232 359.799 226 347.799Z" fill="#03234B"/><path d="M317 322 317 349.799C317 350.904 316.105 351.799 315 351.799 313.896 351.799 313 350.904 313 349.799L313 322C313 320.895 313.895 320 315 320 316.105 320 317 320.895 317 322ZM321 347.799 315 359.799 309 347.799Z" fill="#03234B"/><rect x="65.5001" y="360.5" width="121" height="38" stroke="#021735" stroke-width="1.33333" stroke-miterlimit="8" fill="#03234B"/><text fill="#FFFFFF" font-family="Arial,Arial_MSFontService,sans-serif" font-weight="400" font-size="24" transform="translate(111.26 387)">S2</text><rect x="360.5" y="360.5" width="76" height="38" stroke="#021735" stroke-width="1.33333" stroke-miterlimit="8" fill="#03234B"/><text fill="#FFFFFF" font-family="Arial,Arial_MSFontService,sans-serif" font-weight="400" font-size="24" transform="translate(391.417 387)">2</text><rect x="277.5" y="360.5" width="76" height="38" stroke="#021735" stroke-width="1.33333" stroke-miterlimit="8" fill="#03234B"/><text fill="#FFFFFF" font-family="Arial,Arial_MSFontService,sans-serif" font-weight="400" font-size="24" transform="translate(308.258 387)">1</text><rect x="527.5" y="360.5" width="75" height="38" stroke="#021735" stroke-width="1.33333" stroke-miterlimit="8" fill="#03234B"/><text fill="#FFFFFF" font-family="Arial,Arial_MSFontService,sans-serif" font-weight="400" font-size="24" transform="translate(557.734 387)">2</text><path d="M400 322 400 349.799C400 350.904 399.105 351.799 398 351.799 396.896 351.799 396 350.904 396 349.799L396 322C396 320.895 396.895 320 398 320 399.105 320 400 320.895 400 322ZM404 347.799 398 359.799 392 347.799Z" fill="#03234B"/><path d="M566 322 566 349.799C566 350.904 565.105 351.799 564 351.799 562.896 351.799 562 350.904 562 349.799L562 322C562 320.895 562.895 320 564 320 565.105 320 566 320.895 566 322ZM570 347.799 564 359.799 558 347.799Z" fill="#03234B"/><rect x="443.5" y="360.5" width="76" height="38" stroke="#021735" stroke-width="1.33333" stroke-miterlimit="8" fill="#03234B"/><text fill="#FFFFFF" font-family="Arial,Arial_MSFontService,sans-serif" font-weight="400" font-size="24" transform="translate(474.576 387)">2</text><rect x="610.5" y="360.5" width="75" height="38" stroke="#021735" stroke-width="1.33333" stroke-miterlimit="8" fill="#03234B"/><text fill="#FFFFFF" font-family="Arial,Arial_MSFontService,sans-serif" font-weight="400" font-size="24" transform="translate(640.893 387)">2</text><rect x="194" y="360" width="76" height="38" stroke="#03234B" stroke-width="4" stroke-linejoin="round" stroke-miterlimit="10" stroke-dasharray="4 4" fill="#03234B" fill-opacity="0.501961"/><text fill="#FFFFFF" font-family="Arial,Arial_MSFontService,sans-serif" font-weight="400" font-size="24" transform="translate(225.099 387)">0</text><rect x="542.5" y="322.5" width="227" height="23" stroke="#021735" stroke-width="1.33333" stroke-miterlimit="8" fill="#03234B"/><text fill="#FFFFFF" font-family="Arial,Arial_MSFontService,sans-serif" font-weight="400" font-size="16" transform="translate(552.453 340)">tx_semaphore_ceiling_put<tspan font-size="16" x="185.833" y="0">(2)</tspan></text><path d="M0 0 536.753 0.000104987" stroke="#03234B" stroke-width="4" stroke-linecap="round" stroke-miterlimit="8" fill="none" fill-rule="evenodd" transform="matrix(-1 0 0 1 768.753 322)"/></g></svg>