<svg width="752" height="513" xmlns="http://www.w3.org/2000/svg" xmlns:xlink="http://www.w3.org/1999/xlink" overflow="hidden"><defs><clipPath id="clip0"><rect x="35" y="145" width="752" height="513"/></clipPath></defs><g clip-path="url(#clip0)" transform="translate(-35 -145)"><rect x="35" y="549" width="681" height="91" fill="#49B170" fill-opacity="0.501961"/><text fill="#FFFFFF" font-family="Arial,Arial_MSFontService,sans-serif" font-weight="400" font-size="24" transform="translate(330.737 577)">Running</text><path d="M43.5001 592.75 160 592.75 160 579.5 186.5 606 160 632.5 160 619.25 43.5001 619.25Z" stroke="#338150" stroke-width="1.33333" stroke-miterlimit="8" fill="#49B170" fill-rule="evenodd"/><text fill="#FFFFFF" font-family="Arial,Arial_MSFontService,sans-serif" font-weight="400" font-size="24" transform="translate(55.3057 614)">Execution</text><rect x="35" y="148" width="681" height="356" fill="#3CB4E6" fill-opacity="0.501961"/><text fill="#FFFFFF" font-family="Arial,Arial_MSFontService,sans-serif" font-weight="400" font-size="24" transform="translate(321.404 176)">Scheduler</text><rect x="50" y="413" width="650" height="83" fill="#FFD200" fill-opacity="0.501961"/><text fill="#FFFFFF" font-family="Arial,Arial_MSFontService,sans-serif" font-weight="400" font-size="24" transform="translate(340.737 441)">Ready</text><rect x="50" y="322" width="650" height="83" fill="#E6007E" fill-opacity="0.501961"/><text fill="#FFFFFF" font-family="Arial,Arial_MSFontService,sans-serif" font-weight="400" font-size="24" transform="translate(328.07 350)">Suspend</text><rect x="65.5001" y="451.5" width="121" height="38" stroke="#BC9A00" stroke-width="1.33333" stroke-miterlimit="8" fill="#FFD200"/><text fill="#FFFFFF" font-family="Arial,Arial_MSFontService,sans-serif" font-weight="400" font-size="19" transform="translate(106.26 476)">P-<tspan font-size="19" x="18.6667" y="0">15</tspan></text><rect x="527.5" y="451.5" width="75" height="38" stroke="#BC9A00" stroke-width="1.33333" stroke-miterlimit="8" fill="#FFD200"/><text fill="#FFFFFF" font-family="Arial,Arial_MSFontService,sans-serif" font-weight="400" font-size="24" transform="translate(550.401 478)">T1</text><rect x="50" y="224" width="650" height="91" fill="#03234B" fill-opacity="0.501961"/><text fill="#FFFFFF" font-family="Arial,Arial_MSFontService,sans-serif" font-weight="400" font-size="24" transform="translate(342.737 252)">Mutex</text><path d="M0 0 536.753 0.000104987" stroke="#03234B" stroke-width="4" stroke-linecap="round" stroke-miterlimit="8" fill="none" fill-rule="evenodd" transform="matrix(-1 0 0 1 783.753 224)"/><path d="M498 224 498 259.359C498 260.464 497.105 261.359 496 261.359 494.896 261.359 494 260.464 494 259.359L494 224C494 222.895 494.895 222 496 222 497.105 222 498 222.895 498 224ZM502 257.359 496 269.359 490 257.359Z" fill="#03234B"/><path d="M589 398 589 440.919C589 442.024 588.105 442.919 587 442.919 585.896 442.919 585 442.024 585 440.919L585 398C585 396.895 585.895 396 587 396 588.105 396 589 396.895 589 398ZM593 438.919 587 450.919 581 438.919Z" fill="#FFD200"/><path d="M249 224 249 259.359C249 260.464 248.105 261.359 247 261.359 245.896 261.359 245 260.464 245 259.359L245 224C245 222.895 245.895 222 247 222 248.105 222 249 222.895 249 224ZM253 257.359 247 269.359 241 257.359Z" fill="#03234B"/><rect x="65.5001" y="269.5" width="121" height="38" stroke="#021735" stroke-width="1.33333" stroke-miterlimit="8" fill="#03234B"/><text fill="#FFFFFF" font-family="Arial,Arial_MSFontService,sans-serif" font-weight="400" font-size="24" transform="translate(115.927 297)">M</text><rect x="194.5" y="269.5" width="76" height="38" stroke="#021735" stroke-width="1.33333" stroke-miterlimit="8" fill="#03234B"/><text fill="#FFFFFF" font-family="Arial,Arial_MSFontService,sans-serif" font-weight="400" font-size="24" transform="translate(225.099 297)">1</text><rect x="602.5" y="224.5" width="182" height="23" stroke="#021735" stroke-width="1.33333" stroke-miterlimit="8" fill="#03234B"/><text fill="#FFFFFF" font-family="Arial,Arial_MSFontService,sans-serif" font-weight="400" font-size="16" transform="translate(645.003 242)">tx_mutex_get</text><rect x="360.5" y="269.5" width="76" height="38" stroke="#021735" stroke-width="1.33333" stroke-miterlimit="8" fill="#03234B"/><text fill="#FFFFFF" font-family="Arial,Arial_MSFontService,sans-serif" font-weight="400" font-size="24" transform="translate(391.417 297)">1</text><rect x="277" y="269" width="76" height="38" stroke="#03234B" stroke-width="4" stroke-linejoin="round" stroke-miterlimit="10" stroke-dasharray="4 4" fill="#03234B" fill-opacity="0.501961"/><text fill="#FFFFFF" font-family="Arial,Arial_MSFontService,sans-serif" font-weight="400" font-size="24" transform="translate(292.924 297)">(T1)</text><rect x="527.5" y="360.5" width="75" height="38" stroke="#650056" stroke-width="1.33333" stroke-miterlimit="8" fill="#8C0078"/><text fill="#FFFFFF" font-family="Arial,Arial_MSFontService,sans-serif" font-weight="400" font-size="24" transform="translate(550.401 387)">T1</text><rect x="610" y="269" width="75" height="38" stroke="#03234B" stroke-width="4" stroke-linejoin="round" stroke-miterlimit="10" stroke-dasharray="4 4" fill="#03234B" fill-opacity="0.501961"/><text fill="#FFFFFF" font-family="Arial,Arial_MSFontService,sans-serif" font-weight="400" font-size="24" transform="translate(625.56 297)">(T1)</text><path d="M785 224 785 654.914" stroke="#03234B" stroke-width="4" stroke-linecap="round" stroke-miterlimit="8" fill="none" fill-rule="evenodd"/><path d="M232 655 784.753 655" stroke="#03234B" stroke-width="4" stroke-linecap="round" stroke-miterlimit="8" fill="none" fill-rule="evenodd"/><path d="M232 625 232 655.24" stroke="#03234B" stroke-width="4" stroke-linecap="round" stroke-miterlimit="8" fill="none" fill-rule="evenodd"/><path d="M481 625 481 655.24" stroke="#03234B" stroke-width="4" stroke-linecap="round" stroke-miterlimit="8" fill="none" fill-rule="evenodd"/><rect x="194.5" y="587.5" width="76" height="38" stroke="#338150" stroke-width="1.33333" stroke-miterlimit="8" fill="#49B170"/><text fill="#FFFFFF" font-family="Arial,Arial_MSFontService,sans-serif" font-weight="400" font-size="24" transform="translate(217.766 614)">T1</text><rect x="360.5" y="587.5" width="76" height="38" stroke="#338150" stroke-width="1.33333" stroke-miterlimit="8" fill="#49B170"/><text fill="#FFFFFF" font-family="Arial,Arial_MSFontService,sans-serif" font-weight="400" font-size="24" transform="translate(384.083 614)">T1</text><rect x="527.5" y="587.5" width="75" height="38" stroke="#338150" stroke-width="1.33333" stroke-miterlimit="8" fill="#49B170"/><text fill="#FFFFFF" font-family="Arial,Arial_MSFontService,sans-serif" font-weight="400" font-size="24" transform="translate(545.068 614)">Idle</text><rect x="610.5" y="587.5" width="75" height="38" stroke="#338150" stroke-width="1.33333" stroke-miterlimit="8" fill="#49B170"/><text fill="#FFFFFF" font-family="Arial,Arial_MSFontService,sans-serif" font-weight="400" font-size="24" transform="translate(633.56 614)">T1</text><rect x="277.5" y="587.5" width="76" height="38" stroke="#338150" stroke-width="1.33333" stroke-miterlimit="8" fill="#49B170"/><text fill="#FFFFFF" font-family="Arial,Arial_MSFontService,sans-serif" font-weight="400" font-size="24" transform="translate(300.924 614)">T1</text><rect x="443.5" y="587.5" width="76" height="38" stroke="#338150" stroke-width="1.33333" stroke-miterlimit="8" fill="#49B170"/><text fill="#FFFFFF" font-family="Arial,Arial_MSFontService,sans-serif" font-weight="400" font-size="24" transform="translate(467.242 614)">T1</text><path d="M505.627 305.838 537.615 350.619C538.257 351.518 538.048 352.767 537.15 353.409 536.251 354.051 535.002 353.843 534.36 352.944L502.373 308.162C501.731 307.264 501.939 306.015 502.838 305.373 503.736 304.731 504.985 304.939 505.627 305.838ZM539.707 346.667 541.799 359.919 529.942 353.642Z" fill="#8C0078"/><path d="M589 307 589 349.919C589 351.024 588.105 351.919 587 351.919 585.896 351.919 585 351.024 585 349.919L585 307C585 305.895 585.895 305 587 305 588.105 305 589 305.895 589 307ZM593 347.919 587 359.919 581 347.919Z" fill="#FFD200"/><rect x="527.5" y="269.5" width="75" height="38" stroke="#021735" stroke-width="1.33333" stroke-miterlimit="8" fill="#03234B"/><text fill="#FFFFFF" font-family="Arial,Arial_MSFontService,sans-serif" font-weight="400" font-size="24" transform="translate(557.734 297)">1</text><rect x="443" y="269" width="76" height="38" stroke="#03234B" stroke-width="4" stroke-linejoin="round" stroke-miterlimit="10" stroke-dasharray="4 4" fill="#03234B" fill-opacity="0.501961"/><text fill="#FFFFFF" font-family="Arial,Arial_MSFontService,sans-serif" font-weight="400" font-size="24" transform="translate(466.576 297)">(0)</text><path d="M588.816 488.162 629.985 577.361C630.448 578.364 630.01 579.552 629.007 580.015 628.004 580.478 626.816 580.04 626.353 579.037L585.184 489.838C584.721 488.835 585.159 487.647 586.162 487.184 587.165 486.721 588.353 487.159 588.816 488.162ZM632.778 573.869 632.359 587.279 621.883 578.897Z" fill="#49B170"/><path d="M498 224 498 259.359C498 260.464 497.105 261.359 496 261.359 494.896 261.359 494 260.464 494 259.359L494 224C494 222.895 494.895 222 496 222 497.105 222 498 222.895 498 224ZM502 257.359 496 269.359 490 257.359Z" fill="#03234B"/></g></svg>