<svg width="700" height="483" xmlns="http://www.w3.org/2000/svg" xmlns:xlink="http://www.w3.org/1999/xlink" overflow="hidden"><defs><clipPath id="clip0"><rect x="35" y="175" width="700" height="483"/></clipPath></defs><g clip-path="url(#clip0)" transform="translate(-35 -175)"><rect x="35" y="549" width="681" height="91" fill="#49B170" fill-opacity="0.501961"/><text fill="#FFFFFF" font-family="Arial,Arial_MSFontService,sans-serif" font-weight="400" font-size="24" transform="translate(330.737 577)">Running</text><path d="M43.5001 592.75 160 592.75 160 579.5 186.5 606 160 632.5 160 619.25 43.5001 619.25Z" stroke="#338150" stroke-width="1.33333" stroke-miterlimit="8" fill="#49B170" fill-rule="evenodd"/><text fill="#FFFFFF" font-family="Arial,Arial_MSFontService,sans-serif" font-weight="400" font-size="24" transform="translate(55.3057 614)">Execution</text><path d="M232 625 232 655.24" stroke="#03234B" stroke-width="4" stroke-linecap="round" stroke-miterlimit="8" fill="none" fill-rule="evenodd"/><path d="M232 655 730.953 655" stroke="#03234B" stroke-width="4" stroke-linecap="round" stroke-miterlimit="8" fill="none" fill-rule="evenodd"/><rect x="35" y="179" width="681" height="325" fill="#3CB4E6" fill-opacity="0.501961"/><text fill="#FFFFFF" font-family="Arial,Arial_MSFontService,sans-serif" font-weight="400" font-size="24" transform="translate(321.404 206)">Scheduler</text><rect x="50" y="413" width="650" height="83" fill="#FFD200" fill-opacity="0.501961"/><text fill="#FFFFFF" font-family="Arial,Arial_MSFontService,sans-serif" font-weight="400" font-size="24" transform="translate(331.404 441)">Threads</text><rect x="65.5001" y="451.5" width="121" height="38" stroke="#BC9A00" stroke-width="1.33333" stroke-miterlimit="8" fill="#FFD200"/><text fill="#FFFFFF" font-family="Arial,Arial_MSFontService,sans-serif" font-weight="400" font-size="19" transform="translate(106.26 476)">P-<tspan font-size="19" x="18.6667" y="0">15</tspan></text><rect x="50" y="239" width="650" height="166" fill="#03234B" fill-opacity="0.501961"/><text fill="#FFFFFF" font-family="Arial,Arial_MSFontService,sans-serif" font-weight="400" font-size="24" transform="translate(339.404 267)">Queue</text><path d="M0 0 498.953 0.000104987" stroke="#03234B" stroke-width="4" stroke-linecap="round" stroke-miterlimit="8" fill="none" fill-rule="evenodd" transform="matrix(-1 0 0 1 730.953 239)"/><path d="M234 239 234 312.159C234 313.263 233.105 314.159 232 314.159 230.896 314.159 230 313.263 230 312.159L230 239C230 237.895 230.895 237 232 237 233.105 237 234 237.895 234 239ZM238 310.159 232 322.159 226 310.159Z" fill="#03234B"/><rect x="65.5001" y="284.5" width="121" height="114" stroke="#021735" stroke-width="1.33333" stroke-miterlimit="8" fill="#03234B"/><text fill="#FFFFFF" font-family="Arial,Arial_MSFontService,sans-serif" font-weight="400" font-size="24" transform="translate(116.594 350)">Q</text><rect x="194.5" y="322.5" width="76" height="38" stroke="#021735" stroke-width="1.33333" stroke-miterlimit="8" fill="#03234B"/><text fill="#FFFFFF" font-family="Arial,Arial_MSFontService,sans-serif" font-weight="400" font-size="24" transform="translate(215.099 350)">M2</text><path d="M0 0 1.28126 419.535" stroke="#03234B" stroke-width="4" stroke-linecap="round" stroke-miterlimit="8" fill="none" fill-rule="evenodd" transform="matrix(-1 0 0 1 732.281 235)"/><path d="M398 625 398 655.24" stroke="#03234B" stroke-width="4" stroke-linecap="round" stroke-miterlimit="8" fill="none" fill-rule="evenodd"/><rect x="194.5" y="587.5" width="76" height="38" stroke="#338150" stroke-width="1.33333" stroke-miterlimit="8" fill="#49B170"/><text fill="#FFFFFF" font-family="Arial,Arial_MSFontService,sans-serif" font-weight="400" font-size="24" transform="translate(217.766 614)">T1</text><rect x="527.5" y="587.5" width="75" height="38" stroke="#338150" stroke-width="1.33333" stroke-miterlimit="8" fill="#49B170"/><text fill="#FFFFFF" font-family="Arial,Arial_MSFontService,sans-serif" font-weight="400" font-size="24" transform="translate(550.401 614)">T1</text><path d="M400 239 400 349.958C400 351.063 399.105 351.958 398 351.958 396.896 351.958 396 351.063 396 349.958L396 239C396 237.895 396.895 237 398 237 399.105 237 400 237.895 400 239ZM404 347.958 398 359.958 392 347.958Z" fill="#03234B"/><path d="M483 390 483 440.479C483 441.584 482.105 442.479 481 442.479 479.896 442.479 479 441.584 479 440.479L479 390C479 388.895 479.895 388 481 388 482.105 388 483 388.895 483 390ZM487 438.479 481 450.479 475 438.479Z" fill="#FFD200"/><rect x="194.5" y="360.5" width="76" height="38" stroke="#021735" stroke-width="1.33333" stroke-miterlimit="8" fill="#03234B"/><text fill="#FFFFFF" font-family="Arial,Arial_MSFontService,sans-serif" font-weight="400" font-size="24" transform="translate(215.099 387)">M1</text><rect x="360.5" y="587.5" width="76" height="38" stroke="#338150" stroke-width="1.33333" stroke-miterlimit="8" fill="#49B170"/><text fill="#FFFFFF" font-family="Arial,Arial_MSFontService,sans-serif" font-weight="400" font-size="24" transform="translate(384.083 614)">T1</text><path d="M317 239 317 349.958C317 351.063 316.105 351.958 315 351.958 313.896 351.958 313 351.063 313 349.958L313 239C313 237.895 313.895 237 315 237 316.105 237 317 237.895 317 239ZM321 347.958 315 359.958 309 347.958Z" fill="#03234B"/><rect x="443.5" y="360.5" width="76" height="38" stroke="#021735" stroke-width="1.33333" stroke-miterlimit="8" fill="#03234B"/><text fill="#FFFFFF" font-family="Arial,Arial_MSFontService,sans-serif" font-weight="400" font-size="24" transform="translate(464.576 387)">M4</text><path d="M315 625 315 655.24" stroke="#03234B" stroke-width="4" stroke-linecap="round" stroke-miterlimit="8" fill="none" fill-rule="evenodd"/><rect x="277.5" y="360.5" width="76" height="38" stroke="#021735" stroke-width="1.33333" stroke-miterlimit="8" fill="#03234B"/><text fill="#FFFFFF" font-family="Arial,Arial_MSFontService,sans-serif" font-weight="400" font-size="24" transform="translate(298.258 387)">M2</text><rect x="360" y="360" width="76" height="38" stroke="#03234B" stroke-width="4" stroke-linejoin="round" stroke-miterlimit="10" stroke-dasharray="4 4" fill="#03234B" fill-opacity="0.501961"/><text fill="#FFFFFF" font-family="Arial,Arial_MSFontService,sans-serif" font-weight="400" font-size="24" transform="translate(383.417 387)">(0)</text><rect x="277.5" y="587.5" width="76" height="38" stroke="#338150" stroke-width="1.33333" stroke-miterlimit="8" fill="#49B170"/><text fill="#FFFFFF" font-family="Arial,Arial_MSFontService,sans-serif" font-weight="400" font-size="24" transform="translate(300.924 614)">T1</text><path d="M256 398 256 576.997C256 578.102 255.105 578.997 254 578.997 252.896 578.997 252 578.102 252 576.997L252 398C252 396.895 252.895 396 254 396 255.105 396 256 396.895 256 398ZM260 574.997 254 586.997 248 574.997Z" fill="#49B170"/><path d="M332 398 332 576.997C332 578.102 331.105 578.997 330 578.997 328.896 578.997 328 578.102 328 576.997L328 398C328 396.895 328.895 396 330 396 331.105 396 332 396.895 332 398ZM336 574.997 330 586.997 324 574.997Z" fill="#49B170"/><path d="M414.736 397.008 440.015 441.245C440.563 442.204 440.229 443.425 439.27 443.973 438.311 444.521 437.09 444.188 436.542 443.229L411.264 398.992C410.715 398.033 411.049 396.812 412.008 396.264 412.967 395.715 414.188 396.049 414.736 397.008ZM442.495 437.523 443.24 450.919 432.076 443.477Z" fill="#8C0078"/><path d="M505.949 488.55 526.38 577.085C526.628 578.161 525.957 579.235 524.881 579.484 523.805 579.732 522.731 579.061 522.482 577.984L502.051 489.45C501.803 488.373 502.474 487.3 503.55 487.051 504.627 486.803 505.7 487.474 505.949 488.55ZM529.828 574.237 526.68 587.279 518.135 576.935Z" fill="#49B170"/><path d="M648 625 648 655.24" stroke="#03234B" stroke-width="4" stroke-linecap="round" stroke-miterlimit="8" fill="none" fill-rule="evenodd"/><path d="M665 398 665 576.997C665 578.102 664.105 578.997 663 578.997 661.896 578.997 661 578.102 661 576.997L661 398C661 396.895 661.895 396 663 396 664.105 396 665 396.895 665 398ZM669 574.997 663 586.997 657 574.997Z" fill="#49B170"/><rect x="610.5" y="322.5" width="75" height="38" stroke="#021735" stroke-width="1.33333" stroke-miterlimit="8" fill="#03234B"/><text fill="#FFFFFF" font-family="Arial,Arial_MSFontService,sans-serif" font-weight="400" font-size="24" transform="translate(630.893 350)">M3</text><rect x="610.5" y="360.5" width="75" height="38" stroke="#021735" stroke-width="1.33333" stroke-miterlimit="8" fill="#03234B"/><text fill="#FFFFFF" font-family="Arial,Arial_MSFontService,sans-serif" font-weight="400" font-size="24" transform="translate(630.893 387)">M2</text><rect x="610.5" y="284.5" width="75" height="38" stroke="#021735" stroke-width="1.33333" stroke-miterlimit="8" fill="#03234B"/><text fill="#FFFFFF" font-family="Arial,Arial_MSFontService,sans-serif" font-weight="400" font-size="24" transform="translate(630.893 312)">M4</text><rect x="610.5" y="587.5" width="75" height="38" stroke="#338150" stroke-width="1.33333" stroke-miterlimit="8" fill="#49B170"/><text fill="#FFFFFF" font-family="Arial,Arial_MSFontService,sans-serif" font-weight="400" font-size="24" transform="translate(633.56 614)">T1</text><rect x="443.5" y="451.5" width="76" height="38" stroke="#650056" stroke-width="1.33333" stroke-miterlimit="8" fill="#8C0078"/><text fill="#FFFFFF" font-family="Arial,Arial_MSFontService,sans-serif" font-weight="400" font-size="24" transform="translate(467.242 478)">T1</text><path d="M650 239 650 274.359C650 275.464 649.105 276.359 648 276.359 646.896 276.359 646 275.464 646 274.359L646 239C646 237.895 646.895 237 648 237 649.105 237 650 237.895 650 239ZM654 272.359 648 284.359 642 272.359Z" fill="#03234B"/><rect x="549.5" y="224.5" width="183" height="23" stroke="#021735" stroke-width="1.33333" stroke-miterlimit="8" fill="#03234B"/><text fill="#FFFFFF" font-family="Arial,Arial_MSFontService,sans-serif" font-weight="400" font-size="16" transform="translate(577.807 242)">tx_queue_receive</text></g></svg>