<svg width="716" height="514" xmlns="http://www.w3.org/2000/svg" xmlns:xlink="http://www.w3.org/1999/xlink" overflow="hidden"><defs><clipPath id="clip0"><rect x="35" y="160" width="716" height="514"/></clipPath></defs><g clip-path="url(#clip0)" transform="translate(-35 -160)"><rect x="35" y="549" width="681" height="91" fill="#49B170" fill-opacity="0.501961"/><text fill="#FFFFFF" font-family="Arial,Arial_MSFontService,sans-serif" font-weight="400" font-size="24" transform="translate(330.737 577)">Running</text><path d="M43.5001 592.75 160 592.75 160 579.5 186.5 606 160 632.5 160 619.25 43.5001 619.25Z" stroke="#338150" stroke-width="1.33333" stroke-miterlimit="8" fill="#49B170" fill-rule="evenodd"/><text fill="#FFFFFF" font-family="Arial,Arial_MSFontService,sans-serif" font-weight="400" font-size="24" transform="translate(55.3057 614)">Execution</text><path d="M232 625 232 670.359" stroke="#03234B" stroke-width="4" stroke-linecap="round" stroke-miterlimit="8" fill="none" fill-rule="evenodd"/><path d="M315 655 730.794 655" stroke="#03234B" stroke-width="4" stroke-linecap="round" stroke-miterlimit="8" fill="none" fill-rule="evenodd"/><rect x="35" y="163" width="681" height="341" fill="#3CB4E6" fill-opacity="0.501961"/><text fill="#FFFFFF" font-family="Arial,Arial_MSFontService,sans-serif" font-weight="400" font-size="24" transform="translate(321.404 191)">Scheduler</text><rect x="50" y="330" width="650" height="166" fill="#FFD200" fill-opacity="0.501961"/><text fill="#FFFFFF" font-family="Arial,Arial_MSFontService,sans-serif" font-weight="400" font-size="24" transform="translate(331.404 358)">Threads</text><rect x="65.5001" y="413.5" width="121" height="76" stroke="#BC9A00" stroke-width="1.33333" stroke-miterlimit="8" fill="#FFD200"/><text fill="#FFFFFF" font-family="Arial,Arial_MSFontService,sans-serif" font-weight="400" font-size="19" transform="translate(106.26 458)">P-<tspan font-size="19" x="18.6667" y="0">15</tspan></text><rect x="50" y="201" width="650" height="121" fill="#03234B" fill-opacity="0.501961"/><text fill="#FFFFFF" font-family="Arial,Arial_MSFontService,sans-serif" font-weight="400" font-size="24" transform="translate(339.404 229)">Queue</text><path d="M0 0 415.794 0.000104987" stroke="#03234B" stroke-width="4" stroke-linecap="round" stroke-miterlimit="8" fill="none" fill-rule="evenodd" transform="matrix(-1 0 0 1 730.794 239)"/><rect x="65.5001" y="239.5" width="121" height="76" stroke="#021735" stroke-width="1.33333" stroke-miterlimit="8" fill="#03234B"/><text fill="#FFFFFF" font-family="Arial,Arial_MSFontService,sans-serif" font-weight="400" font-size="24" transform="translate(116.594 285)">Q</text><path d="M731 239 731 654.794" stroke="#03234B" stroke-width="4" stroke-linecap="round" stroke-miterlimit="8" fill="none" fill-rule="evenodd"/><path d="M398 625 398 670.359" stroke="#03234B" stroke-width="4" stroke-linecap="round" stroke-miterlimit="8" fill="none" fill-rule="evenodd"/><path d="M483 239 483 274.359C483 275.464 482.105 276.359 481 276.359 479.896 276.359 479 275.464 479 274.359L479 239C479 237.895 479.895 237 481 237 482.105 237 483 237.895 483 239ZM487 272.359 481 284.359 475 272.359Z" fill="#8C0078"/><rect x="277.5" y="277.5" width="76" height="38" stroke="#021735" stroke-width="1.33333" stroke-miterlimit="8" fill="#03234B"/><text fill="#FFFFFF" font-family="Arial,Arial_MSFontService,sans-serif" font-weight="400" font-size="24" transform="translate(298.258 304)">M1</text><path d="M317 239 317 266.799C317 267.904 316.105 268.799 315 268.799 313.896 268.799 313 267.904 313 266.799L313 239C313 237.895 313.895 237 315 237 316.105 237 317 237.895 317 239ZM321 264.799 315 276.799 309 264.799Z" fill="#03234B"/><rect x="443.5" y="277.5" width="76" height="38" stroke="#021735" stroke-width="1.33333" stroke-miterlimit="8" fill="#03234B"/><text fill="#FFFFFF" font-family="Arial,Arial_MSFontService,sans-serif" font-weight="400" font-size="24" transform="translate(464.576 304)">M2</text><path d="M315 625 315 655.24" stroke="#03234B" stroke-width="4" stroke-linecap="round" stroke-miterlimit="8" fill="none" fill-rule="evenodd"/><path d="M481 625 481 655.24" stroke="#03234B" stroke-width="4" stroke-linecap="round" stroke-miterlimit="8" fill="none" fill-rule="evenodd"/><rect x="194.5" y="451.5" width="76" height="38" stroke="#BC9A00" stroke-width="1.33333" stroke-miterlimit="8" fill="#FFD200"/><text fill="#FFFFFF" font-family="Arial,Arial_MSFontService,sans-serif" font-weight="400" font-size="24" transform="translate(217.766 478)">T2</text><rect x="610.5" y="277.5" width="75" height="38" stroke="#021735" stroke-width="1.33333" stroke-miterlimit="8" fill="#03234B"/><text fill="#FFFFFF" font-family="Arial,Arial_MSFontService,sans-serif" font-weight="400" font-size="24" transform="translate(632.893 304)">(0)</text><rect x="65.5001" y="368.5" width="121" height="37" stroke="#BC9A00" stroke-width="1.33333" stroke-miterlimit="8" fill="#FFD200"/><text fill="#FFFFFF" font-family="Arial,Arial_MSFontService,sans-serif" font-weight="400" font-size="19" transform="translate(106.26 393)">P-<tspan font-size="19" x="18.6667" y="0">14</tspan></text><rect x="194.5" y="413.5" width="76" height="38" stroke="#BC9A00" stroke-width="1.33333" stroke-miterlimit="8" fill="#FFD200"/><text fill="#FFFFFF" font-family="Arial,Arial_MSFontService,sans-serif" font-weight="400" font-size="24" transform="translate(217.766 440)">T3</text><path d="M232 671 746.073 671" stroke="#03234B" stroke-width="4" stroke-linecap="round" stroke-miterlimit="8" fill="none" fill-rule="evenodd"/><rect x="610.5" y="368.5" width="75" height="37" stroke="#650056" stroke-width="1.33333" stroke-miterlimit="8" fill="#8C0078"/><text fill="#FFFFFF" font-family="Arial,Arial_MSFontService,sans-serif" font-weight="400" font-size="24" transform="translate(633.56 395)">T1</text><rect x="565.5" y="209.5" width="183" height="22" stroke="#021735" stroke-width="1.33333" stroke-miterlimit="8" fill="#03234B"/><text fill="#FFFFFF" font-family="Arial,Arial_MSFontService,sans-serif" font-weight="400" font-size="16" transform="translate(593.807 227)">tx_queue_receive</text><path d="M0 0 492.719 0.000104987" stroke="#03234B" stroke-width="4" stroke-linecap="round" stroke-miterlimit="8" fill="none" fill-rule="evenodd" transform="matrix(-1 0 0 1 746.719 209)"/><path d="M748 209 748 670.154" stroke="#03234B" stroke-width="4" stroke-linecap="round" stroke-miterlimit="8" fill="none" fill-rule="evenodd"/><path d="M564 625 564 670.359" stroke="#03234B" stroke-width="4" stroke-linecap="round" stroke-miterlimit="8" fill="none" fill-rule="evenodd"/><rect x="194.5" y="587.5" width="76" height="38" stroke="#338150" stroke-width="1.33333" stroke-miterlimit="8" fill="#49B170"/><text fill="#FFFFFF" font-family="Arial,Arial_MSFontService,sans-serif" font-weight="400" font-size="24" transform="translate(217.766 614)">T1</text><rect x="610.5" y="587.5" width="75" height="38" stroke="#338150" stroke-width="1.33333" stroke-miterlimit="8" fill="#49B170"/><text fill="#FFFFFF" font-family="Arial,Arial_MSFontService,sans-serif" font-weight="400" font-size="24" transform="translate(628.227 614)">Idle</text><rect x="360.5" y="587.5" width="76" height="38" stroke="#338150" stroke-width="1.33333" stroke-miterlimit="8" fill="#49B170"/><text fill="#FFFFFF" font-family="Arial,Arial_MSFontService,sans-serif" font-weight="400" font-size="24" transform="translate(384.083 614)">T1</text><rect x="277.5" y="587.5" width="76" height="38" stroke="#338150" stroke-width="1.33333" stroke-miterlimit="8" fill="#49B170"/><text fill="#FFFFFF" font-family="Arial,Arial_MSFontService,sans-serif" font-weight="400" font-size="24" transform="translate(300.924 614)">T2</text><rect x="443.5" y="587.5" width="76" height="38" stroke="#338150" stroke-width="1.33333" stroke-miterlimit="8" fill="#49B170"/><text fill="#FFFFFF" font-family="Arial,Arial_MSFontService,sans-serif" font-weight="400" font-size="24" transform="translate(467.242 614)">T3</text><rect x="527.5" y="587.5" width="75" height="38" stroke="#338150" stroke-width="1.33333" stroke-miterlimit="8" fill="#49B170"/><text fill="#FFFFFF" font-family="Arial,Arial_MSFontService,sans-serif" font-weight="400" font-size="24" transform="translate(550.401 614)">T1</text><rect x="610.5" y="413.5" width="75" height="38" stroke="#650056" stroke-width="1.33333" stroke-miterlimit="8" fill="#8C0078"/><text fill="#FFFFFF" font-family="Arial,Arial_MSFontService,sans-serif" font-weight="400" font-size="24" transform="translate(633.56 440)">T3</text><rect x="610.5" y="451.5" width="75" height="38" stroke="#650056" stroke-width="1.33333" stroke-miterlimit="8" fill="#8C0078"/><text fill="#FFFFFF" font-family="Arial,Arial_MSFontService,sans-serif" font-weight="400" font-size="24" transform="translate(633.56 478)">T2</text><path d="M256 209 256 267.039C256 268.144 255.105 269.039 254 269.039 252.896 269.039 252 268.144 252 267.039L252 209C252 207.895 252.895 207 254 207 255.105 207 256 207.895 256 209ZM260 265.039 254 277.039 248 265.039Z" fill="#03234B"/><path d="M255.838 314.212 274.579 357.94C275.014 358.955 274.544 360.131 273.528 360.566 272.513 361.001 271.337 360.531 270.902 359.516L252.162 315.788C251.727 314.773 252.197 313.597 253.212 313.162 254.227 312.727 255.403 313.197 255.838 314.212ZM277.468 354.526 276.68 367.919 266.438 359.253Z" fill="#8C0078"/><path d="M340 315 340 357.919C340 359.024 339.105 359.919 338 359.919 336.896 359.919 336 359.024 336 357.919L336 315C336 313.895 336.895 313 338 313 339.105 313 340 313.895 340 315ZM344 355.919 338 367.919 332 355.919Z" fill="#FFD200"/><path d="M339.958 404.592 375.718 576.24C375.943 577.321 375.249 578.381 374.168 578.606 373.087 578.831 372.027 578.137 371.802 577.056L336.042 405.408C335.817 404.327 336.511 403.267 337.592 403.042 338.673 402.817 339.733 403.511 339.958 404.592ZM379.226 573.466 375.799 586.438 367.478 575.913Z" fill="#49B170"/><rect x="277.5" y="451.5" width="76" height="38" stroke="#BC9A00" stroke-width="1.33333" stroke-miterlimit="8" fill="#FFD200"/><text fill="#FFFFFF" font-family="Arial,Arial_MSFontService,sans-serif" font-weight="400" font-size="24" transform="translate(300.924 478)">T3</text><rect x="360.5" y="413.5" width="76" height="38" stroke="#650056" stroke-width="1.33333" stroke-miterlimit="8" fill="#8C0078"/><text fill="#FFFFFF" font-family="Arial,Arial_MSFontService,sans-serif" font-weight="400" font-size="24" transform="translate(384.083 440)">T2</text><rect x="360.5" y="451.5" width="76" height="38" stroke="#BC9A00" stroke-width="1.33333" stroke-miterlimit="8" fill="#FFD200"/><text fill="#FFFFFF" font-family="Arial,Arial_MSFontService,sans-serif" font-weight="400" font-size="24" transform="translate(384.083 478)">T3</text><rect x="277.5" y="368.5" width="76" height="37" stroke="#650056" stroke-width="1.33333" stroke-miterlimit="8" fill="#8C0078"/><text fill="#FFFFFF" font-family="Arial,Arial_MSFontService,sans-serif" font-weight="400" font-size="24" transform="translate(300.924 395)">T1</text><path d="M422.838 314.212 441.579 357.94C442.014 358.955 441.544 360.131 440.528 360.566 439.513 361.001 438.337 360.531 437.902 359.516L419.162 315.788C418.727 314.773 419.197 313.597 420.212 313.162 421.227 312.727 422.403 313.197 422.838 314.212ZM444.468 354.526 443.68 367.919 433.438 359.253Z" fill="#8C0078"/><path d="M506 315 506 357.919C506 359.024 505.105 359.919 504 359.919 502.896 359.919 502 359.024 502 357.919L502 315C502 313.895 502.895 313 504 313 505.105 313 506 313.895 506 315ZM510 355.919 504 367.919 498 355.919Z" fill="#8C0078"/><path d="M505.958 404.592 541.718 576.24C541.943 577.321 541.249 578.381 540.168 578.606 539.087 578.831 538.027 578.137 537.802 577.056L502.042 405.408C501.817 404.327 502.511 403.267 503.592 403.042 504.673 402.817 505.733 403.511 505.958 404.592ZM545.226 573.466 541.799 586.438 533.478 575.913Z" fill="#49B170"/><rect x="443.5" y="451.5" width="76" height="38" stroke="#650056" stroke-width="1.33333" stroke-miterlimit="8" fill="#8C0078"/><text fill="#FFFFFF" font-family="Arial,Arial_MSFontService,sans-serif" font-weight="400" font-size="24" transform="translate(467.242 478)">T2</text><rect x="527.5" y="413.5" width="75" height="38" stroke="#650056" stroke-width="1.33333" stroke-miterlimit="8" fill="#8C0078"/><text fill="#FFFFFF" font-family="Arial,Arial_MSFontService,sans-serif" font-weight="400" font-size="24" transform="translate(550.401 440)">T3</text><rect x="527.5" y="451.5" width="75" height="38" stroke="#650056" stroke-width="1.33333" stroke-miterlimit="8" fill="#8C0078"/><text fill="#FFFFFF" font-family="Arial,Arial_MSFontService,sans-serif" font-weight="400" font-size="24" transform="translate(550.401 478)">T2</text><rect x="443.5" y="368.5" width="76" height="37" stroke="#650056" stroke-width="1.33333" stroke-miterlimit="8" fill="#8C0078"/><text fill="#FFFFFF" font-family="Arial,Arial_MSFontService,sans-serif" font-weight="400" font-size="24" transform="translate(467.242 395)">T1</text><path d="M566 209 566 267.039C566 268.144 565.105 269.039 564 269.039 562.896 269.039 562 268.144 562 267.039L562 209C562 207.895 562.895 207 564 207 565.105 207 566 207.895 566 209ZM570 265.039 564 277.039 558 265.039Z" fill="#03234B"/><path d="M588.838 314.212 607.579 357.94C608.014 358.955 607.544 360.131 606.528 360.566 605.513 361.001 604.337 360.531 603.902 359.516L585.162 315.788C584.727 314.773 585.197 313.597 586.212 313.162 587.227 312.727 588.403 313.197 588.838 314.212ZM610.468 354.526 609.68 367.919 599.438 359.253Z" fill="#8C0078"/><rect x="194.5" y="277.5" width="76" height="38" stroke="#021735" stroke-width="1.33333" stroke-miterlimit="8" fill="#03234B"/><text fill="#FFFFFF" font-family="Arial,Arial_MSFontService,sans-serif" font-weight="400" font-size="24" transform="translate(217.099 304)">(0)</text><rect x="360.5" y="277.5" width="76" height="38" stroke="#021735" stroke-width="1.33333" stroke-miterlimit="8" fill="#03234B"/><text fill="#FFFFFF" font-family="Arial,Arial_MSFontService,sans-serif" font-weight="400" font-size="24" transform="translate(383.417 304)">(0)</text><rect x="527.5" y="277.5" width="75" height="38" stroke="#021735" stroke-width="1.33333" stroke-miterlimit="8" fill="#03234B"/><text fill="#FFFFFF" font-family="Arial,Arial_MSFontService,sans-serif" font-weight="400" font-size="24" transform="translate(549.734 304)">(0)</text><rect x="549.5" y="239.5" width="183" height="23" stroke="#021735" stroke-width="1.33333" stroke-miterlimit="8" fill="#03234B"/><text fill="#FFFFFF" font-family="Arial,Arial_MSFontService,sans-serif" font-weight="400" font-size="16" transform="translate(586.224 257)">tx_queue_sen<tspan font-size="16" x="100" y="0">d</tspan></text></g></svg>