<svg width="551" height="584" xmlns="http://www.w3.org/2000/svg" xmlns:xlink="http://www.w3.org/1999/xlink" overflow="hidden"><defs><clipPath id="clip0"><rect x="34" y="55" width="551" height="584"/></clipPath></defs><g clip-path="url(#clip0)" transform="translate(-34 -55)"><path d="M196 229 223.799 229C224.904 229 225.799 229.896 225.799 231 225.799 232.105 224.904 233 223.799 233L196 233C194.895 233 194 232.105 194 231 194 229.895 194.895 229 196 229ZM198 237 186 231 198 225Z" fill="#49B170"/><path d="M196 305 196.004 305C197.109 305 198.004 305.895 198.004 307 198.004 308.105 197.109 309 196.004 309L196 309C194.895 309 194 308.105 194 307 194 305.895 194.895 305 196 305ZM204.004 305 204.008 305C205.113 305 206.008 305.895 206.008 307 206.008 308.105 205.113 309 204.008 309L204.004 309C202.899 309 202.004 308.105 202.004 307 202.004 305.895 202.899 305 204.004 305ZM212.008 305 212.012 305C213.117 305 214.012 305.896 214.012 307 214.012 308.105 213.117 309 212.012 309L212.008 309C210.903 309 210.008 308.105 210.008 307 210.008 305.896 210.903 305 212.008 305ZM220.012 305 220.016 305C221.121 305 222.016 305.896 222.016 307 222.016 308.105 221.121 309 220.016 309L220.012 309C218.907 309 218.012 308.105 218.012 307 218.012 305.896 218.907 305 220.012 305ZM198 313 186 307 198 301Z" fill="#FFD200"/><path d="M225.715 229.971 243.25 259.196C243.818 260.143 243.511 261.371 242.564 261.94 241.617 262.508 240.388 262.201 239.82 261.254L222.285 232.029C221.717 231.082 222.024 229.853 222.971 229.285 223.918 228.717 225.147 229.024 225.715 229.971ZM245.651 255.423 246.68 268.799 235.361 261.597Z" fill="#49B170"/><path d="M6.85998 7.546 6.86204 7.54943C7.4303 8.49661 7.12313 9.72512 6.17595 10.2934 5.22877 10.8616 4.00026 10.5545 3.43199 9.60729L3.42994 9.60386C2.86167 8.65668 3.16885 7.42817 4.11603 6.85991 5.06321 6.29164 6.29172 6.59882 6.85998 7.546ZM10.978 14.4094 10.9801 14.4128C11.5483 15.36 11.2412 16.5885 10.294 17.1568 9.34679 17.725 8.11828 17.4178 7.55002 16.4707L7.54796 16.4672C6.9797 15.5201 7.28687 14.2915 8.23405 13.7233 9.18123 13.155 10.4097 13.4622 10.978 14.4094ZM15.096 21.2727 15.0981 21.2762C15.6663 22.2234 15.3592 23.4519 14.412 24.0201 13.4648 24.5884 12.2363 24.2812 11.668 23.334L11.666 23.3306C11.0977 22.3834 11.4049 21.1549 12.3521 20.5867 13.2993 20.0184 14.5278 20.3256 15.096 21.2727ZM19.2137 28.1355 19.2157 28.1389C19.7843 29.0858 19.4776 30.3145 18.5307 30.8831 17.5837 31.4517 16.3551 31.145 15.7865 30.1981L15.7844 30.1946C15.2158 29.2477 15.5225 28.0191 16.4694 27.4504 17.4164 26.8818 18.645 27.1885 19.2137 28.1355ZM23.3317 34.9988 23.3337 35.0023C23.9024 35.9492 23.5957 37.1778 22.6487 37.7465 21.7017 38.3151 20.4731 38.0084 19.9045 37.0614L19.9024 37.058C19.3338 36.1111 19.6405 34.8824 20.5875 34.3138 21.5344 33.7452 22.763 34.0519 23.3317 34.9988ZM1.02899 13.3769 0 0 11.3189 7.20294Z" fill="#FFD200" transform="matrix(-1 0 0 1 246.68 269)"/><path d="M534 434 561.799 434C562.904 434 563.799 434.896 563.799 436 563.799 437.105 562.904 438 561.799 438L534 438C532.895 438 532 437.105 532 436 532 434.895 532.895 434 534 434ZM559.799 430 571.799 436 559.799 442Z" fill="#3CB4E6"/><path d="M398 426 425.799 426C426.904 426 427.799 426.896 427.799 428 427.799 429.105 426.904 430 425.799 430L398 430C396.895 430 396 429.105 396 428 396 426.895 396.895 426 398 426ZM423.799 422 435.799 428 423.799 434Z" fill="#3CB4E6"/><path d="M186 534 223.799 534" stroke="#49B170" stroke-width="4" stroke-linecap="round" stroke-miterlimit="8" stroke-dasharray="0 8" fill="none" fill-rule="evenodd"/><path d="M186 609 223.799 609" stroke="#FFD200" stroke-width="4" stroke-linecap="round" stroke-miterlimit="8" stroke-dasharray="0 8" fill="none" fill-rule="evenodd"/><path d="M225.715 532.971 225.717 532.974C226.285 533.922 225.978 535.15 225.031 535.718 224.084 536.287 222.855 535.98 222.287 535.032L222.285 535.029C221.717 534.082 222.024 532.853 222.971 532.285 223.918 531.717 225.147 532.024 225.715 532.971ZM229.833 539.834 229.835 539.838C230.403 540.785 230.096 542.014 229.149 542.582 228.202 543.15 226.973 542.843 226.405 541.896L226.403 541.892C225.835 540.945 226.142 539.717 227.089 539.148 228.036 538.58 229.265 538.887 229.833 539.834ZM233.951 546.698 233.953 546.701C234.521 547.648 234.214 548.877 233.267 549.445 232.32 550.013 231.091 549.706 230.523 548.759L230.521 548.756C229.953 547.808 230.26 546.58 231.207 546.012 232.154 545.443 233.383 545.751 233.951 546.698ZM238.069 553.561 238.071 553.565C238.639 554.512 238.332 555.74 237.385 556.309 236.438 556.877 235.209 556.57 234.641 555.622L234.639 555.619C234.071 554.672 234.378 553.443 235.325 552.875 236.272 552.307 237.501 552.614 238.069 553.561ZM242.187 560.424 242.189 560.428C242.757 561.375 242.45 562.603 241.503 563.172 240.556 563.74 239.328 563.433 238.759 562.486L238.757 562.483C238.189 561.536 238.496 560.307 239.443 559.739 240.39 559.17 241.618 559.477 242.187 560.424ZM245.651 558.423 246.68 571.799 235.361 564.597Z" fill="#49B170"/><path d="M6.85998 7.546 6.86204 7.54943C7.4303 8.49661 7.12313 9.72512 6.17595 10.2934 5.22877 10.8616 4.00026 10.5545 3.43199 9.60729L3.42994 9.60386C2.86167 8.65668 3.16885 7.42817 4.11603 6.85991 5.06321 6.29164 6.29172 6.59882 6.85998 7.546ZM10.978 14.4094 10.9801 14.4128C11.5483 15.36 11.2412 16.5885 10.294 17.1568 9.34679 17.725 8.11828 17.4178 7.55002 16.4707L7.54796 16.4672C6.9797 15.5201 7.28687 14.2915 8.23405 13.7233 9.18123 13.155 10.4097 13.4622 10.978 14.4094ZM15.096 21.2727 15.0981 21.2762C15.6663 22.2234 15.3592 23.4519 14.412 24.0201 13.4648 24.5884 12.2363 24.2812 11.668 23.334L11.666 23.3306C11.0977 22.3834 11.4049 21.1549 12.3521 20.5867 13.2993 20.0184 14.5278 20.3256 15.096 21.2727ZM19.2137 28.1355 19.2157 28.1389C19.7843 29.0858 19.4776 30.3145 18.5307 30.8831 17.5837 31.4517 16.3551 31.145 15.7865 30.1981L15.7844 30.1946C15.2158 29.2477 15.5225 28.0191 16.4694 27.4504 17.4164 26.8818 18.645 27.1885 19.2137 28.1355ZM23.3317 34.9988 23.3337 35.0023C23.9024 35.9492 23.5957 37.1778 22.6487 37.7465 21.7017 38.3151 20.4731 38.0084 19.9045 37.0614L19.9024 37.058C19.3338 36.1111 19.6405 34.8824 20.5875 34.3138 21.5344 33.7452 22.763 34.0519 23.3317 34.9988ZM1.02899 13.3769 0 0 11.3189 7.20294Z" fill="#FFD200" transform="matrix(-1 0 0 1 246.68 572)"/><path d="M398 570 425.799 570C426.904 570 427.799 570.896 427.799 572 427.799 573.105 426.904 574 425.799 574L398 574C396.895 574 396 573.105 396 572 396 570.895 396.895 570 398 570ZM423.799 566 435.799 572 423.799 578Z" fill="#49B170"/><rect x="247" y="209" width="151" height="121" fill="#03234B"/><text fill="#FFFFFF" font-family="Arial,Arial_MSFontService,sans-serif" font-weight="400" font-size="24" transform="translate(289.818 237)">Mutex</text><rect x="247" y="352" width="287" height="144" fill="#03234B"/><text fill="#FFFFFF" font-family="Arial,Arial_MSFontService,sans-serif" font-weight="400" font-size="24" transform="translate(359.857 380)">Event</text><rect x="247" y="511" width="151" height="121" fill="#03234B"/><text fill="#FFFFFF" font-family="Arial,Arial_MSFontService,sans-serif" font-weight="400" font-size="24" transform="translate(286.484 539)">Queue</text><rect x="292.5" y="254.5" width="53" height="46" stroke="#338150" stroke-width="1.33333" stroke-miterlimit="8" fill="#49B170"/><text fill="#FFFFFF" font-family="Arial,Arial_MSFontService,sans-serif" font-weight="400" font-size="24" transform="translate(308.704 285)">M</text><rect x="262.5" y="549.5" width="53" height="45" stroke="#BC9A00" stroke-width="1.33333" stroke-miterlimit="8" fill="#FFD200"/><text fill="#FFFFFF" font-family="Arial,Arial_MSFontService,sans-serif" font-weight="400" font-size="24" transform="translate(271.798 580)">M2</text><rect x="330.5" y="549.5" width="53" height="45" stroke="#338150" stroke-width="1.33333" stroke-miterlimit="8" fill="#49B170"/><text fill="#FFFFFF" font-family="Arial,Arial_MSFontService,sans-serif" font-weight="400" font-size="24" transform="translate(339.837 580)">M1</text><path d="M196 78 223.799 78.0001C224.904 78.0001 225.799 78.8955 225.799 80.0001 225.799 81.1047 224.904 82.0001 223.799 82.0001L196 82C194.895 82 194 81.1046 194 80 194 78.8955 194.895 78 196 78ZM198 86 186 80 198 74Z" fill="#49B170"/><path d="M196 154 223.799 154C224.904 154 225.799 154.896 225.799 156 225.799 157.105 224.904 158 223.799 158L196 158C194.895 158 194 157.105 194 156 194 154.895 194.895 154 196 154ZM198 162 186 156 198 150Z" fill="#FFD200"/><path d="M225.756 79.0423 243.647 111.843C244.176 112.812 243.819 114.027 242.849 114.556 241.879 115.085 240.664 114.728 240.135 113.758L222.244 80.9577C221.715 79.988 222.073 78.7731 223.042 78.2442 224.012 77.7153 225.227 78.0726 225.756 79.0423ZM246.201 108.172 246.68 121.579 235.666 113.918Z" fill="#49B170"/><path d="M7.2111 7.2111 24.3438 32.9101C24.9565 33.8292 24.7081 35.0709 23.7891 35.6836 22.87 36.2963 21.6283 36.048 21.0156 35.1289L3.8829 9.4299C3.2702 8.51084 3.51854 7.2691 4.4376 6.6564 5.35666 6.0437 6.5984 6.29204 7.2111 7.2111ZM1.6641 13.3128 0 0 11.6487 6.6564Z" fill="#FFD200" transform="matrix(-1 0 0 1 246.68 122)"/><rect x="247" y="58" width="151" height="128" fill="#03234B"/><text fill="#FFFFFF" font-family="Arial,Arial_MSFontService,sans-serif" font-weight="400" font-size="24" transform="translate(260.484 85)">Semaphore</text><rect x="292.5" y="88.5001" width="53" height="45" stroke="#338150" stroke-width="1.33333" stroke-miterlimit="8" fill="#49B170"/><text fill="#FFFFFF" font-family="Arial,Arial_MSFontService,sans-serif" font-weight="400" font-size="24" transform="translate(304.038 119)">S2</text><rect x="292.5" y="133.5" width="53" height="46" stroke="#BC9A00" stroke-width="1.33333" stroke-miterlimit="8" fill="#FFD200"/><text fill="#FFFFFF" font-family="Arial,Arial_MSFontService,sans-serif" font-weight="400" font-size="24" transform="translate(304.038 164)">S1</text><rect x="35.5001" y="209.5" width="151" height="45" stroke="#338150" stroke-width="1.33333" stroke-miterlimit="8" fill="#49B170"/><text fill="#FFFFFF" font-family="Arial,Arial_MSFontService,sans-serif" font-weight="400" font-size="24" transform="translate(62.8073 240)">Thread 2</text><rect x="35.5001" y="284.5" width="151" height="46" stroke="#650056" stroke-width="1.33333" stroke-miterlimit="8" fill="#8C0078"/><text fill="#FFFFFF" font-family="Arial,Arial_MSFontService,sans-serif" font-weight="400" font-size="24" transform="translate(62.8073 316)">Thread 3</text><rect x="35.5001" y="511.5" width="151" height="46" stroke="#650056" stroke-width="1.33333" stroke-miterlimit="8" fill="#8C0078"/><text fill="#FFFFFF" font-family="Arial,Arial_MSFontService,sans-serif" font-weight="400" font-size="24" transform="translate(62.8073 542)">Thread 2</text><rect x="35.5001" y="587.5" width="151" height="45" stroke="#650056" stroke-width="1.33333" stroke-miterlimit="8" fill="#8C0078"/><text fill="#FFFFFF" font-family="Arial,Arial_MSFontService,sans-serif" font-weight="400" font-size="24" transform="translate(62.8073 618)">Thread 3</text><rect x="35.5001" y="58.5001" width="151" height="45" stroke="#BC9A00" stroke-width="1.33333" stroke-miterlimit="8" fill="#FFD200"/><text fill="#FFFFFF" font-family="Arial,Arial_MSFontService,sans-serif" font-weight="400" font-size="24" transform="translate(62.8073 89)">Thread 2</text><rect x="35.5001" y="133.5" width="151" height="46" stroke="#BC9A00" stroke-width="1.33333" stroke-miterlimit="8" fill="#FFD200"/><text fill="#FFFFFF" font-family="Arial,Arial_MSFontService,sans-serif" font-weight="400" font-size="24" transform="translate(62.8073 164)">Thread 3</text><rect x="368.5" y="420.5" width="151" height="31" stroke="#2983A9" stroke-width="1.33333" stroke-miterlimit="8" fill="#3CB4E6"/><text fill="#FFFFFF" font-family="Arial,Arial_MSFontService,sans-serif" font-weight="400" font-size="24" transform="translate(382.693 444)">E = B1 | B0</text><path d="M186.199 403.01 251.848 409.575C252.947 409.685 253.749 410.665 253.639 411.764 253.529 412.863 252.549 413.665 251.45 413.555L185.801 406.99C184.702 406.88 183.9 405.9 184.01 404.801 184.12 403.702 185.1 402.9 186.199 403.01ZM250.256 405.396 261.599 412.56 249.061 417.336Z" fill="#FFD200"/><path d="M10.1494-0.995036 75.798 5.56982C76.897 5.67973 77.6989 6.65981 77.589 7.7589 77.4791 8.85799 76.499 9.65988 75.3999 9.54997L9.75137 2.98511C8.65228 2.8752 7.85039 1.89512 7.9603 0.79603 8.07021-0.303057 9.0503-1.10495 10.1494-0.995036ZM11.3434 7.16427 0 0 12.5375-4.77618Z" fill="#49B170" transform="matrix(-1 0 0 1 261.599 466)"/><path d="M315.283 411.02 358.303 417.166C359.396 417.322 360.156 418.335 360 419.429 359.843 420.522 358.83 421.282 357.737 421.126L314.717 414.98C313.624 414.824 312.864 413.811 313.02 412.717 313.176 411.624 314.189 410.864 315.283 411.02ZM356.888 412.923 367.919 420.56 355.191 424.803Z" fill="#FFD200"/><path d="M10.1647 0.824165 53.4687 13.1967C54.5308 13.5002 55.1458 14.6072 54.8423 15.6692 54.5389 16.7313 53.4319 17.3463 52.3698 17.0428L9.0658 4.67026C8.00373 4.36681 7.38875 3.25984 7.6922 2.19777 7.99564 1.1357 9.10262 0.520716 10.1647 0.824165ZM9.88996 9.06579 0 0 13.1866-2.47249Z" fill="#49B170" transform="matrix(-1 0 0 1 367.919 451)"/><rect x="262.5" y="390.5" width="53" height="46" stroke="#BC9A00" stroke-width="1.33333" stroke-miterlimit="8" fill="#FFD200"/><text fill="#FFFFFF" font-family="Arial,Arial_MSFontService,sans-serif" font-weight="400" font-size="24" transform="translate(273.798 422)">B1</text><rect x="262.5" y="443.5" width="53" height="46" stroke="#338150" stroke-width="1.33333" stroke-miterlimit="8" fill="#49B170"/><text fill="#FFFFFF" font-family="Arial,Arial_MSFontService,sans-serif" font-weight="400" font-size="24" transform="translate(273.798 474)">B0</text><rect x="35.5001" y="383.5" width="151" height="45" stroke="#650056" stroke-width="1.33333" stroke-miterlimit="8" fill="#8C0078"/><text fill="#FFFFFF" font-family="Arial,Arial_MSFontService,sans-serif" font-weight="400" font-size="24" transform="translate(62.8073 414)">Thread 2</text><rect x="35.5001" y="451.5" width="151" height="45" stroke="#650056" stroke-width="1.33333" stroke-miterlimit="8" fill="#8C0078"/><text fill="#FFFFFF" font-family="Arial,Arial_MSFontService,sans-serif" font-weight="400" font-size="24" transform="translate(62.8073 482)">Thread 3</text></g></svg>