<svg width="812" height="330" xmlns="http://www.w3.org/2000/svg" xmlns:xlink="http://www.w3.org/1999/xlink" overflow="hidden"><defs><clipPath id="clip0"><rect x="50" y="160" width="812" height="330"/></clipPath></defs><g clip-path="url(#clip0)" transform="translate(-50 -160)"><rect x="50" y="163" width="809" height="242" fill="#03234B" fill-opacity="0.501961"/><text fill="#FFFFFF" font-family="Arial,Arial_MSFontService,sans-serif" font-weight="400" font-size="24" transform="translate(391.449 191)">Event Flags</text><path d="M0 0 461.154 0.000104987" stroke="#03234B" stroke-width="4" stroke-linecap="round" stroke-miterlimit="8" fill="none" fill-rule="evenodd" transform="matrix(-1 0 0 1 859.154 458)"/><rect x="65.5001" y="209.5" width="121" height="38" stroke="#021735" stroke-width="1.33333" stroke-miterlimit="8" fill="#03234B"/><text fill="#FFFFFF" font-family="Arial,Arial_MSFontService,sans-serif" font-weight="400" font-size="24" transform="translate(117.927 236)">E</text><rect x="678.5" y="458.5" width="181" height="23" stroke="#021735" stroke-width="1.33333" stroke-miterlimit="8" fill="#03234B"/><text fill="#FFFFFF" font-family="Arial,Arial_MSFontService,sans-serif" font-weight="400" font-size="16" transform="translate(701.602 476)">tx_event_flags_get</text><rect x="247.5" y="209.5" width="53" height="38" stroke="#021735" stroke-width="1.33333" stroke-miterlimit="8" fill="#03234B"/><text fill="#FFFFFF" font-family="Arial,Arial_MSFontService,sans-serif" font-weight="400" font-size="24" transform="translate(258.678 236)">E1</text><rect x="194.5" y="209.5" width="53" height="38" stroke="#021735" stroke-width="1.33333" stroke-miterlimit="8" fill="#03234B"/><text fill="#FFFFFF" font-family="Arial,Arial_MSFontService,sans-serif" font-weight="400" font-size="24" transform="translate(205.759 236)">E2</text><rect x="489.5" y="254.5" width="53" height="38" stroke="#021735" stroke-width="1.33333" stroke-miterlimit="8" fill="#03234B"/><text fill="#FFFFFF" font-family="Arial,Arial_MSFontService,sans-serif" font-weight="400" font-size="24" transform="translate(500.595 282)">E1</text><rect x="542.5" y="254.5" width="53" height="38" stroke="#338150" stroke-width="1.33333" stroke-miterlimit="8" fill="#49B170"/><text fill="#FFFFFF" font-family="Arial,Arial_MSFontService,sans-serif" font-weight="400" font-size="24" transform="translate(553.514 282)">E0</text><rect x="436.5" y="254.5" width="53" height="38" stroke="#338150" stroke-width="1.33333" stroke-miterlimit="8" fill="#49B170"/><text fill="#FFFFFF" font-family="Arial,Arial_MSFontService,sans-serif" font-weight="400" font-size="24" transform="translate(447.676 282)">E2</text><rect x="360.5" y="254.5" width="76" height="38" stroke="#021735" stroke-width="1.33333" stroke-miterlimit="8" fill="#03234B"/><text fill="#FFFFFF" font-family="Arial,Arial_MSFontService,sans-serif" font-weight="400" font-size="24" transform="translate(380.083 282)">OR</text><rect x="300.5" y="209.5" width="53" height="38" stroke="#021735" stroke-width="1.33333" stroke-miterlimit="8" fill="#03234B"/><text fill="#FFFFFF" font-family="Arial,Arial_MSFontService,sans-serif" font-weight="400" font-size="24" transform="translate(311.598 236)">E0</text><path d="M570 292 570 312.24C570 313.344 569.105 314.24 568 314.24 566.896 314.24 566 313.344 566 312.24L566 292C566 290.895 566.895 290 568 290 569.105 290 570 290.895 570 292ZM574 310.24 568 322.24 562 310.24Z" fill="#03234B"/><path d="M517 292 517 312.24C517 313.344 516.105 314.24 515 314.24 513.896 314.24 513 313.344 513 312.24L513 292C513 290.895 513.895 290 515 290 516.105 290 517 290.895 517 292ZM521 310.24 515 322.24 509 310.24Z" fill="#03234B"/><path d="M464 292 464 312.24C464 313.344 463.105 314.24 462 314.24 460.896 314.24 460 313.344 460 312.24L460 292C460 290.895 460.895 290 462 290 463.105 290 464 290.895 464 292ZM468 310.24 462 322.24 456 310.24Z" fill="#03234B"/><rect x="542.5" y="322.5" width="53" height="38" stroke="#021735" stroke-width="1.33333" stroke-miterlimit="8" fill="#03234B"/><text fill="#FFFFFF" font-family="Arial,Arial_MSFontService,sans-serif" font-weight="400" font-size="24" transform="translate(553.514 350)">E0</text><rect x="436.5" y="322.5" width="53" height="38" stroke="#021735" stroke-width="1.33333" stroke-miterlimit="8" fill="#03234B"/><text fill="#FFFFFF" font-family="Arial,Arial_MSFontService,sans-serif" font-weight="400" font-size="24" transform="translate(447.676 350)">E2</text><rect x="489.5" y="209.5" width="53" height="38" stroke="#021735" stroke-width="1.33333" stroke-miterlimit="8" fill="#03234B"/><text fill="#FFFFFF" font-family="Arial,Arial_MSFontService,sans-serif" font-weight="400" font-size="24" transform="translate(500.595 236)">E1</text><rect x="436.5" y="209.5" width="53" height="38" stroke="#021735" stroke-width="1.33333" stroke-miterlimit="8" fill="#03234B"/><text fill="#FFFFFF" font-family="Arial,Arial_MSFontService,sans-serif" font-weight="400" font-size="24" transform="translate(447.676 236)">E2</text><rect x="542.5" y="209.5" width="53" height="38" stroke="#021735" stroke-width="1.33333" stroke-miterlimit="8" fill="#03234B"/><text fill="#FFFFFF" font-family="Arial,Arial_MSFontService,sans-serif" font-weight="400" font-size="24" transform="translate(553.514 236)">E0</text><path d="M2-1.26249e-06 2.0001 156.318C2.0001 157.422 1.10467 158.318 9.99369e-05 158.318-1.10447 158.318-1.9999 157.422-1.9999 156.318L-2 1.26249e-06C-2-1.10457-1.10457-2-1.26249e-06-2 1.10457-2 2-1.10457 2-1.26249e-06ZM6.0001 154.318 0.000104987 166.318-5.9999 154.318Z" fill="#03234B" transform="matrix(1 0 0 -1 398 458.318)"/><rect x="738.5" y="254.5" width="53" height="38" stroke="#021735" stroke-width="1.33333" stroke-miterlimit="8" fill="#03234B"/><text fill="#FFFFFF" font-family="Arial,Arial_MSFontService,sans-serif" font-weight="400" font-size="24" transform="translate(750.072 282)">E1</text><rect x="791.5" y="254.5" width="53" height="38" stroke="#338150" stroke-width="1.33333" stroke-miterlimit="8" fill="#49B170"/><text fill="#FFFFFF" font-family="Arial,Arial_MSFontService,sans-serif" font-weight="400" font-size="24" transform="translate(802.991 282)">E0</text><rect x="685.5" y="254.5" width="53" height="38" stroke="#338150" stroke-width="1.33333" stroke-miterlimit="8" fill="#49B170"/><text fill="#FFFFFF" font-family="Arial,Arial_MSFontService,sans-serif" font-weight="400" font-size="24" transform="translate(697.152 282)">E2</text><rect x="610.5" y="254.5" width="75" height="38" stroke="#021735" stroke-width="1.33333" stroke-miterlimit="8" fill="#03234B"/><text fill="#FFFFFF" font-family="Arial,Arial_MSFontService,sans-serif" font-weight="400" font-size="24" transform="translate(629.56 282)">OR</text><path d="M820 292 820 312.24C820 313.344 819.105 314.24 818 314.24 816.896 314.24 816 313.344 816 312.24L816 292C816 290.895 816.895 290 818 290 819.105 290 820 290.895 820 292ZM824 310.24 818 322.24 812 310.24Z" fill="#03234B"/><path d="M767 292 767 312.24C767 313.344 766.105 314.24 765 314.24 763.896 314.24 763 313.344 763 312.24L763 292C763 290.895 763.895 290 765 290 766.105 290 767 290.895 767 292ZM771 310.24 765 322.24 759 310.24Z" fill="#03234B"/><path d="M714 292 714 312.24C714 313.344 713.105 314.24 712 314.24 710.896 314.24 710 313.344 710 312.24L710 292C710 290.895 710.895 290 712 290 713.105 290 714 290.895 714 292ZM718 310.24 712 322.24 706 310.24Z" fill="#03234B"/><rect x="738.5" y="322.5" width="53" height="38" stroke="#021735" stroke-width="1.33333" stroke-miterlimit="8" fill="#03234B"/><text fill="#FFFFFF" font-family="Arial,Arial_MSFontService,sans-serif" font-weight="400" font-size="24" transform="translate(750.072 350)">E1</text><rect x="791.5" y="322.5" width="53" height="38" stroke="#338150" stroke-width="1.33333" stroke-miterlimit="8" fill="#49B170"/><text fill="#FFFFFF" font-family="Arial,Arial_MSFontService,sans-serif" font-weight="400" font-size="24" transform="translate(802.991 350)">E0</text><rect x="685.5" y="322.5" width="53" height="38" stroke="#021735" stroke-width="1.33333" stroke-miterlimit="8" fill="#03234B"/><text fill="#FFFFFF" font-family="Arial,Arial_MSFontService,sans-serif" font-weight="400" font-size="24" transform="translate(697.152 350)">E2</text><rect x="738.5" y="209.5" width="53" height="38" stroke="#021735" stroke-width="1.33333" stroke-miterlimit="8" fill="#03234B"/><text fill="#FFFFFF" font-family="Arial,Arial_MSFontService,sans-serif" font-weight="400" font-size="24" transform="translate(750.072 236)">E1</text><rect x="685.5" y="209.5" width="53" height="38" stroke="#021735" stroke-width="1.33333" stroke-miterlimit="8" fill="#03234B"/><text fill="#FFFFFF" font-family="Arial,Arial_MSFontService,sans-serif" font-weight="400" font-size="24" transform="translate(697.152 236)">E2</text><rect x="791.5" y="209.5" width="53" height="38" stroke="#338150" stroke-width="1.33333" stroke-miterlimit="8" fill="#49B170"/><text fill="#FFFFFF" font-family="Arial,Arial_MSFontService,sans-serif" font-weight="400" font-size="24" transform="translate(802.991 236)">E0</text><path d="M521 360 521 402.919C521 404.024 520.105 404.919 519 404.919 517.896 404.919 517 404.024 517 402.919L517 360C517 358.895 517.895 358 519 358 520.105 358 521 358.895 521 360ZM525 400.919 519 412.919 513 400.919Z" fill="#8C0078"/><rect x="489.5" y="322.5" width="53" height="38" stroke="#021735" stroke-width="1.33333" stroke-miterlimit="8" fill="#03234B"/><text fill="#FFFFFF" font-family="Arial,Arial_MSFontService,sans-serif" font-weight="400" font-size="24" transform="translate(500.595 350)">E1</text><rect x="459.5" y="413.5" width="121" height="38" stroke="#650056" stroke-width="1.33333" stroke-miterlimit="8" fill="#8C0078"/><text fill="#FFFFFF" font-family="Arial,Arial_MSFontService,sans-serif" font-weight="400" font-size="24" transform="translate(471.708 440)">Suspend</text><rect x="700.5" y="413.5" width="121" height="38" stroke="#BC9A00" stroke-width="1.33333" stroke-miterlimit="8" fill="#FFD200"/><text fill="#FFFFFF" font-family="Arial,Arial_MSFontService,sans-serif" font-weight="400" font-size="24" transform="translate(716.292 440)">Resume</text><path d="M763 360 763 402.919C763 404.024 762.105 404.919 761 404.919 759.896 404.919 759 404.024 759 402.919L759 360C759 358.895 759.895 358 761 358 762.105 358 763 358.895 763 360ZM767 400.919 761 412.919 755 400.919Z" fill="#FFD200"/></g></svg>