<svg width="1220" height="330" xmlns="http://www.w3.org/2000/svg" xmlns:xlink="http://www.w3.org/1999/xlink" overflow="hidden"><defs><clipPath id="clip0"><rect x="12" y="160" width="1220" height="330"/></clipPath></defs><g clip-path="url(#clip0)" transform="translate(-12 -160)"><rect x="13" y="163" width="1217" height="242" fill="#03234B" fill-opacity="0.501961"/><text fill="#FFFFFF" font-family="Arial,Arial_MSFontService,sans-serif" font-weight="400" font-size="24" transform="translate(557.767 191)">Event Flags</text><path d="M0 0 816.469 0.000104987" stroke="#03234B" stroke-width="4" stroke-linecap="round" stroke-miterlimit="8" fill="none" fill-rule="evenodd" transform="matrix(-1 0 0 1 1229.47 458)"/><rect x="28.5001" y="209.5" width="121" height="38" stroke="#021735" stroke-width="1.33333" stroke-miterlimit="8" fill="#03234B"/><text fill="#FFFFFF" font-family="Arial,Arial_MSFontService,sans-serif" font-weight="400" font-size="24" transform="translate(80.1276 236)">E</text><rect x="1048.5" y="458.5" width="182" height="23" stroke="#021735" stroke-width="1.33333" stroke-miterlimit="8" fill="#03234B"/><text fill="#FFFFFF" font-family="Arial,Arial_MSFontService,sans-serif" font-weight="400" font-size="16" transform="translate(1072.04 476)">tx_event_flags_get</text><rect x="209.5" y="209.5" width="53" height="38" stroke="#021735" stroke-width="1.33333" stroke-miterlimit="8" fill="#03234B"/><text fill="#FFFFFF" font-family="Arial,Arial_MSFontService,sans-serif" font-weight="400" font-size="24" transform="translate(220.879 236)">E1</text><rect x="156.5" y="209.5" width="53" height="38" stroke="#338150" stroke-width="1.33333" stroke-miterlimit="8" fill="#49B170"/><text fill="#FFFFFF" font-family="Arial,Arial_MSFontService,sans-serif" font-weight="400" font-size="24" transform="translate(167.96 236)">E2</text><rect x="504.5" y="254.5" width="53" height="38" stroke="#021735" stroke-width="1.33333" stroke-miterlimit="8" fill="#03234B"/><text fill="#FFFFFF" font-family="Arial,Arial_MSFontService,sans-serif" font-weight="400" font-size="24" transform="translate(515.715 282)">E1</text><rect x="557.5" y="254.5" width="53" height="38" stroke="#338150" stroke-width="1.33333" stroke-miterlimit="8" fill="#49B170"/><text fill="#FFFFFF" font-family="Arial,Arial_MSFontService,sans-serif" font-weight="400" font-size="24" transform="translate(568.634 282)">E0</text><rect x="451.5" y="254.5" width="53" height="38" stroke="#338150" stroke-width="1.33333" stroke-miterlimit="8" fill="#49B170"/><text fill="#FFFFFF" font-family="Arial,Arial_MSFontService,sans-serif" font-weight="400" font-size="24" transform="translate(462.796 282)">E2</text><rect x="322.5" y="254.5" width="129" height="53" stroke="#021735" stroke-width="1.33333" stroke-miterlimit="8" fill="#03234B"/><text fill="#FFFFFF" font-family="Arial,Arial_MSFontService,sans-serif" font-weight="400" font-size="24" transform="translate(361.41 275)">AND <tspan font-size="24" x="-14.6667" y="29">CLEAR</tspan></text><rect x="262.5" y="209.5" width="53" height="38" stroke="#021735" stroke-width="1.33333" stroke-miterlimit="8" fill="#03234B"/><text fill="#FFFFFF" font-family="Arial,Arial_MSFontService,sans-serif" font-weight="400" font-size="24" transform="translate(273.798 236)">E0</text><path d="M585 292 585 312.24C585 313.344 584.105 314.24 583 314.24 581.896 314.24 581 313.344 581 312.24L581 292C581 290.895 581.895 290 583 290 584.105 290 585 290.895 585 292ZM589 310.24 583 322.24 577 310.24Z" fill="#03234B"/><path d="M532 292 532 312.24C532 313.344 531.105 314.24 530 314.24 528.896 314.24 528 313.344 528 312.24L528 292C528 290.895 528.895 290 530 290 531.105 290 532 290.895 532 292ZM536 310.24 530 322.24 524 310.24Z" fill="#03234B"/><path d="M479 292 479 312.24C479 313.344 478.105 314.24 477 314.24 475.896 314.24 475 313.344 475 312.24L475 292C475 290.895 475.895 290 477 290 478.105 290 479 290.895 479 292ZM483 310.24 477 322.24 471 310.24Z" fill="#03234B"/><rect x="557.5" y="322.5" width="53" height="38" stroke="#021735" stroke-width="1.33333" stroke-miterlimit="8" fill="#03234B"/><text fill="#FFFFFF" font-family="Arial,Arial_MSFontService,sans-serif" font-weight="400" font-size="24" transform="translate(568.634 350)">E0</text><rect x="451.5" y="322.5" width="53" height="38" stroke="#021735" stroke-width="1.33333" stroke-miterlimit="8" fill="#03234B"/><text fill="#FFFFFF" font-family="Arial,Arial_MSFontService,sans-serif" font-weight="400" font-size="24" transform="translate(462.796 350)">E2</text><rect x="504.5" y="209.5" width="53" height="38" stroke="#021735" stroke-width="1.33333" stroke-miterlimit="8" fill="#03234B"/><text fill="#FFFFFF" font-family="Arial,Arial_MSFontService,sans-serif" font-weight="400" font-size="24" transform="translate(515.715 236)">E1</text><rect x="451.5" y="209.5" width="53" height="38" stroke="#338150" stroke-width="1.33333" stroke-miterlimit="8" fill="#49B170"/><text fill="#FFFFFF" font-family="Arial,Arial_MSFontService,sans-serif" font-weight="400" font-size="24" transform="translate(462.796 236)">E2</text><rect x="557.5" y="209.5" width="53" height="38" stroke="#021735" stroke-width="1.33333" stroke-miterlimit="8" fill="#03234B"/><text fill="#FFFFFF" font-family="Arial,Arial_MSFontService,sans-serif" font-weight="400" font-size="24" transform="translate(568.634 236)">E0</text><path d="M2-1.38873e-06 2.0001 141.198C2.0001 142.302 1.10467 143.198 9.94319e-05 143.198-1.10447 143.198-1.9999 142.302-1.9999 141.198L-2 1.38873e-06C-2-1.10457-1.10457-2-1.38873e-06-2 1.10457-2 2-1.10457 2-1.38873e-06ZM6.0001 139.198 0.000104987 151.198-5.9999 139.198Z" fill="#03234B" transform="matrix(1 0 0 -1 413 458.198)"/><rect x="806.5" y="254.5" width="53" height="38" stroke="#021735" stroke-width="1.33333" stroke-miterlimit="8" fill="#03234B"/><text fill="#FFFFFF" font-family="Arial,Arial_MSFontService,sans-serif" font-weight="400" font-size="24" transform="translate(818.111 282)">E1</text><rect x="859.5" y="254.5" width="53" height="38" stroke="#338150" stroke-width="1.33333" stroke-miterlimit="8" fill="#49B170"/><text fill="#FFFFFF" font-family="Arial,Arial_MSFontService,sans-serif" font-weight="400" font-size="24" transform="translate(871.03 282)">E0</text><rect x="753.5" y="254.5" width="53" height="38" stroke="#338150" stroke-width="1.33333" stroke-miterlimit="8" fill="#49B170"/><text fill="#FFFFFF" font-family="Arial,Arial_MSFontService,sans-serif" font-weight="400" font-size="24" transform="translate(765.191 282)">E2</text><path d="M888 292 888 312.24C888 313.344 887.105 314.24 886 314.24 884.896 314.24 884 313.344 884 312.24L884 292C884 290.895 884.895 290 886 290 887.105 290 888 290.895 888 292ZM892 310.24 886 322.24 880 310.24Z" fill="#03234B"/><path d="M835 292 835 312.24C835 313.344 834.105 314.24 833 314.24 831.896 314.24 831 313.344 831 312.24L831 292C831 290.895 831.895 290 833 290 834.105 290 835 290.895 835 292ZM839 310.24 833 322.24 827 310.24Z" fill="#03234B"/><path d="M782 292 782 312.24C782 313.344 781.105 314.24 780 314.24 778.896 314.24 778 313.344 778 312.24L778 292C778 290.895 778.895 290 780 290 781.105 290 782 290.895 782 292ZM786 310.24 780 322.24 774 310.24Z" fill="#03234B"/><rect x="806.5" y="322.5" width="53" height="38" stroke="#021735" stroke-width="1.33333" stroke-miterlimit="8" fill="#03234B"/><text fill="#FFFFFF" font-family="Arial,Arial_MSFontService,sans-serif" font-weight="400" font-size="24" transform="translate(818.111 350)">E1</text><rect x="859.5" y="322.5" width="53" height="38" stroke="#338150" stroke-width="1.33333" stroke-miterlimit="8" fill="#49B170"/><text fill="#FFFFFF" font-family="Arial,Arial_MSFontService,sans-serif" font-weight="400" font-size="24" transform="translate(871.03 350)">E0</text><rect x="753.5" y="322.5" width="53" height="38" stroke="#338150" stroke-width="1.33333" stroke-miterlimit="8" fill="#49B170"/><text fill="#FFFFFF" font-family="Arial,Arial_MSFontService,sans-serif" font-weight="400" font-size="24" transform="translate(765.191 350)">E2</text><rect x="806.5" y="209.5" width="53" height="38" stroke="#338150" stroke-width="1.33333" stroke-miterlimit="8" fill="#49B170"/><text fill="#FFFFFF" font-family="Arial,Arial_MSFontService,sans-serif" font-weight="400" font-size="24" transform="translate(818.111 236)">E1</text><rect x="753.5" y="209.5" width="53" height="38" stroke="#338150" stroke-width="1.33333" stroke-miterlimit="8" fill="#49B170"/><text fill="#FFFFFF" font-family="Arial,Arial_MSFontService,sans-serif" font-weight="400" font-size="24" transform="translate(765.191 236)">E2</text><rect x="859.5" y="209.5" width="53" height="38" stroke="#338150" stroke-width="1.33333" stroke-miterlimit="8" fill="#49B170"/><text fill="#FFFFFF" font-family="Arial,Arial_MSFontService,sans-serif" font-weight="400" font-size="24" transform="translate(871.03 236)">E0</text><path d="M536 360 536 402.919C536 404.024 535.105 404.919 534 404.919 532.896 404.919 532 404.024 532 402.919L532 360C532 358.895 532.895 358 534 358 535.105 358 536 358.895 536 360ZM540 400.919 534 412.919 528 400.919Z" fill="#8C0078"/><rect x="504.5" y="322.5" width="53" height="38" stroke="#021735" stroke-width="1.33333" stroke-miterlimit="8" fill="#03234B"/><text fill="#FFFFFF" font-family="Arial,Arial_MSFontService,sans-serif" font-weight="400" font-size="24" transform="translate(515.715 350)">E1</text><rect x="474.5" y="413.5" width="121" height="38" stroke="#650056" stroke-width="1.33333" stroke-miterlimit="8" fill="#8C0078"/><text fill="#FFFFFF" font-family="Arial,Arial_MSFontService,sans-serif" font-weight="400" font-size="24" transform="translate(486.828 440)">Suspend</text><rect x="1109.5" y="209.5" width="53" height="38" stroke="#338150" stroke-width="1.33333" stroke-miterlimit="8" fill="#49B170"/><text fill="#FFFFFF" font-family="Arial,Arial_MSFontService,sans-serif" font-weight="400" font-size="24" transform="translate(1120.51 236)">E1</text><rect x="1056.5" y="209.5" width="53" height="38" stroke="#021735" stroke-width="1.33333" stroke-miterlimit="8" fill="#03234B"/><text fill="#FFFFFF" font-family="Arial,Arial_MSFontService,sans-serif" font-weight="400" font-size="24" transform="translate(1067.59 236)">E2</text><rect x="1162.5" y="209.5" width="53" height="38" stroke="#021735" stroke-width="1.33333" stroke-miterlimit="8" fill="#03234B"/><text fill="#FFFFFF" font-family="Arial,Arial_MSFontService,sans-serif" font-weight="400" font-size="24" transform="translate(1173.43 236)">E0</text><rect x="776.5" y="413.5" width="121" height="38" stroke="#BC9A00" stroke-width="1.33333" stroke-miterlimit="8" fill="#FFD200"/><text fill="#FFFFFF" font-family="Arial,Arial_MSFontService,sans-serif" font-weight="400" font-size="24" transform="translate(791.891 440)">Resume</text><path d="M839 360 839 402.919C839 404.024 838.105 404.919 837 404.919 835.896 404.919 835 404.024 835 402.919L835 360C835 358.895 835.895 358 837 358 838.105 358 839 358.895 839 360ZM843 400.919 837 412.919 831 400.919Z" fill="#FFD200"/><rect x="625.5" y="254.5" width="128" height="53" stroke="#021735" stroke-width="1.33333" stroke-miterlimit="8" fill="#03234B"/><text fill="#FFFFFF" font-family="Arial,Arial_MSFontService,sans-serif" font-weight="400" font-size="24" transform="translate(663.806 275)">AND <tspan font-size="24" x="-14.6666" y="29">CLEAR</tspan></text><rect x="920.5" y="360.5" width="128" height="38" stroke="#021735" stroke-width="1.33333" stroke-miterlimit="8" fill="#03234B"/><text fill="#FFFFFF" font-family="Arial,Arial_MSFontService,sans-serif" font-weight="400" font-size="24" transform="translate(943.975 387)">CLEAR</text><path d="M837 377 910.159 377C911.263 377 912.159 377.896 912.159 379 912.159 380.105 911.263 381 910.159 381L837 381C835.895 381 835 380.105 835 379 835 377.895 835.895 377 837 377ZM908.159 373 920.159 379 908.159 385Z" fill="#FFD200"/><path d="M0 0 0.000104987 128.518" stroke="#03234B" stroke-width="4" stroke-linecap="round" stroke-miterlimit="8" fill="none" fill-rule="evenodd" transform="matrix(1 0 0 -1 980 359.518)"/><path d="M980 229 1045.6 229C1046.7 229 1047.6 229.896 1047.6 231 1047.6 232.105 1046.7 233 1045.6 233L980 233C978.895 233 978 232.105 978 231 978 229.895 978.895 229 980 229ZM1043.6 225 1055.6 231 1043.6 237Z" fill="#03234B"/></g></svg>