<svg width="1276" height="326" xmlns="http://www.w3.org/2000/svg" xmlns:xlink="http://www.w3.org/1999/xlink" overflow="hidden"><defs><clipPath id="clip0"><rect x="2" y="238" width="1276" height="326"/></clipPath></defs><g clip-path="url(#clip0)" transform="translate(-2 -238)"><rect x="35" y="360" width="1059" height="129" fill="#03234B" fill-opacity="0.501961"/><text fill="#FFFFFF" font-family="Arial,Arial_MSFontService,sans-serif" font-weight="400" font-size="24" transform="translate(534.181 388)">Timer</text><rect x="50.5001" y="428.5" width="152" height="45" stroke="#338150" stroke-width="1.33333" stroke-miterlimit="8" fill="#49B170"/><text fill="#FFFFFF" font-family="Arial,Arial_MSFontService,sans-serif" font-weight="400" font-size="24" transform="translate(83.2604 459)">Activate</text><rect x="202.5" y="428.5" width="151" height="45" stroke="#2983A9" stroke-width="1.33333" stroke-miterlimit="8" fill="#3CB4E6"/><text fill="#FFFFFF" font-family="Arial,Arial_MSFontService,sans-serif" font-weight="400" font-size="24" transform="translate(225.125 459)">initial_tick</text><rect x="353.5" y="428.5" width="211" height="45" stroke="#650056" stroke-width="1.33333" stroke-miterlimit="8" fill="#8C0078"/><text fill="#FFFFFF" font-family="Arial,Arial_MSFontService,sans-serif" font-weight="400" font-size="24" transform="translate(369.229 459)">reschedule_ticks</text><rect x="564.5" y="428.5" width="212" height="45" stroke="#650056" stroke-width="1.33333" stroke-miterlimit="8" fill="#8C0078"/><text fill="#FFFFFF" font-family="Arial,Arial_MSFontService,sans-serif" font-weight="400" font-size="24" transform="translate(580.906 459)">reschedule_ticks</text><rect x="776.5" y="428.5" width="212" height="45" stroke="#650056" stroke-width="1.33333" stroke-miterlimit="8" fill="#8C0078"/><text fill="#FFFFFF" font-family="Arial,Arial_MSFontService,sans-serif" font-weight="400" font-size="24" transform="translate(792.583 459)">reschedule_ticks</text><rect x="988.5" y="428.5" width="89.9999" height="45" stroke="#650056" stroke-width="1.33333" stroke-miterlimit="8" fill="#8C0078"/><text fill="#FFFFFF" font-family="Arial,Arial_MSFontService,sans-serif" font-weight="400" font-size="24" transform="translate(1021.11 459)">…</text><path d="M353 473 353 533.479" stroke="#FFD200" stroke-width="4" stroke-linecap="round" stroke-miterlimit="8" fill="none" fill-rule="evenodd"/><path d="M10.0003-2 665.271-1.99989C666.375-1.99989 667.271-1.10446 667.271 0.000105302 667.271 1.10467 666.375 2.00011 665.271 2.0001L10.0003 2C8.89574 2 8.00031 1.10457 8.00031 1.26254e-06 8.00031-1.10457 8.89574-2 10.0003-2ZM12 6 0 0 12-6Z" fill="#FFD200" transform="matrix(-1 0 0 1 1018.27 534)"/><rect x="1018.5" y="511.5" width="227" height="46" stroke="#BC9A00" stroke-width="1.33333" stroke-miterlimit="8" fill="#FFD200"/><text fill="#FFFFFF" font-family="Arial,Arial_MSFontService,sans-serif" font-weight="400" font-size="24" transform="translate(1030.73 542)">expiration_function</text><path d="M564 473 564 533.479" stroke="#FFD200" stroke-width="4" stroke-linecap="round" stroke-miterlimit="8" fill="none" fill-rule="evenodd"/><path d="M776 473 776 533.479" stroke="#FFD200" stroke-width="4" stroke-linecap="round" stroke-miterlimit="8" fill="none" fill-rule="evenodd"/><path d="M988 473 988 533.479" stroke="#FFD200" stroke-width="4" stroke-linecap="round" stroke-miterlimit="8" fill="none" fill-rule="evenodd"/><rect x="5.50005" y="239.5" width="189" height="45" stroke="#A9005B" stroke-width="1.33333" stroke-miterlimit="8" fill="#E6007E"/><text fill="#FFFFFF" font-family="Arial,Arial_MSFontService,sans-serif" font-weight="400" font-size="24" transform="translate(16.8008 270)">tx_timer_create</text><rect x="194" y="239" width="166" height="45" fill="#03234B" fill-opacity="0.501961"/><text fill="#FFFFFF" font-family="Arial,Arial_MSFontService,sans-serif" font-weight="400" font-size="24" transform="translate(207.125 270)">timer_pointer</text><rect x="360.5" y="239.5" width="227" height="45" stroke="#BC9A00" stroke-width="1.33333" stroke-miterlimit="8" fill="#FFD200"/><text fill="#FFFFFF" font-family="Arial,Arial_MSFontService,sans-serif" font-weight="400" font-size="24" transform="translate(373.016 270)">expiration_function</text><rect x="587" y="239" width="189" height="45" fill="#FFD200" fill-opacity="0.501961"/><text fill="#FFFFFF" font-family="Arial,Arial_MSFontService,sans-serif" font-weight="400" font-size="24" transform="translate(596.913 270)">expiration_<tspan font-size="24" x="117.333" y="0">input</tspan></text><rect x="776.5" y="239.5" width="129" height="45" stroke="#2983A9" stroke-width="1.33333" stroke-miterlimit="8" fill="#3CB4E6"/><text fill="#FFFFFF" font-family="Arial,Arial_MSFontService,sans-serif" font-weight="400" font-size="24" transform="translate(788.337 270)">initial_tick</text><rect x="905.5" y="239.5" width="204" height="45" stroke="#650056" stroke-width="1.33333" stroke-miterlimit="8" fill="#8C0078"/><text fill="#FFFFFF" font-family="Arial,Arial_MSFontService,sans-serif" font-weight="400" font-size="24" transform="translate(917.322 270)">reschedule_ticks</text><rect x="1109.5" y="239.5" width="166" height="45" stroke="#338150" stroke-width="1.33333" stroke-miterlimit="8" fill="#49B170"/><text fill="#FFFFFF" font-family="Arial,Arial_MSFontService,sans-serif" font-weight="400" font-size="24" transform="translate(1120.54 270)">a<tspan font-size="24" x="13.3334" y="0">uto</tspan><tspan font-size="24" x="46.6666" y="0">_</tspan><tspan font-size="24" x="60" y="0">activate</tspan></text></g></svg>