<svg width="1140" height="326" xmlns="http://www.w3.org/2000/svg" xmlns:xlink="http://www.w3.org/1999/xlink" overflow="hidden"><defs><clipPath id="clip0"><rect x="2" y="238" width="1140" height="326"/></clipPath></defs><g clip-path="url(#clip0)" transform="translate(-2 -238)"><rect x="459" y="360" width="332" height="129" fill="#03234B" fill-opacity="0.501961"/><text fill="#FFFFFF" font-family="Arial,Arial_MSFontService,sans-serif" font-weight="400" font-size="24" transform="translate(594.66 388)">Timer</text><rect x="474.5" y="428.5" width="151" height="45" stroke="#338150" stroke-width="1.33333" stroke-miterlimit="8" fill="#49B170"/><text fill="#FFFFFF" font-family="Arial,Arial_MSFontService,sans-serif" font-weight="400" font-size="24" transform="translate(506.615 459)">Activate</text><rect x="625.5" y="428.5" width="151" height="45" stroke="#2983A9" stroke-width="1.33333" stroke-miterlimit="8" fill="#3CB4E6"/><text fill="#FFFFFF" font-family="Arial,Arial_MSFontService,sans-serif" font-weight="400" font-size="24" transform="translate(648.479 459)">initial_tick</text><path d="M776 473 776 533.479" stroke="#FFD200" stroke-width="4" stroke-linecap="round" stroke-miterlimit="8" fill="none" fill-rule="evenodd"/><path d="M9.99999-1.99999 136.078-1.99989C137.183-1.99989 138.078-1.10446 138.078 0.00010653 138.078 1.10468 137.183 2.00011 136.078 2.0001L9.99999 2.00001C8.89542 2.00001 7.99999 1.10458 7.99999 6.17214e-06 7.99999-1.10456 8.89542-1.99999 9.99999-1.99999ZM12 6.00001 0 0 12-5.99999Z" fill="#FFD200" transform="matrix(-1 0 0 1 912.078 534)"/><rect x="912.5" y="511.5" width="227" height="46" stroke="#BC9A00" stroke-width="1.33333" stroke-miterlimit="8" fill="#FFD200"/><text fill="#FFFFFF" font-family="Arial,Arial_MSFontService,sans-serif" font-weight="400" font-size="24" transform="translate(924.888 542)">expiration_function</text><rect x="5.50005" y="239.5" width="189" height="45" stroke="#A9005B" stroke-width="1.33333" stroke-miterlimit="8" fill="#E6007E"/><text fill="#FFFFFF" font-family="Arial,Arial_MSFontService,sans-serif" font-weight="400" font-size="24" transform="translate(16.8008 270)">tx_timer_create</text><rect x="194" y="239" width="166" height="45" fill="#03234B" fill-opacity="0.501961"/><text fill="#FFFFFF" font-family="Arial,Arial_MSFontService,sans-serif" font-weight="400" font-size="24" transform="translate(207.125 270)">timer_pointer</text><rect x="360.5" y="239.5" width="227" height="45" stroke="#BC9A00" stroke-width="1.33333" stroke-miterlimit="8" fill="#FFD200"/><text fill="#FFFFFF" font-family="Arial,Arial_MSFontService,sans-serif" font-weight="400" font-size="24" transform="translate(373.016 270)">expiration_function</text><rect x="587" y="239" width="189" height="45" fill="#FFD200" fill-opacity="0.501961"/><text fill="#FFFFFF" font-family="Arial,Arial_MSFontService,sans-serif" font-weight="400" font-size="24" transform="translate(596.913 270)">expiration_<tspan font-size="24" x="117.333" y="0">input</tspan></text><rect x="776.5" y="239.5" width="129" height="45" stroke="#2983A9" stroke-width="1.33333" stroke-miterlimit="8" fill="#3CB4E6"/><text fill="#FFFFFF" font-family="Arial,Arial_MSFontService,sans-serif" font-weight="400" font-size="24" transform="translate(788.337 270)">initial_tick</text><rect x="905.5" y="239.5" width="68" height="45" stroke="#650056" stroke-width="1.33333" stroke-miterlimit="8" fill="#8C0078"/><text fill="#FFFFFF" font-family="Arial,Arial_MSFontService,sans-serif" font-weight="400" font-size="24" transform="translate(931.949 270)">0</text><rect x="973.5" y="239.5" width="166" height="45" stroke="#338150" stroke-width="1.33333" stroke-miterlimit="8" fill="#49B170"/><text fill="#FFFFFF" font-family="Arial,Arial_MSFontService,sans-serif" font-weight="400" font-size="24" transform="translate(984.461 270)">a<tspan font-size="24" x="13.3334" y="0">uto</tspan><tspan font-size="24" x="46.6667" y="0">_</tspan><tspan font-size="24" x="60" y="0">activate</tspan></text></g></svg>