<svg width="1054" height="207" xmlns="http://www.w3.org/2000/svg" xmlns:xlink="http://www.w3.org/1999/xlink" overflow="hidden"><defs><clipPath id="clip0"><rect x="110" y="357" width="1054" height="207"/></clipPath></defs><g clip-path="url(#clip0)" transform="translate(-110 -357)"><rect x="111" y="360" width="794" height="129" fill="#03234B" fill-opacity="0.501961"/><text fill="#FFFFFF" font-family="Arial,Arial_MSFontService,sans-serif" font-weight="400" font-size="24" transform="translate(477.482 388)">Timer</text><rect x="126.5" y="428.5" width="151" height="45" stroke="#338150" stroke-width="1.33333" stroke-miterlimit="8" fill="#49B170"/><text fill="#FFFFFF" font-family="Arial,Arial_MSFontService,sans-serif" font-weight="400" font-size="24" transform="translate(158.859 459)">Activate</text><rect x="277.5" y="428.5" width="151" height="45" stroke="#2983A9" stroke-width="1.33333" stroke-miterlimit="8" fill="#3CB4E6"/><text fill="#FFFFFF" font-family="Arial,Arial_MSFontService,sans-serif" font-weight="400" font-size="24" transform="translate(300.724 459)">initial_tick</text><path d="M428 473 428 533.479" stroke="#FFD200" stroke-width="4" stroke-linecap="round" stroke-miterlimit="8" fill="none" fill-rule="evenodd"/><path d="M10.0003-2 506.513-1.99989C507.618-1.99989 508.513-1.10446 508.513 0.000105401 508.513 1.10467 507.618 2.00011 506.513 2.0001L10.0003 2C8.89574 2 8.00031 1.10457 8.00031 1.65825e-06 8.00031-1.10457 8.89574-2 10.0003-2ZM12 6 0 0 12-6Z" fill="#FFD200" transform="matrix(-1 0 0 1 934.513 534)"/><rect x="935.5" y="511.5" width="227" height="46" stroke="#BC9A00" stroke-width="1.33333" stroke-miterlimit="8" fill="#FFD200"/><text fill="#FFFFFF" font-family="Arial,Arial_MSFontService,sans-serif" font-weight="400" font-size="24" transform="translate(947.568 542)">expiration_function</text><rect x="443.5" y="428.5" width="152" height="45" stroke="#A9005B" stroke-width="1.33333" stroke-miterlimit="8" fill="#E6007E"/><text fill="#FFFFFF" font-family="Arial,Arial_MSFontService,sans-serif" font-weight="400" font-size="24" transform="translate(477.042 459)">Change</text><rect x="738.5" y="428.5" width="151" height="45" stroke="#2983A9" stroke-width="1.33333" stroke-miterlimit="8" fill="#3CB4E6"/><text fill="#FFFFFF" font-family="Arial,Arial_MSFontService,sans-serif" font-weight="400" font-size="24" transform="translate(761.878 459)">initial_tick</text><rect x="595.5" y="428.5" width="151" height="45" stroke="#338150" stroke-width="1.33333" stroke-miterlimit="8" fill="#49B170"/><text fill="#FFFFFF" font-family="Arial,Arial_MSFontService,sans-serif" font-weight="400" font-size="24" transform="translate(627.573 459)">Activate</text><path d="M889 473 889 533.479" stroke="#FFD200" stroke-width="4" stroke-linecap="round" stroke-miterlimit="8" fill="none" fill-rule="evenodd"/></g></svg>