<svg width="456" height="457" xmlns="http://www.w3.org/2000/svg" xmlns:xlink="http://www.w3.org/1999/xlink" overflow="hidden"><defs><clipPath id="clip0"><rect x="715" y="55" width="456" height="457"/></clipPath></defs><g clip-path="url(#clip0)" transform="translate(-715 -55)"><rect x="942" y="58" width="227" height="453" fill="#03234B" fill-opacity="0.501961"/><text fill="#FFFFFF" font-family="Arial,Arial_MSFontService,sans-serif" font-weight="400" font-size="24" transform="translate(1029.13 85)">RAM</text><rect x="942.5" y="95.5001" width="227" height="38" stroke="#650056" stroke-width="1.33333" stroke-miterlimit="8" fill="#8C0078"/><text fill="#FFFFFF" font-family="Arial,Arial_MSFontService,sans-serif" font-weight="400" font-size="24" transform="translate(1006.01 123)">RW RAM</text><rect x="942.5" y="133.5" width="227" height="106" stroke="#338150" stroke-width="1.33333" stroke-miterlimit="8" fill="#49B170"/><text fill="#FFFFFF" font-family="Arial,Arial_MSFontService,sans-serif" font-weight="400" font-size="24" transform="translate(1015.13 161)">ZI RAM</text><rect x="942.5" y="179.5" width="227" height="37" stroke="#BC9A00" stroke-width="1.33333" stroke-miterlimit="8" fill="#FFD200"/><text fill="#FFFFFF" font-family="Arial,Arial_MSFontService,sans-serif" font-weight="400" font-size="24" transform="translate(987.344 206)">Global buffer</text><rect x="942.5" y="239.5" width="227" height="68" stroke="#2983A9" stroke-width="1.33333" stroke-miterlimit="8" fill="#3CB4E6"/><text fill="#FFFFFF" font-family="Arial,Arial_MSFontService,sans-serif" font-weight="400" font-size="24" transform="translate(993.794 267)">Stack/Heap</text><path d="M935 307C932.791 307 931 306.702 931 306.333L931 201.667C931 201.298 929.209 201 927 201 929.209 201 931 200.702 931 200.333L931 95.6666C931 95.2984 932.791 95 935 95" stroke="#03234B" stroke-width="2.33333" stroke-miterlimit="8" fill="none" fill-rule="evenodd"/><path d="M716 156.834C716 151.955 719.955 148 724.833 148L816.917 148 816.917 148 860.167 148 880.167 148C885.045 148 889 151.955 889 156.834L889 178.917 916.244 198.01 889 192.167 889 192.166C889 197.045 885.045 201 880.167 201L860.167 201 816.917 201 816.917 201 724.833 201C719.955 201 716 197.045 716 192.166L716 192.167 716 178.917 716 178.917Z" fill="#03234B" fill-rule="evenodd"/><text fill="#FFFFFF" font-family="Arial,Arial_MSFontService,sans-serif" font-weight="400" font-size="24" transform="translate(754.538 169)">Compiler <tspan font-size="24" x="0" y="29">allocated</tspan></text></g></svg>