<svg width="507" height="271" xmlns="http://www.w3.org/2000/svg" xmlns:xlink="http://www.w3.org/1999/xlink" overflow="hidden"><defs><clipPath id="clip0"><rect x="639" y="295" width="507" height="271"/></clipPath></defs><g clip-path="url(#clip0)" transform="translate(-639 -295)"><rect x="1000.5" y="296.5" width="144" height="48" stroke="#338150" stroke-width="1.33333" stroke-miterlimit="8" fill="#49B170"/><text fill="#FFFFFF" font-family="Arial,Arial_MSFontService,sans-serif" font-weight="400" font-size="24" transform="translate(1048.83 329)">LED</text><rect x="640.5" y="296.5" width="288" height="48" stroke="#2983A9" stroke-width="1.33333" stroke-miterlimit="8" fill="#3CB4E6"/><text fill="#FFFFFF" font-family="Arial,Arial_MSFontService,sans-serif" font-weight="400" font-size="24" transform="translate(664.83 329)">HAL_GPIO_TogglePin</text><path d="M928 318 990 318C991.105 318 992 318.896 992 320 992 321.105 991.105 322 990 322L928 322C926.895 322 926 321.105 926 320 926 318.895 926.895 318 928 318ZM988 314 1000 320 988 326Z" fill="#03234B"/><rect x="640.5" y="368.5" width="288" height="48" stroke="#2983A9" stroke-width="1.33333" stroke-miterlimit="8" fill="#3CB4E6"/><text fill="#FFFFFF" font-family="Arial,Arial_MSFontService,sans-serif" font-weight="400" font-size="24" transform="translate(664.83 401)">HAL_GPIO_TogglePin</text><rect x="1000" y="368" width="144" height="48" fill="#03234B" fill-opacity="0.501961"/><text fill="#FFFFFF" font-family="Arial,Arial_MSFontService,sans-serif" font-weight="400" font-size="24" transform="translate(1048.83 401)">LED</text><path d="M928 390 990 390C991.105 390 992 390.896 992 392 992 393.105 991.105 394 990 394L928 394C926.895 394 926 393.105 926 392 926 390.895 926.895 390 928 390ZM988 386 1000 392 988 398Z" fill="#03234B"/><rect x="640.5" y="440.5" width="288" height="48" stroke="#2983A9" stroke-width="1.33333" stroke-miterlimit="8" fill="#3CB4E6"/><text fill="#FFFFFF" font-family="Arial,Arial_MSFontService,sans-serif" font-weight="400" font-size="24" transform="translate(664.83 473)">HAL_GPIO_TogglePin</text><rect x="1000.5" y="440.5" width="144" height="48" stroke="#338150" stroke-width="1.33333" stroke-miterlimit="8" fill="#49B170"/><text fill="#FFFFFF" font-family="Arial,Arial_MSFontService,sans-serif" font-weight="400" font-size="24" transform="translate(1048.83 473)">LED</text><rect x="640.5" y="512.5" width="288" height="48" stroke="#2983A9" stroke-width="1.33333" stroke-miterlimit="8" fill="#3CB4E6"/><text fill="#FFFFFF" font-family="Arial,Arial_MSFontService,sans-serif" font-weight="400" font-size="24" transform="translate(664.83 545)">HAL_GPIO_TogglePin</text><rect x="1000" y="512" width="144" height="48" fill="#03234B" fill-opacity="0.501961"/><text fill="#FFFFFF" font-family="Arial,Arial_MSFontService,sans-serif" font-weight="400" font-size="24" transform="translate(1048.83 545)">LED</text><path d="M928 462 990 462C991.105 462 992 462.896 992 464 992 465.105 991.105 466 990 466L928 466C926.895 466 926 465.105 926 464 926 462.895 926.895 462 928 462ZM988 458 1000 464 988 470Z" fill="#03234B"/><path d="M928 534 990 534C991.105 534 992 534.896 992 536 992 537.105 991.105 538 990 538L928 538C926.895 538 926 537.105 926 536 926 534.895 926.895 534 928 534ZM988 530 1000 536 988 542Z" fill="#03234B"/><path d="M786 344 786 358C786 359.105 785.105 360 784 360 782.896 360 782 359.105 782 358L782 344C782 342.895 782.895 342 784 342 785.105 342 786 342.895 786 344ZM790 356 784 368 778 356Z" fill="#03234B"/><path d="M786 416 786 430C786 431.105 785.105 432 784 432 782.896 432 782 431.105 782 430L782 416C782 414.895 782.895 414 784 414 785.105 414 786 414.895 786 416ZM790 428 784 440 778 428Z" fill="#03234B"/><path d="M786 488 786 502C786 503.105 785.105 504 784 504 782.896 504 782 503.105 782 502L782 488C782 486.895 782.895 486 784 486 785.105 486 786 486.895 786 488ZM790 500 784 512 778 500Z" fill="#03234B"/></g></svg>