<svg width="1147" height="542" xmlns="http://www.w3.org/2000/svg" xmlns:xlink="http://www.w3.org/1999/xlink" overflow="hidden"><defs><clipPath id="clip0"><rect x="110" y="56" width="1147" height="542"/></clipPath></defs><g clip-path="url(#clip0)" transform="translate(-110 -56)"><rect x="224.5" y="133.5" width="303" height="38" stroke="#2983A9" stroke-width="1.33333" stroke-miterlimit="8" fill="#3CB4E6"/><text fill="#FFFFFF" font-family="Arial,Arial_MSFontService,sans-serif" font-weight="400" font-size="24" transform="translate(239.837 161)">MX_AZURE_RTOS_Init()</text><path d="M111.5 66C111.5 61.8579 114.858 58.5001 119 58.5001L255 58.5001C259.142 58.5001 262.5 61.8579 262.5 66L262.5 96.0001C262.5 100.142 259.142 103.5 255 103.5L119 103.5C114.858 103.5 111.5 100.142 111.5 96.0001Z" stroke="#338150" stroke-width="1.33333" stroke-miterlimit="8" fill="#49B170" fill-rule="evenodd"/><text fill="#FFFFFF" font-family="Arial,Arial_MSFontService,sans-serif" font-weight="400" font-size="24" transform="translate(151.073 89)">Main.c</text><rect x="300.5" y="209.5" width="302" height="38" stroke="#2983A9" stroke-width="1.33333" stroke-miterlimit="8" fill="#3CB4E6"/><text fill="#FFFFFF" font-family="Arial,Arial_MSFontService,sans-serif" font-weight="400" font-size="24" transform="translate(360.336 236)">t<tspan font-size="24" x="6.66666" y="0">x_kernel_enter</tspan>()</text><rect x="375.5" y="284.5" width="303" height="38" stroke="#2983A9" stroke-width="1.33333" stroke-miterlimit="8" fill="#3CB4E6"/><text fill="#FFFFFF" font-family="Arial,Arial_MSFontService,sans-serif" font-weight="400" font-size="24" transform="translate(413.935 312)">t<tspan font-size="24" x="6.66669" y="0">x_application_define</tspan></text><rect x="451.5" y="360.5" width="302" height="38" stroke="#2983A9" stroke-width="1.33333" stroke-miterlimit="8" fill="#3CB4E6"/><text fill="#FFFFFF" font-family="Arial,Arial_MSFontService,sans-serif" font-weight="400" font-size="24" transform="translate(497.534 387)">App_ThreadX_Init<tspan font-size="24" x="193.333" y="0">()</tspan></text><path d="M0-1.16667 57.8659-1.16667 57.8659 31.1328 55.5325 31.1328 55.5325 0 56.6992 1.16667 0 1.16667ZM60.6992 29.7995 56.6992 37.7995 52.6992 29.7995Z" fill="#03234B" transform="matrix(1.83697e-16 1 1 -1.83697e-16 413 322)"/><path d="M0-1.16667 57.8659-1.16667 57.8659 31.1328 55.5325 31.1328 55.5325 0 56.6992 1.16667 0 1.16667ZM60.6992 29.7995 56.6992 37.7995 52.6992 29.7995Z" fill="#03234B" transform="matrix(1.83697e-16 1 1 -1.83697e-16 338 247)"/><path d="M0-1.16667 57.8659-1.16667 57.8659 31.1328 55.5325 31.1328 55.5325 0 56.6992 1.16667 0 1.16667ZM60.6992 29.7995 56.6992 37.7995 52.6992 29.7995Z" fill="#03234B" transform="matrix(1.83697e-16 1 1 -1.83697e-16 262 171)"/><path d="M0-1.16667 50.306-1.16667 50.306 31.1328 47.9726 31.1328 47.9726 0 49.1393 1.16667 0 1.16667ZM53.1393 29.7995 49.1393 37.7995 45.1393 29.7995Z" fill="#03234B" transform="matrix(1.83697e-16 1 1 -1.83697e-16 186 103)"/><rect x="527.5" y="133.5" width="264" height="38" stroke="#2983A9" stroke-width="1.33333" stroke-miterlimit="8" fill="#3CB4E6" fill-opacity="0.501961"/><text fill="#FFFFFF" font-family="Arial,Arial_MSFontService,sans-serif" font-weight="400" font-size="24" transform="translate(623.566 161)">main.c</text><rect x="602.5" y="209.5" width="265" height="38" stroke="#2983A9" stroke-width="1.33333" stroke-miterlimit="8" fill="#3CB4E6" fill-opacity="0.501961"/><text fill="#FFFFFF" font-family="Arial,Arial_MSFontService,sans-serif" font-weight="400" font-size="24" transform="translate(688.499 236)">Thread<tspan font-size="24" x="76" y="0">X</tspan></text><rect x="678.5" y="284.5" width="264" height="38" stroke="#2983A9" stroke-width="1.33333" stroke-miterlimit="8" fill="#3CB4E6" fill-opacity="0.501961"/><text fill="#FFFFFF" font-family="Arial,Arial_MSFontService,sans-serif" font-weight="400" font-size="24" transform="translate(717.431 312)">a<tspan font-size="24" x="13.3333" y="0">pp_azure_rtos.c</tspan></text><rect x="753.5" y="360.5" width="265" height="38" stroke="#2983A9" stroke-width="1.33333" stroke-miterlimit="8" fill="#3CB4E6" fill-opacity="0.501961"/><text fill="#FFFFFF" font-family="Arial,Arial_MSFontService,sans-serif" font-weight="400" font-size="24" transform="translate(809.697 387)">a<tspan font-size="24" x="13.3333" y="0">pp_threadx.c</tspan></text><rect x="300.5" y="473.5" width="302" height="38" stroke="#2983A9" stroke-width="1.33333" stroke-miterlimit="8" fill="#3CB4E6"/><text fill="#FFFFFF" font-family="Arial,Arial_MSFontService,sans-serif" font-weight="400" font-size="24" transform="translate(364.336 501)">t<tspan font-size="24" x="6.66666" y="0">x_kernel_start</tspan>()</text><path d="M490.167 398 490.167 466.932 487.833 466.932 487.833 398ZM493 465.599 489 473.599 485 465.599Z" fill="#03234B"/><rect x="602.5" y="473.5" width="265" height="38" stroke="#2983A9" stroke-width="1.33333" stroke-miterlimit="8" fill="#3CB4E6" fill-opacity="0.501961"/><text fill="#FFFFFF" font-family="Arial,Arial_MSFontService,sans-serif" font-weight="400" font-size="24" transform="translate(688.499 501)">Thread<tspan font-size="24" x="76" y="0">X</tspan></text><path d="M338.5 555.833C338.5 552.336 341.336 549.5 344.833 549.5L558.167 549.5C561.664 549.5 564.5 552.336 564.5 555.833L564.5 581.167C564.5 584.664 561.664 587.5 558.167 587.5L344.833 587.5C341.336 587.5 338.5 584.664 338.5 581.167Z" stroke="#338150" stroke-width="1.33333" stroke-miterlimit="8" fill="#49B170" fill-rule="evenodd"/><text fill="#FFFFFF" font-family="Arial,Arial_MSFontService,sans-serif" font-weight="400" font-size="24" transform="translate(371.666 576)">Task execution</text><path d="M452.167 511 452.167 542.133 449.833 542.133 449.833 511ZM455 540.799 451 548.799 447 540.799Z" fill="#03234B"/><rect x="1056.5" y="284.5" width="189" height="114" stroke="#2983A9" stroke-width="1.33333" stroke-miterlimit="8" fill="#3CB4E6" fill-opacity="0.501961"/><text fill="#FFFFFF" font-family="Arial,Arial_MSFontService,sans-serif" font-weight="400" font-size="24" transform="translate(1065.63 321)">User can create <tspan font-size="24" x="38.6666" y="29">ThreadX</tspan><tspan font-size="24" x="9.33325" y="58">threads() here</tspan></text><path d="M942 284 1055.4 284" stroke="#3CB4E6" stroke-width="2.33333" stroke-miterlimit="8" stroke-dasharray="7 2.33333" stroke-opacity="0.501961" fill="none" fill-rule="evenodd"/><path d="M1018 398 1055.8 398" stroke="#3CB4E6" stroke-width="2.33333" stroke-miterlimit="8" stroke-dasharray="7 2.33333" stroke-opacity="0.501961" fill="none" fill-rule="evenodd"/></g></svg>