<svg width="2391" height="1297" xmlns="http://www.w3.org/2000/svg" xmlns:xlink="http://www.w3.org/1999/xlink" overflow="hidden"><defs><clipPath id="clip0"><rect x="641" y="118" width="2391" height="1297"/></clipPath></defs><g clip-path="url(#clip0)" transform="translate(-641 -118)"><rect x="641" y="692" width="2391" height="442" fill="#03234B" fill-opacity="0.501961"/><text fill="#FFFFFF" font-family="Arial,Arial_MSFontService,sans-serif" font-weight="400" font-size="83" transform="matrix(1 0 0 1 1641.39 788)">my_thread</text><rect x="693.5" y="432.5" width="545" height="208" stroke="#338150" stroke-width="4.58333" stroke-miterlimit="8" fill="#49B170"/><text fill="#FFFFFF" font-family="Arial,Arial_MSFontService,sans-serif" font-weight="400" font-size="83" transform="matrix(1 0 0 1 725.746 566)">GPIO Toggle</text><rect x="719.5" y="848.5" width="1429" height="208" stroke="#650056" stroke-width="4.58333" stroke-miterlimit="8" fill="#8C0078"/><text fill="#FFFFFF" font-family="Arial,Arial_MSFontService,sans-serif" font-weight="400" font-size="83" transform="matrix(1 0 0 1 751.733 982)">Sleep</text><rect x="2148.5" y="432.5" width="546" height="208" stroke="#338150" stroke-width="4.58333" stroke-miterlimit="8" fill="#49B170"/><text fill="#FFFFFF" font-family="Arial,Arial_MSFontService,sans-serif" font-weight="400" font-size="83" transform="matrix(1 0 0 1 2181.03 566)">GPIO Toggle</text><rect x="2174.5" y="848.5" width="806" height="208" stroke="#650056" stroke-width="4.58333" stroke-miterlimit="8" fill="#8C0078"/><text fill="#FFFFFF" font-family="Arial,Arial_MSFontService,sans-serif" font-weight="400" font-size="83" transform="matrix(1 0 0 1 2207.01 982)">Sleep</text><path d="M2148 1082C2148 1110.72 2144.12 1134 2139.33 1134L1442.17 1134C1437.38 1134 1433.5 1157.28 1433.5 1186 1433.5 1157.28 1429.62 1134 1424.83 1134L727.666 1134C722.88 1134 719 1110.72 719 1082" stroke="#3CB4E6" stroke-width="13.75" stroke-linecap="round" stroke-miterlimit="8" fill="none" fill-rule="evenodd"/><path d="M1238.5 1264.33C1238.5 1250.07 1250.07 1238.5 1264.33 1238.5L1602.67 1238.5C1616.93 1238.5 1628.5 1250.07 1628.5 1264.33L1628.5 1367.67C1628.5 1381.93 1616.93 1393.5 1602.67 1393.5L1264.33 1393.5C1250.07 1393.5 1238.5 1381.93 1238.5 1367.67Z" stroke="#2983A9" stroke-width="4.58333" stroke-miterlimit="8" fill="#3CB4E6" fill-rule="evenodd"/><text fill="#FFFFFF" font-family="Arial,Arial_MSFontService,sans-serif" font-weight="400" font-size="83" transform="matrix(1 0 0 1 1309.63 1346)">500ms</text><path d="M2148 432C2148 403.281 2151.88 380 2156.67 380L2412.33 380C2417.12 380 2421 356.719 2421 328 2421 356.719 2424.88 380 2429.67 380L2685.33 380C2690.12 380 2694 403.282 2694 432.001" stroke="#3CB4E6" stroke-width="13.75" stroke-linecap="round" stroke-miterlimit="8" fill="none" fill-rule="evenodd"/><path d="M2226.5 146.501C2226.5 132.141 2238.14 120.5 2252.5 120.5L2616.5 120.5C2630.86 120.5 2642.5 132.141 2642.5 146.501L2642.5 250.499C2642.5 264.859 2630.86 276.5 2616.5 276.5L2252.5 276.5C2238.14 276.5 2226.5 264.859 2226.5 250.499Z" stroke="#2983A9" stroke-width="4.58333" stroke-miterlimit="8" fill="#3CB4E6" fill-rule="evenodd"/><text fill="#FFFFFF" font-family="Arial,Arial_MSFontService,sans-serif" font-weight="400" font-size="83" transform="matrix(1 0 0 1 2314.72 229)">few us</text><rect x="2148.5" y="640.5" width="26.0002" height="416" stroke="#338150" stroke-width="4.58333" stroke-miterlimit="8" fill="#49B170"/><rect x="693.5" y="640.5" width="26.0001" height="416" stroke="#338150" stroke-width="4.58333" stroke-miterlimit="8" fill="#49B170"/></g></svg>