<svg width="2391" height="1296" xmlns="http://www.w3.org/2000/svg" xmlns:xlink="http://www.w3.org/1999/xlink" overflow="hidden"><defs><clipPath id="clip0"><rect x="589" y="1158" width="2391" height="1296"/></clipPath></defs><g clip-path="url(#clip0)" transform="translate(-589 -1158)"><rect x="589" y="1731" width="2391" height="442" fill="#03234B" fill-opacity="0.501961"/><text fill="#FFFFFF" font-family="Arial,Arial_MSFontService,sans-serif" font-weight="400" font-size="83" transform="matrix(1 0 0 1 1589.41 1828)">my_thread</text><rect x="641.5" y="1471.5" width="546" height="208" stroke="#338150" stroke-width="4.58333" stroke-miterlimit="8" fill="#49B170"/><text fill="#FFFFFF" font-family="Arial,Arial_MSFontService,sans-serif" font-weight="400" font-size="83" transform="matrix(1 0 0 1 673.772 1606)">GPIO Toggle</text><rect x="1316.5" y="1887.5" width="780" height="208" stroke="#650056" stroke-width="4.58333" stroke-miterlimit="8" fill="#8C0078"/><text fill="#FFFFFF" font-family="Arial,Arial_MSFontService,sans-serif" font-weight="400" font-size="83" transform="matrix(1 0 0 1 1349.44 2022)">Sleep</text><rect x="2096.5" y="1471.5" width="546" height="208" stroke="#338150" stroke-width="4.58333" stroke-miterlimit="8" fill="#49B170"/><text fill="#FFFFFF" font-family="Arial,Arial_MSFontService,sans-serif" font-weight="400" font-size="83" transform="matrix(1 0 0 1 2129.05 1606)">GPIO Toggle</text><rect x="2616.5" y="1887.5" width="312" height="208" stroke="#650056" stroke-width="4.58333" stroke-miterlimit="8" fill="#8C0078"/><text fill="#FFFFFF" font-family="Arial,Arial_MSFontService,sans-serif" font-weight="400" font-size="83" transform="matrix(1 0 0 1 2648.79 2022)">Sleep</text><path d="M2096 2121C2096 2149.72 2081.65 2173 2063.96 2173L1738.04 2173C1720.34 2173 1706 2196.28 1706 2225 1706 2196.28 1691.66 2173 1673.96 2173L1348.04 2173C1330.34 2173 1316 2149.72 1316 2121" stroke="#3CB4E6" stroke-width="13.75" stroke-linecap="round" stroke-miterlimit="8" fill="none" fill-rule="evenodd"/><path d="M1446.5 2303.5C1446.5 2289.14 1458.14 2277.5 1472.5 2277.5L1810.5 2277.5C1824.86 2277.5 1836.5 2289.14 1836.5 2303.5L1836.5 2407.5C1836.5 2421.86 1824.86 2433.5 1810.5 2433.5L1472.5 2433.5C1458.14 2433.5 1446.5 2421.86 1446.5 2407.5Z" stroke="#2983A9" stroke-width="4.58333" stroke-miterlimit="8" fill="#3CB4E6" fill-rule="evenodd"/><text fill="#FFFFFF" font-family="Arial,Arial_MSFontService,sans-serif" font-weight="400" font-size="83" transform="matrix(1 0 0 1 1517.53 2385)">500ms</text><path d="M2096 1471C2096 1442.28 2099.88 1419 2104.67 1419L2360.33 1419C2365.12 1419 2369 1395.72 2369 1367 2369 1395.72 2372.88 1419 2377.67 1419L2633.33 1419C2638.12 1419 2642 1442.28 2642 1471" stroke="#3CB4E6" stroke-width="13.75" stroke-linecap="round" stroke-miterlimit="8" fill="none" fill-rule="evenodd"/><path d="M2174.5 1186.33C2174.5 1172.07 2186.07 1160.5 2200.33 1160.5L2564.67 1160.5C2578.93 1160.5 2590.5 1172.07 2590.5 1186.33L2590.5 1289.67C2590.5 1303.93 2578.93 1315.5 2564.67 1315.5L2200.33 1315.5C2186.07 1315.5 2174.5 1303.93 2174.5 1289.67Z" stroke="#2983A9" stroke-width="4.58333" stroke-miterlimit="8" fill="#3CB4E6" fill-rule="evenodd"/><text fill="#FFFFFF" font-family="Arial,Arial_MSFontService,sans-serif" font-weight="400" font-size="83" transform="matrix(1 0 0 1 2262.74 1268)">few us</text><rect x="2096.5" y="1679.5" width="26.0002" height="416" stroke="#338150" stroke-width="4.58333" stroke-miterlimit="8" fill="#49B170"/><rect x="641.5" y="1679.5" width="26.0001" height="416" stroke="#338150" stroke-width="4.58333" stroke-miterlimit="8" fill="#49B170"/><rect x="667" y="1887" width="649" height="208" fill="#49B170" fill-opacity="0.501961"/><text fill="#FFFFFF" font-family="Arial,Arial_MSFontService,sans-serif" font-weight="400" font-size="83" transform="matrix(1 0 0 1 699.759 2022)">HAL_Delay</text><rect x="2122" y="1887" width="494" height="208" fill="#49B170" fill-opacity="0.501961"/><text fill="#FFFFFF" font-family="Arial,Arial_MSFontService,sans-serif" font-weight="400" font-size="83" transform="matrix(1 0 0 1 2155.04 2022)">HAL_Delay</text><path d="M797.5 2303.5C797.5 2289.14 809.141 2277.5 823.5 2277.5L1161.5 2277.5C1175.86 2277.5 1187.5 2289.14 1187.5 2303.5L1187.5 2407.5C1187.5 2421.86 1175.86 2433.5 1161.5 2433.5L823.5 2433.5C809.141 2433.5 797.5 2421.86 797.5 2407.5Z" stroke="#2983A9" stroke-width="4.58333" stroke-miterlimit="8" fill="#3CB4E6" fill-rule="evenodd"/><text fill="#FFFFFF" font-family="Arial,Arial_MSFontService,sans-serif" font-weight="400" font-size="83" transform="matrix(1 0 0 1 867.848 2385)">500ms</text><path d="M1316 2121C1316 2149.72 1312.12 2173 1307.33 2173L1000.17 2173C995.38 2173 991.5 2196.28 991.5 2225 991.5 2196.28 987.62 2173 982.834 2173L675.666 2173C670.88 2173 667 2149.72 667 2121" stroke="#3CB4E6" stroke-width="13.75" stroke-linecap="round" stroke-miterlimit="8" fill="none" fill-rule="evenodd"/></g></svg>