<svg width="3794" height="874" xmlns="http://www.w3.org/2000/svg" xmlns:xlink="http://www.w3.org/1999/xlink" overflow="hidden"><defs><clipPath id="clip0"><rect x="121" y="1489" width="3794" height="874"/></clipPath></defs><g clip-path="url(#clip0)" transform="translate(-121 -1489)"><rect x="121" y="1497" width="3794" height="858" fill="#49B170" fill-opacity="0.501961"/><text fill="#FFFFFF" font-family="Arial,Arial_MSFontService,sans-serif" font-weight="400" font-size="83" transform="matrix(1 0 0 1 1864.55 1594)">Running</text><rect x="1706" y="2017" width="2183" height="130" fill="#49B170" fill-opacity="0.501961"/><rect x="1706" y="1835" width="2183" height="130" fill="#49B170" fill-opacity="0.501961"/><path d="M1187.5 1933 1589.5 1933 1589.5 1887.5 1680.5 1978.5 1589.5 2069.5 1589.5 2024 1187.5 2024Z" stroke="#338150" stroke-width="4.58333" stroke-miterlimit="8" fill="#49B170" fill-rule="evenodd"/><text fill="#FFFFFF" font-family="Arial,Arial_MSFontService,sans-serif" font-weight="400" font-size="83" transform="matrix(1 0 0 1 1229.6 2009)">Execution</text><rect x="641.5" y="2017.5" width="520" height="130" stroke="#338150" stroke-width="4.58333" stroke-miterlimit="8" fill="#49B170"/><text fill="#FFFFFF" font-family="Arial,Arial_MSFontService,sans-serif" font-weight="400" font-size="83" transform="matrix(1 0 0 1 705.851 2113)">my_thread</text><rect x="641.5" y="1835.5" width="520" height="130" stroke="#338150" stroke-width="4.58333" stroke-miterlimit="8" fill="#49B170"/><text fill="#FFFFFF" font-family="Arial,Arial_MSFontService,sans-serif" font-weight="400" font-size="83" transform="matrix(1 0 0 1 682.935 1931)">my_thread2</text><rect x="1732.5" y="1835.5" width="520" height="130" stroke="#338150" stroke-width="4.58333" stroke-miterlimit="8" fill="#49B170"/><text fill="#FFFFFF" font-family="Arial,Arial_MSFontService,sans-serif" font-weight="400" font-size="83" transform="matrix(1 0 0 1 1783.56 1931)">HAL_Delay</text><rect x="1706.5" y="1653.5" width="520" height="130" stroke="#338150" stroke-width="4.58333" stroke-miterlimit="8" fill="#49B170"/><text fill="#FFFFFF" font-family="Arial,Arial_MSFontService,sans-serif" font-weight="400" font-size="73" transform="matrix(1 0 0 1 1746.17 1745)">GPIO_Toggl<tspan font-size="73" x="399.208" y="0">e</tspan></text><rect x="2252.5" y="1653.5" width="494" height="130" stroke="#338150" stroke-width="4.58333" stroke-miterlimit="8" fill="#49B170"/><text fill="#FFFFFF" font-family="Arial,Arial_MSFontService,sans-serif" font-weight="400" font-size="83" transform="matrix(1 0 0 1 2393.44 1749)">Sleep</text><rect x="147.5" y="2017.5" width="494" height="130" stroke="#2983A9" stroke-width="4.58333" stroke-miterlimit="8" fill="#3CB4E6"/><text fill="#FFFFFF" font-family="Arial,Arial_MSFontService,sans-serif" font-weight="400" font-size="83" transform="matrix(1 0 0 1 208.269 2113)">Priority 15</text><rect x="147.5" y="1835.5" width="494" height="130" stroke="#2983A9" stroke-width="4.58333" stroke-miterlimit="8" fill="#3CB4E6"/><text fill="#FFFFFF" font-family="Arial,Arial_MSFontService,sans-serif" font-weight="400" font-size="83" transform="matrix(1 0 0 1 208.269 1931)">Priority 14</text><rect x="2252.5" y="1783.5" width="25.9998" height="182" stroke="#338150" stroke-width="4.58333" stroke-miterlimit="8" fill="#49B170"/><rect x="1706.5" y="1783.5" width="26.0001" height="182" stroke="#338150" stroke-width="4.58333" stroke-miterlimit="8" fill="#49B170"/><rect x="2304.5" y="2017.5" width="520" height="130" stroke="#338150" stroke-width="4.58333" stroke-miterlimit="8" fill="#49B170"/><text fill="#FFFFFF" font-family="Arial,Arial_MSFontService,sans-serif" font-weight="400" font-size="83" transform="matrix(1 0 0 1 2355.28 2113)">HAL_Delay</text><rect x="2278.5" y="2017.5" width="26.0002" height="182" stroke="#338150" stroke-width="4.58333" stroke-miterlimit="8" fill="#49B170"/><rect x="2278.5" y="2199.5" width="520" height="130" stroke="#338150" stroke-width="4.58333" stroke-miterlimit="8" fill="#49B170"/><text fill="#FFFFFF" font-family="Arial,Arial_MSFontService,sans-serif" font-weight="400" font-size="73" transform="matrix(1 0 0 1 2317.89 2291)">GPIO_Toggl<tspan font-size="73" x="399.208" y="0">e</tspan></text><rect x="2850.5" y="1835.5" width="519" height="130" stroke="#338150" stroke-width="4.58333" stroke-miterlimit="8" fill="#49B170"/><text fill="#FFFFFF" font-family="Arial,Arial_MSFontService,sans-serif" font-weight="400" font-size="83" transform="matrix(1 0 0 1 2901.01 1931)">HAL_Delay</text><rect x="2824.5" y="1653.5" width="519" height="130" stroke="#338150" stroke-width="4.58333" stroke-miterlimit="8" fill="#49B170"/><text fill="#FFFFFF" font-family="Arial,Arial_MSFontService,sans-serif" font-weight="400" font-size="73" transform="matrix(1 0 0 1 2863.62 1745)">GPIO_Toggl<tspan font-size="73" x="399.208" y="0">e</tspan></text><rect x="3369.5" y="1653.5" width="494" height="130" stroke="#338150" stroke-width="4.58333" stroke-miterlimit="8" fill="#49B170"/><text fill="#FFFFFF" font-family="Arial,Arial_MSFontService,sans-serif" font-weight="400" font-size="83" transform="matrix(1 0 0 1 3510.88 1749)">Sleep</text><rect x="3369.5" y="1783.5" width="26.0002" height="182" stroke="#338150" stroke-width="4.58333" stroke-miterlimit="8" fill="#49B170"/><rect x="2824.5" y="1783.5" width="25.9998" height="182" stroke="#338150" stroke-width="4.58333" stroke-miterlimit="8" fill="#49B170"/><rect x="3395.5" y="2199.5" width="494" height="130" stroke="#338150" stroke-width="4.58333" stroke-miterlimit="8" fill="#49B170"/><text fill="#FFFFFF" font-family="Arial,Arial_MSFontService,sans-serif" font-weight="400" font-size="83" transform="matrix(1 0 0 1 3536.87 2294)">Sleep</text><rect x="3395.5" y="2017.5" width="25.9998" height="182" stroke="#338150" stroke-width="4.58333" stroke-miterlimit="8" fill="#49B170"/></g></svg>