<svg width="1011" height="218" xmlns="http://www.w3.org/2000/svg" xmlns:xlink="http://www.w3.org/1999/xlink" overflow="hidden"><defs><clipPath id="clip0"><rect x="135" y="359" width="1011" height="218"/></clipPath></defs><g clip-path="url(#clip0)" transform="translate(-135 -359)"><rect x="136.5" y="400.5" width="144" height="136" stroke="#650056" stroke-width="1.33333" stroke-miterlimit="8" fill="#8C0078"/><text fill="#FFFFFF" font-family="Arial,Arial_MSFontService,sans-serif" font-weight="400" font-size="24" transform="translate(161.5 477)">CubeMX</text><rect x="352.5" y="400.5" width="144" height="136" stroke="#BC9A00" stroke-width="1.33333" stroke-miterlimit="8" fill="#FFD200"/><text fill="#FFFFFF" font-family="Arial,Arial_MSFontService,sans-serif" font-weight="400" font-size="24" transform="translate(375.5 477)">CubeIDE</text><rect x="568" y="360" width="392" height="216" fill="#3CB4E6" fill-opacity="0.501961"/><rect x="1000.5" y="432.5" width="144" height="64" stroke="#338150" stroke-width="1.33333" stroke-miterlimit="8" fill="#49B170"/><text fill="#FFFFFF" font-family="Arial,Arial_MSFontService,sans-serif" font-weight="400" font-size="24" transform="translate(1048.83 473)">LED</text><rect x="784.5" y="440.5" width="144" height="48" stroke="#338150" stroke-width="1.33333" stroke-miterlimit="8" fill="#49B170"/><text fill="#FFFFFF" font-family="Arial,Arial_MSFontService,sans-serif" font-weight="400" font-size="24" transform="translate(803.497 473)">TogglePin</text><rect x="784" y="512" width="144" height="48" fill="#03234B"/><text fill="#FFFFFF" font-family="Arial,Arial_MSFontService,sans-serif" font-weight="400" font-size="24" transform="translate(825.5 545)">Delay</text><path d="M858 488 858 502 854 502 854 488ZM862 500 856 512 850 500Z" fill="#03234B"/><path d="M928 462 990 462C991.105 462 992 462.896 992 464 992 465.105 991.105 466 990 466L928 466C926.895 466 926 465.105 926 464 926 462.895 926.895 462 928 462ZM988 458 1000 464 988 470Z" fill="#03234B"/><path d="M0 0 32 0.000104987" stroke="#03234B" stroke-width="4" stroke-linecap="round" stroke-miterlimit="8" fill="none" fill-rule="evenodd" transform="matrix(-1 0 0 1 784 536)"/><path d="M0 0 0.000104987 120" stroke="#03234B" stroke-width="4" stroke-linecap="round" stroke-miterlimit="8" fill="none" fill-rule="evenodd" transform="matrix(1 0 0 -1 752 536)"/><path d="M858 416 858 430C858 431.105 857.105 432 856 432 854.896 432 854 431.105 854 430L854 416C854 414.895 854.895 414 856 414 857.105 414 858 414.895 858 416ZM862 428 856 440 850 428Z" fill="#03234B"/><path d="M752 416 856 416" stroke="#03234B" stroke-width="4" stroke-linecap="round" stroke-miterlimit="8" fill="none" fill-rule="evenodd"/><rect x="568.5" y="360.5" width="144" height="72" stroke="#2983A9" stroke-width="1.33333" stroke-miterlimit="8" fill="#3CB4E6"/><text fill="#FFFFFF" font-family="Arial,Arial_MSFontService,sans-serif" font-weight="400" font-size="24" transform="translate(601.5 405)">STM32</text><path d="M280 466 342 466 342 470 280 470ZM340 462 352 468 340 474Z" fill="#03234B"/><path d="M496 466 558 466 558 470 496 470ZM556 462 568 468 556 474Z" fill="#03234B"/></g></svg>