<svg width="4357" height="874" xmlns="http://www.w3.org/2000/svg" xmlns:xlink="http://www.w3.org/1999/xlink" overflow="hidden"><defs><clipPath id="clip0"><rect x="43" y="1489" width="4357" height="874"/></clipPath></defs><g clip-path="url(#clip0)" transform="translate(-43 -1489)"><rect x="43" y="1497" width="4357" height="858" fill="#49B170" fill-opacity="0.501961"/><text fill="#FFFFFF" font-family="Arial,Arial_MSFontService,sans-serif" font-weight="400" font-size="83" transform="matrix(1 0 0 1 2067.99 1594)">Running</text><rect x="1628" y="2017" width="2755" height="130" fill="#49B170" fill-opacity="0.501961"/><rect x="1628" y="1835" width="2755" height="130" fill="#49B170" fill-opacity="0.501961"/><path d="M1109.5 1933 1511.5 1933 1511.5 1887.5 1602.5 1978.5 1511.5 2069.5 1511.5 2024 1109.5 2024Z" stroke="#338150" stroke-width="4.58333" stroke-miterlimit="8" fill="#49B170" fill-rule="evenodd"/><text fill="#FFFFFF" font-family="Arial,Arial_MSFontService,sans-serif" font-weight="400" font-size="83" transform="matrix(1 0 0 1 1151.64 2009)">Execution</text><rect x="563.5" y="2017.5" width="520" height="130" stroke="#338150" stroke-width="4.58333" stroke-miterlimit="8" fill="#49B170"/><text fill="#FFFFFF" font-family="Arial,Arial_MSFontService,sans-serif" font-weight="400" font-size="83" transform="matrix(1 0 0 1 627.89 2113)">my_thread</text><rect x="563.5" y="1835.5" width="520" height="130" stroke="#338150" stroke-width="4.58333" stroke-miterlimit="8" fill="#49B170"/><text fill="#FFFFFF" font-family="Arial,Arial_MSFontService,sans-serif" font-weight="400" font-size="83" transform="matrix(1 0 0 1 604.973 1931)">my_thread2</text><rect x="1654.5" y="1835.5" width="520" height="130" stroke="#338150" stroke-width="4.58333" stroke-miterlimit="8" fill="#49B170"/><text fill="#FFFFFF" font-family="Arial,Arial_MSFontService,sans-serif" font-weight="400" font-size="83" transform="matrix(1 0 0 1 1705.6 1931)">HAL_Delay</text><rect x="1628.5" y="1653.5" width="520" height="130" stroke="#338150" stroke-width="4.58333" stroke-miterlimit="8" fill="#49B170"/><text fill="#FFFFFF" font-family="Arial,Arial_MSFontService,sans-serif" font-weight="400" font-size="73" transform="matrix(1 0 0 1 1668.21 1745)">GPIO_Toggl<tspan font-size="73" x="399.208" y="0">e</tspan></text><rect x="2174.5" y="1653.5" width="494" height="130" stroke="#338150" stroke-width="4.58333" stroke-miterlimit="8" fill="#49B170"/><text fill="#FFFFFF" font-family="Arial,Arial_MSFontService,sans-serif" font-weight="400" font-size="83" transform="matrix(1 0 0 1 2315.47 1749)">Sleep</text><rect x="69.4999" y="2017.5" width="494" height="130" stroke="#2983A9" stroke-width="4.58333" stroke-miterlimit="8" fill="#3CB4E6"/><text fill="#FFFFFF" font-family="Arial,Arial_MSFontService,sans-serif" font-weight="400" font-size="83" transform="matrix(1 0 0 1 130.307 2113)">Priority 15</text><rect x="69.4999" y="1835.5" width="494" height="130" stroke="#2983A9" stroke-width="4.58333" stroke-miterlimit="8" fill="#3CB4E6"/><text fill="#FFFFFF" font-family="Arial,Arial_MSFontService,sans-serif" font-weight="400" font-size="83" transform="matrix(1 0 0 1 130.307 1931)">Priority 14</text><rect x="2174.5" y="1783.5" width="25.9998" height="182" stroke="#338150" stroke-width="4.58333" stroke-miterlimit="8" fill="#49B170"/><rect x="1628.5" y="1783.5" width="26.0001" height="182" stroke="#338150" stroke-width="4.58333" stroke-miterlimit="8" fill="#49B170"/><rect x="2226.5" y="2017.5" width="520" height="130" stroke="#338150" stroke-width="4.58333" stroke-miterlimit="8" fill="#49B170"/><text fill="#FFFFFF" font-family="Arial,Arial_MSFontService,sans-serif" font-weight="400" font-size="83" transform="matrix(1 0 0 1 2277.32 2113)">HAL_Delay</text><rect x="2200.5" y="2017.5" width="26.0002" height="182" stroke="#338150" stroke-width="4.58333" stroke-miterlimit="8" fill="#49B170"/><rect x="2200.5" y="2199.5" width="520" height="130" stroke="#338150" stroke-width="4.58333" stroke-miterlimit="8" fill="#49B170"/><text fill="#FFFFFF" font-family="Arial,Arial_MSFontService,sans-serif" font-weight="400" font-size="73" transform="matrix(1 0 0 1 2239.93 2291)">GPIO_Toggl<tspan font-size="73" x="399.208" y="0">e</tspan></text><rect x="2798.5" y="1835.5" width="519" height="130" stroke="#338150" stroke-width="4.58333" stroke-miterlimit="8" fill="#49B170"/><text fill="#FFFFFF" font-family="Arial,Arial_MSFontService,sans-serif" font-weight="400" font-size="83" transform="matrix(1 0 0 1 2849.03 1931)">HAL_Delay</text><rect x="2772.5" y="1653.5" width="519" height="130" stroke="#338150" stroke-width="4.58333" stroke-miterlimit="8" fill="#49B170"/><text fill="#FFFFFF" font-family="Arial,Arial_MSFontService,sans-serif" font-weight="400" font-size="73" transform="matrix(1 0 0 1 2811.65 1745)">GPIO_Toggl<tspan font-size="73" x="399.208" y="0">e</tspan></text><rect x="3317.5" y="1653.5" width="494" height="130" stroke="#338150" stroke-width="4.58333" stroke-miterlimit="8" fill="#49B170"/><text fill="#FFFFFF" font-family="Arial,Arial_MSFontService,sans-serif" font-weight="400" font-size="83" transform="matrix(1 0 0 1 3458.91 1749)">Sleep</text><rect x="3317.5" y="1783.5" width="26.0002" height="182" stroke="#338150" stroke-width="4.58333" stroke-miterlimit="8" fill="#49B170"/><rect x="2772.5" y="1783.5" width="26.0002" height="182" stroke="#338150" stroke-width="4.58333" stroke-miterlimit="8" fill="#49B170"/><rect x="2746.5" y="2199.5" width="493" height="130" stroke="#338150" stroke-width="4.58333" stroke-miterlimit="8" fill="#49B170"/><text fill="#FFFFFF" font-family="Arial,Arial_MSFontService,sans-serif" font-weight="400" font-size="83" transform="matrix(1 0 0 1 2887.19 2294)">Sleep</text><rect x="2746.5" y="2017.5" width="25.9998" height="182" stroke="#338150" stroke-width="4.58333" stroke-miterlimit="8" fill="#49B170"/><rect x="3369.5" y="2017.5" width="520" height="130" stroke="#338150" stroke-width="4.58333" stroke-miterlimit="8" fill="#49B170"/><text fill="#FFFFFF" font-family="Arial,Arial_MSFontService,sans-serif" font-weight="400" font-size="83" transform="matrix(1 0 0 1 3420.75 2113)">HAL_Delay</text><rect x="3343.5" y="2017.5" width="25.9998" height="182" stroke="#338150" stroke-width="4.58333" stroke-miterlimit="8" fill="#49B170"/><rect x="3343.5" y="2199.5" width="520" height="130" stroke="#338150" stroke-width="4.58333" stroke-miterlimit="8" fill="#49B170"/><text fill="#FFFFFF" font-family="Arial,Arial_MSFontService,sans-serif" font-weight="400" font-size="73" transform="matrix(1 0 0 1 3383.36 2291)">GPIO_Toggl<tspan font-size="73" x="399.208" y="0">e</tspan></text><rect x="3889.5" y="2199.5" width="494" height="130" stroke="#338150" stroke-width="4.58333" stroke-miterlimit="8" fill="#49B170"/><text fill="#FFFFFF" font-family="Arial,Arial_MSFontService,sans-serif" font-weight="400" font-size="83" transform="matrix(1 0 0 1 4030.62 2294)">Sleep</text><rect x="3889.5" y="2017.5" width="26.0002" height="182" stroke="#338150" stroke-width="4.58333" stroke-miterlimit="8" fill="#49B170"/></g></svg>