<svg width="909" height="397" xmlns="http://www.w3.org/2000/svg" xmlns:xlink="http://www.w3.org/1999/xlink" overflow="hidden"><defs><clipPath id="clip0"><rect x="110" y="54" width="909" height="397"/></clipPath></defs><g clip-path="url(#clip0)" transform="translate(-110 -54)"><rect x="111.5" y="95.5001" width="302" height="38" stroke="#2983A9" stroke-width="1.33333" stroke-miterlimit="8" fill="#3CB4E6"/><text fill="#FFFFFF" font-family="Arial,Arial_MSFontService,sans-serif" font-weight="400" font-size="24" transform="translate(154.005 123)">tx_byte_pool_create</text><rect x="111.5" y="247.5" width="302" height="37" stroke="#A9005B" stroke-width="1.33333" stroke-miterlimit="8" fill="#E6007E"/><text fill="#FFFFFF" font-family="Arial,Arial_MSFontService,sans-serif" font-weight="400" font-size="24" transform="translate(148.005 274)">tx_byte_pool_release</text><path d="M413 112.833 633.13 112.833 633.13 115.167 413 115.167ZM631.797 110 639.797 114 631.797 118Z" fill="#03234B"/><rect x="716" y="58" width="302" height="393" fill="#03234B" fill-opacity="0.501961"/><text fill="#FFFFFF" font-family="Arial,Arial_MSFontService,sans-serif" font-weight="400" font-size="24" transform="translate(840.13 85)">RAM</text><rect x="731" y="95" width="272" height="341" fill="#03234B" fill-opacity="0.501961"/><text fill="#FFFFFF" font-family="Arial,Arial_MSFontService,sans-serif" font-weight="400" font-size="24" transform="translate(814.797 123)">byte_poo<tspan font-size="24" x="98.6666" y="0">l</tspan></text><rect x="746" y="141" width="242" height="279" fill="#FFD200"/><text fill="#FFFFFF" font-family="Arial,Arial_MSFontService,sans-serif" font-weight="400" font-size="24" transform="translate(836.347 169)">buffer</text><rect x="489.5" y="58.5001" width="151" height="37" stroke="#BC9A00" stroke-width="1.33333" stroke-miterlimit="8" fill="#FFD200"/><text fill="#FFFFFF" font-family="Arial,Arial_MSFontService,sans-serif" font-weight="400" font-size="24" transform="translate(533.951 85)">buffer</text><path d="M565.167 95 565.167 103.453 562.833 103.453 562.833 95ZM568 102.12 564 110.12 560 102.12Z" fill="#03234B"/><rect x="489.5" y="141.5" width="151" height="38" stroke="#650056" stroke-width="1.33333" stroke-miterlimit="8" fill="#8C0078"/><text fill="#FFFFFF" font-family="Arial,Arial_MSFontService,sans-serif" font-weight="400" font-size="24" transform="translate(527.734 168)">pointe<tspan font-size="24" x="65.3334" y="0">r</tspan></text><rect x="746.5" y="186.5" width="242" height="38" stroke="#BC9A00" stroke-width="1.33333" stroke-miterlimit="8" fill="#FFD200"/><text fill="#FFFFFF" font-family="Arial,Arial_MSFontService,sans-serif" font-weight="400" font-size="24" transform="translate(846.13 214)">free</text><path d="M413 264.833 633.13 264.833 633.13 267.167 413 267.167ZM631.797 262 639.797 266 631.797 270Z" fill="#03234B"/><path d="M0-1.16667 38.9661-1.16667 38.9661 95.3919 36.6328 95.3919 36.6328 0 37.7995 1.16667 0 1.16667ZM41.7995 94.0586 37.7995 102.059 33.7995 94.0586Z" fill="#03234B" transform="matrix(-1 1.22465e-16 1.22465e-16 1 488.799 160)"/><path d="M640.283 158.868 647.074 160.566 646.508 162.83 639.717 161.132ZM649.338 161.132 656.129 162.83 655.563 165.093 648.772 163.395ZM658.392 163.395 665.183 165.093 664.617 167.357 657.826 165.659ZM667.447 165.659 674.238 167.357 673.672 169.621 666.881 167.923ZM676.502 167.923 683.293 169.621 682.727 171.884 675.936 170.186ZM685.556 170.186 692.347 171.884 691.781 174.148 684.99 172.45ZM694.611 172.45 701.402 174.148 700.836 176.412 694.045 174.714ZM703.666 174.714 710.457 176.412 709.891 178.675 703.1 176.977ZM712.72 176.977 719.511 178.675 718.945 180.939 712.154 179.241ZM721.775 179.241 728.566 180.939 728 183.203 721.209 181.505ZM730.83 181.505 737.621 183.203 737.055 185.466 730.264 183.768ZM739.048 180.639 745.839 186.46 737.107 188.4Z" fill="#03234B"/><rect x="746.5" y="224.5" width="242" height="76" stroke="#2983A9" stroke-width="1.33333" stroke-miterlimit="8" fill="#3CB4E6"/><text fill="#FFFFFF" font-family="Arial,Arial_MSFontService,sans-serif" font-weight="400" font-size="24" transform="translate(818.797 270)">allocated</text></g></svg>