<svg width="736" height="414" xmlns="http://www.w3.org/2000/svg" xmlns:xlink="http://www.w3.org/1999/xlink" overflow="hidden"><defs><clipPath id="clip0"><rect x="35" y="244" width="736" height="414"/></clipPath></defs><g clip-path="url(#clip0)" transform="translate(-35 -244)"><rect x="35" y="337" width="681" height="167" fill="#3CB4E6" fill-opacity="0.501961"/><text fill="#FFFFFF" font-family="Arial,Arial_MSFontService,sans-serif" font-weight="400" font-size="24" transform="translate(321.404 365)">Scheduler</text><rect x="35" y="549" width="681" height="91" fill="#49B170" fill-opacity="0.501961"/><text fill="#FFFFFF" font-family="Arial,Arial_MSFontService,sans-serif" font-weight="400" font-size="24" transform="translate(330.737 577)">Running</text><path d="M43.5001 592.75 160 592.75 160 579.5 186.5 606 160 632.5 160 619.25 43.5001 619.25Z" stroke="#338150" stroke-width="1.33333" stroke-miterlimit="8" fill="#49B170" fill-rule="evenodd"/><text fill="#FFFFFF" font-family="Arial,Arial_MSFontService,sans-serif" font-weight="400" font-size="24" transform="translate(55.3057 614)">Execution</text><rect x="50" y="375" width="650" height="121" fill="#03234B" fill-opacity="0.501961"/><text fill="#FFFFFF" font-family="Arial,Arial_MSFontService,sans-serif" font-weight="400" font-size="24" transform="translate(313.404 403)">Semaphore</text><path d="M232 625 232 655.24" stroke="#03234B" stroke-width="4" stroke-linecap="round" stroke-miterlimit="8" fill="none" fill-rule="evenodd"/><path d="M232 655 766.396 655" stroke="#03234B" stroke-width="4" stroke-linecap="round" stroke-miterlimit="8" fill="none" fill-rule="evenodd"/><path d="M0 0 0.000104987 230.577" stroke="#03234B" stroke-width="4" stroke-linecap="round" stroke-miterlimit="8" fill="none" fill-rule="evenodd" transform="matrix(1 0 0 -1 769 654.577)"/><path d="M0 0 536.753 0.000104987" stroke="#03234B" stroke-width="4" stroke-linecap="round" stroke-miterlimit="8" fill="none" fill-rule="evenodd" transform="matrix(-1 0 0 1 768.753 413)"/><path d="M400 413 400 440.799C400 441.904 399.105 442.799 398 442.799 396.896 442.799 396 441.904 396 440.799L396 413C396 411.895 396.895 411 398 411 399.105 411 400 411.895 400 413ZM404 438.799 398 450.799 392 438.799Z" fill="#03234B"/><rect x="65.5001" y="451.5" width="121" height="38" stroke="#021735" stroke-width="1.33333" stroke-miterlimit="8" fill="#03234B"/><text fill="#FFFFFF" font-family="Arial,Arial_MSFontService,sans-serif" font-weight="400" font-size="24" transform="translate(111.26 478)">S1</text><rect x="587.5" y="413.5" width="182" height="23" stroke="#021735" stroke-width="1.33333" stroke-miterlimit="8" fill="#03234B"/><text fill="#FFFFFF" font-family="Arial,Arial_MSFontService,sans-serif" font-weight="400" font-size="16" transform="translate(611.799 431)">tx_semaphore_get</text><path d="M317 413 317 440.799C317 441.904 316.105 442.799 315 442.799 313.896 442.799 313 441.904 313 440.799L313 413C313 411.895 313.895 411 315 411 316.105 411 317 411.895 317 413ZM321 438.799 315 450.799 309 438.799Z" fill="#03234B"/><path d="M315 625 315 655.24" stroke="#03234B" stroke-width="4" stroke-linecap="round" stroke-miterlimit="8" fill="none" fill-rule="evenodd"/><path d="M398 625 398 655.24" stroke="#03234B" stroke-width="4" stroke-linecap="round" stroke-miterlimit="8" fill="none" fill-rule="evenodd"/><path d="M234 413 234 440.799C234 441.904 233.105 442.799 232 442.799 230.896 442.799 230 441.904 230 440.799L230 413C230 411.895 230.895 411 232 411 233.105 411 234 411.895 234 413ZM238 438.799 232 450.799 226 438.799Z" fill="#03234B"/><rect x="35" y="247" width="681" height="83" fill="#E6007E" fill-opacity="0.501961"/><text fill="#FFFFFF" font-family="Arial,Arial_MSFontService,sans-serif" font-weight="400" font-size="24" transform="translate(328.07 274)">Suspend</text><path d="M415 489 415 577.279C415 578.383 414.105 579.279 413 579.279 411.896 579.279 411 578.383 411 577.279L411 489C411 487.895 411.895 487 413 487 414.105 487 415 487.895 415 489ZM419 575.279 413 587.279 407 575.279Z" fill="#8C0078"/><path d="M2-1.63381e-06 2.0001 118.518C2.0001 119.623 1.10467 120.518 9.84517e-05 120.518-1.10447 120.518-1.9999 119.623-1.9999 118.518L-2 1.63381e-06C-2-1.10457-1.10457-2-1.63381e-06-2 1.10457-2 2-1.10457 2-1.63381e-06ZM6.00009 116.518 0.000104987 128.518-5.9999 116.518Z" fill="#FFD200" transform="matrix(1 0 0 -1 481 450.518)"/><path d="M551 489 551 577.279C551 578.383 550.105 579.279 549 579.279 547.896 579.279 547 578.383 547 577.279L547 489C547 487.895 547.895 487 549 487 550.105 487 551 487.895 551 489ZM555 575.279 549 587.279 543 575.279Z" fill="#03234B"/><path d="M249 489 249 577.279C249 578.383 248.105 579.279 247 579.279 245.896 579.279 245 578.383 245 577.279L245 489C245 487.895 245.895 487 247 487 248.105 487 249 487.895 249 489ZM253 575.279 247 587.279 241 575.279Z" fill="#03234B"/><path d="M332 489 332 577.279C332 578.383 331.105 579.279 330 579.279 328.896 579.279 328 578.383 328 577.279L328 489C328 487.895 328.895 487 330 487 331.105 487 332 487.895 332 489ZM336 575.279 330 587.279 324 575.279Z" fill="#03234B"/><rect x="527.5" y="451.5" width="75" height="38" stroke="#021735" stroke-width="1.33333" stroke-miterlimit="8" fill="#03234B"/><text fill="#FFFFFF" font-family="Arial,Arial_MSFontService,sans-serif" font-weight="400" font-size="24" transform="translate(557.734 478)">1</text><rect x="277.5" y="451.5" width="76" height="38" stroke="#021735" stroke-width="1.33333" stroke-miterlimit="8" fill="#03234B"/><text fill="#FFFFFF" font-family="Arial,Arial_MSFontService,sans-serif" font-weight="400" font-size="24" transform="translate(308.258 478)">1</text><rect x="194.5" y="451.5" width="76" height="38" stroke="#021735" stroke-width="1.33333" stroke-miterlimit="8" fill="#03234B"/><text fill="#FFFFFF" font-family="Arial,Arial_MSFontService,sans-serif" font-weight="400" font-size="24" transform="translate(225.099 478)">2</text><rect x="194.5" y="587.5" width="76" height="38" stroke="#338150" stroke-width="1.33333" stroke-miterlimit="8" fill="#49B170"/><text fill="#FFFFFF" font-family="Arial,Arial_MSFontService,sans-serif" font-weight="400" font-size="24" transform="translate(217.766 614)">T1</text><rect x="360.5" y="587.5" width="76" height="38" stroke="#338150" stroke-width="1.33333" stroke-miterlimit="8" fill="#49B170"/><text fill="#FFFFFF" font-family="Arial,Arial_MSFontService,sans-serif" font-weight="400" font-size="24" transform="translate(384.083 614)">T1</text><rect x="443.5" y="587.5" width="76" height="38" stroke="#338150" stroke-width="1.33333" stroke-miterlimit="8" fill="#49B170"/><text fill="#FFFFFF" font-family="Arial,Arial_MSFontService,sans-serif" font-weight="400" font-size="24" transform="translate(461.909 614)">Idle</text><rect x="610.5" y="587.5" width="75" height="38" stroke="#338150" stroke-width="1.33333" stroke-miterlimit="8" fill="#49B170"/><text fill="#FFFFFF" font-family="Arial,Arial_MSFontService,sans-serif" font-weight="400" font-size="24" transform="translate(633.56 614)">T1</text><rect x="277.5" y="587.5" width="76" height="38" stroke="#338150" stroke-width="1.33333" stroke-miterlimit="8" fill="#49B170"/><text fill="#FFFFFF" font-family="Arial,Arial_MSFontService,sans-serif" font-weight="400" font-size="24" transform="translate(300.924 614)">T1</text><rect x="527.5" y="587.5" width="75" height="38" stroke="#338150" stroke-width="1.33333" stroke-miterlimit="8" fill="#49B170"/><text fill="#FFFFFF" font-family="Arial,Arial_MSFontService,sans-serif" font-weight="400" font-size="24" transform="translate(550.401 614)">T1</text><rect x="360" y="451" width="76" height="38" stroke="#03234B" stroke-width="4" stroke-linejoin="round" stroke-miterlimit="10" stroke-dasharray="4 4" fill="#03234B" fill-opacity="0.501961"/><text fill="#FFFFFF" font-family="Arial,Arial_MSFontService,sans-serif" font-weight="400" font-size="24" transform="translate(391.417 478)">0</text><rect x="443.5" y="284.5" width="76" height="38" stroke="#650056" stroke-width="1.33333" stroke-miterlimit="8" fill="#8C0078"/><text fill="#FFFFFF" font-family="Arial,Arial_MSFontService,sans-serif" font-weight="400" font-size="24" transform="translate(467.242 312)">T1</text><rect x="610" y="451" width="75" height="38" stroke="#03234B" stroke-width="4" stroke-linejoin="round" stroke-miterlimit="10" stroke-dasharray="4 4" fill="#03234B" fill-opacity="0.501961"/><text fill="#FFFFFF" font-family="Arial,Arial_MSFontService,sans-serif" font-weight="400" font-size="24" transform="translate(640.893 478)">0</text><rect x="443.5" y="451.5" width="76" height="38" stroke="#021735" stroke-width="1.33333" stroke-miterlimit="8" fill="#03234B"/><text fill="#FFFFFF" font-family="Arial,Arial_MSFontService,sans-serif" font-weight="400" font-size="24" transform="translate(474.576 478)">1</text></g></svg>