<svg width="456" height="431" xmlns="http://www.w3.org/2000/svg" xmlns:xlink="http://www.w3.org/1999/xlink" overflow="hidden"><defs><clipPath id="clip0"><rect x="34" y="57" width="456" height="431"/></clipPath></defs><g clip-path="url(#clip0)" transform="translate(-34 -57)"><rect x="186" y="58" width="152" height="45" fill="#03234B"/><text fill="#FFFFFF" font-family="Arial,Arial_MSFontService,sans-serif" font-weight="400" font-size="24" transform="translate(229.339 89)">Mutex</text><rect x="35.5001" y="133.5" width="151" height="46" stroke="#338150" stroke-width="1.33333" stroke-miterlimit="8" fill="#49B170"/><text fill="#FFFFFF" font-family="Arial,Arial_MSFontService,sans-serif" font-weight="400" font-size="24" transform="translate(62.8073 164)">Thread 1</text><rect x="35.5001" y="209.5" width="151" height="45" stroke="#650056" stroke-width="1.33333" stroke-miterlimit="8" fill="#8C0078"/><text fill="#FFFFFF" font-family="Arial,Arial_MSFontService,sans-serif" font-weight="400" font-size="24" transform="translate(62.8073 240)">Thread 2</text><rect x="338.5" y="171.5" width="151" height="45" stroke="#2983A9" stroke-width="1.33333" stroke-miterlimit="8" fill="#3CB4E6"/><text fill="#FFFFFF" font-family="Arial,Arial_MSFontService,sans-serif" font-weight="400" font-size="24" transform="translate(361.87 202)">Resource</text><path d="M186 156 223.799 156" stroke="#49B170" stroke-width="4" stroke-linecap="round" stroke-miterlimit="8" fill="none" fill-rule="evenodd"/><path d="M186 231 223.799 231" stroke="#8C0078" stroke-width="4" stroke-linecap="round" stroke-miterlimit="8" fill="none" fill-rule="evenodd"/><path d="M224 156 299.599 193.799" stroke="#49B170" stroke-width="4" stroke-linecap="round" stroke-miterlimit="8" fill="none" fill-rule="evenodd"/><path d="M0 0 75.5989 37.7995" stroke="#8C0078" stroke-width="4" stroke-linecap="round" stroke-miterlimit="8" stroke-dasharray="0 8" fill="none" fill-rule="evenodd" transform="matrix(-1 0 0 1 299.599 194)"/><path d="M300 194 337.799 194" stroke="#49B170" stroke-width="4" stroke-linecap="round" stroke-miterlimit="8" fill="none" fill-rule="evenodd"/><path d="M262 103 262 178.599" stroke="#03234B" stroke-width="4" stroke-linecap="round" stroke-miterlimit="8" stroke-dasharray="0 8" fill="none" fill-rule="evenodd"/><rect x="186" y="284" width="152" height="46" fill="#03234B"/><text fill="#FFFFFF" font-family="Arial,Arial_MSFontService,sans-serif" font-weight="400" font-size="24" transform="translate(229.339 316)">Mutex</text><rect x="35.5001" y="360.5" width="151" height="45" stroke="#338150" stroke-width="1.33333" stroke-miterlimit="8" fill="#49B170"/><text fill="#FFFFFF" font-family="Arial,Arial_MSFontService,sans-serif" font-weight="400" font-size="24" transform="translate(62.8073 391)">Thread 1</text><rect x="35.5001" y="436.5" width="151" height="45" stroke="#650056" stroke-width="1.33333" stroke-miterlimit="8" fill="#8C0078"/><text fill="#FFFFFF" font-family="Arial,Arial_MSFontService,sans-serif" font-weight="400" font-size="24" transform="translate(62.8073 467)">Thread 2</text><rect x="338.5" y="398.5" width="151" height="45" stroke="#2983A9" stroke-width="1.33333" stroke-miterlimit="8" fill="#3CB4E6"/><text fill="#FFFFFF" font-family="Arial,Arial_MSFontService,sans-serif" font-weight="400" font-size="24" transform="translate(361.87 429)">Resource</text><path d="M186 383 223.799 383" stroke="#8C0078" stroke-width="4" stroke-linecap="round" stroke-miterlimit="8" fill="none" fill-rule="evenodd"/><path d="M186 458 223.799 458" stroke="#49B170" stroke-width="4" stroke-linecap="round" stroke-miterlimit="8" fill="none" fill-rule="evenodd"/><path d="M224 383 299.599 420.799" stroke="#8C0078" stroke-width="4" stroke-linecap="round" stroke-miterlimit="8" stroke-dasharray="0 8" fill="none" fill-rule="evenodd"/><path d="M0 0 75.5989 37.7995" stroke="#49B170" stroke-width="4" stroke-linecap="round" stroke-miterlimit="8" fill="none" fill-rule="evenodd" transform="matrix(-1 0 0 1 299.599 420)"/><path d="M300 420 337.799 420" stroke="#49B170" stroke-width="4" stroke-linecap="round" stroke-miterlimit="8" fill="none" fill-rule="evenodd"/><path d="M262 330 262 435.839" stroke="#03234B" stroke-width="4" stroke-linecap="round" stroke-miterlimit="8" stroke-dasharray="0 8" fill="none" fill-rule="evenodd"/></g></svg>