<svg width="699" height="483" xmlns="http://www.w3.org/2000/svg" xmlns:xlink="http://www.w3.org/1999/xlink" overflow="hidden"><defs><clipPath id="clip0"><rect x="35" y="175" width="699" height="483"/></clipPath></defs><g clip-path="url(#clip0)" transform="translate(-35 -175)"><rect x="35" y="549" width="681" height="91" fill="#49B170" fill-opacity="0.501961"/><text fill="#FFFFFF" font-family="Arial,Arial_MSFontService,sans-serif" font-weight="400" font-size="24" transform="translate(330.737 577)">Running</text><path d="M43.5001 592.75 160 592.75 160 579.5 186.5 606 160 632.5 160 619.25 43.5001 619.25Z" stroke="#338150" stroke-width="1.33333" stroke-miterlimit="8" fill="#49B170" fill-rule="evenodd"/><text fill="#FFFFFF" font-family="Arial,Arial_MSFontService,sans-serif" font-weight="400" font-size="24" transform="translate(55.3057 614)">Execution</text><path d="M232 625 232 655.24" stroke="#03234B" stroke-width="4" stroke-linecap="round" stroke-miterlimit="8" fill="none" fill-rule="evenodd"/><path d="M232 655 730.953 655" stroke="#03234B" stroke-width="4" stroke-linecap="round" stroke-miterlimit="8" fill="none" fill-rule="evenodd"/><rect x="35" y="179" width="681" height="325" fill="#3CB4E6" fill-opacity="0.501961"/><text fill="#FFFFFF" font-family="Arial,Arial_MSFontService,sans-serif" font-weight="400" font-size="24" transform="translate(321.404 206)">Scheduler</text><rect x="50" y="322" width="650" height="174" fill="#FFD200" fill-opacity="0.501961"/><text fill="#FFFFFF" font-family="Arial,Arial_MSFontService,sans-serif" font-weight="400" font-size="24" transform="translate(340.737 350)">Ready</text><rect x="65.5001" y="451.5" width="121" height="38" stroke="#BC9A00" stroke-width="1.33333" stroke-miterlimit="8" fill="#FFD200"/><text fill="#FFFFFF" font-family="Arial,Arial_MSFontService,sans-serif" font-weight="400" font-size="19" transform="translate(106.26 476)">P-<tspan font-size="19" x="18.6667" y="0">15</tspan></text><rect x="277.5" y="451.5" width="76" height="38" stroke="#BC9A00" stroke-width="1.33333" stroke-miterlimit="8" fill="#FFD200"/><text fill="#FFFFFF" font-family="Arial,Arial_MSFontService,sans-serif" font-weight="400" font-size="24" transform="translate(300.924 478)">T2</text><rect x="50" y="224" width="650" height="91" fill="#03234B" fill-opacity="0.501961"/><text fill="#FFFFFF" font-family="Arial,Arial_MSFontService,sans-serif" font-weight="400" font-size="24" transform="translate(342.737 252)">Mutex</text><path d="M0 0 483.833 0.000104987" stroke="#03234B" stroke-width="4" stroke-linecap="round" stroke-miterlimit="8" fill="none" fill-rule="evenodd" transform="matrix(-1 0 0 1 730.833 224)"/><path d="M249 224 249 259.359C249 260.464 248.105 261.359 247 261.359 245.896 261.359 245 260.464 245 259.359L245 224C245 222.895 245.895 222 247 222 248.105 222 249 222.895 249 224ZM253 257.359 247 269.359 241 257.359Z" fill="#03234B"/><rect x="65.5001" y="269.5" width="121" height="38" stroke="#021735" stroke-width="1.33333" stroke-miterlimit="8" fill="#03234B"/><text fill="#FFFFFF" font-family="Arial,Arial_MSFontService,sans-serif" font-weight="400" font-size="24" transform="translate(115.927 297)">M</text><rect x="194.5" y="269.5" width="76" height="38" stroke="#021735" stroke-width="1.33333" stroke-miterlimit="8" fill="#03234B"/><text fill="#FFFFFF" font-family="Arial,Arial_MSFontService,sans-serif" font-weight="400" font-size="24" transform="translate(225.099 297)">1</text><rect x="549.5" y="224.5" width="182" height="23" stroke="#021735" stroke-width="1.33333" stroke-miterlimit="8" fill="#03234B"/><text fill="#FFFFFF" font-family="Arial,Arial_MSFontService,sans-serif" font-weight="400" font-size="16" transform="translate(592.083 242)">tx_mutex_get</text><rect x="277" y="269" width="76" height="38" stroke="#03234B" stroke-width="4" stroke-linejoin="round" stroke-miterlimit="10" stroke-dasharray="4 4" fill="#03234B" fill-opacity="0.501961"/><text fill="#FFFFFF" font-family="Arial,Arial_MSFontService,sans-serif" font-weight="400" font-size="24" transform="translate(292.924 297)">(T2)</text><path d="M731 224 731 654.914" stroke="#03234B" stroke-width="4" stroke-linecap="round" stroke-miterlimit="8" fill="none" fill-rule="evenodd"/><rect x="194.5" y="587.5" width="76" height="38" stroke="#338150" stroke-width="1.33333" stroke-miterlimit="8" fill="#49B170"/><text fill="#FFFFFF" font-family="Arial,Arial_MSFontService,sans-serif" font-weight="400" font-size="24" transform="translate(217.766 614)">T2</text><rect x="360.5" y="587.5" width="76" height="38" stroke="#338150" stroke-width="1.33333" stroke-miterlimit="8" fill="#49B170"/><text fill="#FFFFFF" font-family="Arial,Arial_MSFontService,sans-serif" font-weight="400" font-size="24" transform="translate(384.083 614)">T1</text><rect x="527.5" y="587.5" width="75" height="38" stroke="#338150" stroke-width="1.33333" stroke-miterlimit="8" fill="#49B170"/><text fill="#FFFFFF" font-family="Arial,Arial_MSFontService,sans-serif" font-weight="400" font-size="24" transform="translate(550.401 614)">T3</text><rect x="610.5" y="587.5" width="75" height="38" stroke="#338150" stroke-width="1.33333" stroke-miterlimit="8" fill="#49B170"/><text fill="#FFFFFF" font-family="Arial,Arial_MSFontService,sans-serif" font-weight="400" font-size="24" transform="translate(633.56 614)">T3</text><rect x="277.5" y="587.5" width="76" height="38" stroke="#338150" stroke-width="1.33333" stroke-miterlimit="8" fill="#49B170"/><text fill="#FFFFFF" font-family="Arial,Arial_MSFontService,sans-serif" font-weight="400" font-size="24" transform="translate(300.924 614)">T3</text><rect x="443.5" y="587.5" width="76" height="38" stroke="#338150" stroke-width="1.33333" stroke-miterlimit="8" fill="#49B170"/><text fill="#FFFFFF" font-family="Arial,Arial_MSFontService,sans-serif" font-weight="400" font-size="24" transform="translate(467.242 614)">T3</text><rect x="65.5001" y="405.5" width="121" height="38" stroke="#BC9A00" stroke-width="1.33333" stroke-miterlimit="8" fill="#FFD200"/><text fill="#FFFFFF" font-family="Arial,Arial_MSFontService,sans-serif" font-weight="400" font-size="19" transform="translate(106.26 431)">P-<tspan font-size="19" x="18.6667" y="0">14</tspan></text><rect x="65.5001" y="360.5" width="121" height="38" stroke="#BC9A00" stroke-width="1.33333" stroke-miterlimit="8" fill="#FFD200"/><text fill="#FFFFFF" font-family="Arial,Arial_MSFontService,sans-serif" font-weight="400" font-size="19" transform="translate(106.26 386)">P-<tspan font-size="19" x="18.6667" y="0">13</tspan></text><rect x="194.5" y="360.5" width="76" height="38" stroke="#650056" stroke-width="1.33333" stroke-miterlimit="8" fill="#8C0078"/><text fill="#FFFFFF" font-family="Arial,Arial_MSFontService,sans-serif" font-weight="400" font-size="24" transform="translate(217.766 387)">T1</text><rect x="360" y="269" width="76" height="38" stroke="#03234B" stroke-width="4" stroke-linejoin="round" stroke-miterlimit="10" stroke-dasharray="4 4" fill="#03234B" fill-opacity="0.501961"/><text fill="#FFFFFF" font-family="Arial,Arial_MSFontService,sans-serif" font-weight="400" font-size="24" transform="translate(376.083 297)">(T2)</text><rect x="443" y="269" width="76" height="38" stroke="#03234B" stroke-width="4" stroke-linejoin="round" stroke-miterlimit="10" stroke-dasharray="4 4" fill="#03234B" fill-opacity="0.501961"/><text fill="#FFFFFF" font-family="Arial,Arial_MSFontService,sans-serif" font-weight="400" font-size="24" transform="translate(459.242 297)">(T2)</text><rect x="527" y="269" width="75" height="38" stroke="#03234B" stroke-width="4" stroke-linejoin="round" stroke-miterlimit="10" stroke-dasharray="4 4" fill="#03234B" fill-opacity="0.501961"/><text fill="#FFFFFF" font-family="Arial,Arial_MSFontService,sans-serif" font-weight="400" font-size="24" transform="translate(542.401 297)">(T2)</text><rect x="610" y="269" width="75" height="38" stroke="#03234B" stroke-width="4" stroke-linejoin="round" stroke-miterlimit="10" stroke-dasharray="4 4" fill="#03234B" fill-opacity="0.501961"/><text fill="#FFFFFF" font-family="Arial,Arial_MSFontService,sans-serif" font-weight="400" font-size="24" transform="translate(625.56 297)">(T2)</text><rect x="277.5" y="360.5" width="76" height="38" stroke="#650056" stroke-width="1.33333" stroke-miterlimit="8" fill="#8C0078"/><text fill="#FFFFFF" font-family="Arial,Arial_MSFontService,sans-serif" font-weight="400" font-size="24" transform="translate(300.924 387)">T1</text><rect x="194.5" y="405.5" width="76" height="38" stroke="#650056" stroke-width="1.33333" stroke-miterlimit="8" fill="#8C0078"/><text fill="#FFFFFF" font-family="Arial,Arial_MSFontService,sans-serif" font-weight="400" font-size="24" transform="translate(217.766 433)">T3</text><rect x="360.5" y="451.5" width="76" height="38" stroke="#BC9A00" stroke-width="1.33333" stroke-miterlimit="8" fill="#FFD200"/><text fill="#FFFFFF" font-family="Arial,Arial_MSFontService,sans-serif" font-weight="400" font-size="24" transform="translate(384.083 478)">T2</text><rect x="443.5" y="451.5" width="76" height="38" stroke="#BC9A00" stroke-width="1.33333" stroke-miterlimit="8" fill="#FFD200"/><text fill="#FFFFFF" font-family="Arial,Arial_MSFontService,sans-serif" font-weight="400" font-size="24" transform="translate(467.242 478)">T2</text><rect x="527.5" y="451.5" width="75" height="38" stroke="#BC9A00" stroke-width="1.33333" stroke-miterlimit="8" fill="#FFD200"/><text fill="#FFFFFF" font-family="Arial,Arial_MSFontService,sans-serif" font-weight="400" font-size="24" transform="translate(550.401 478)">T2</text><rect x="610.5" y="451.5" width="75" height="38" stroke="#BC9A00" stroke-width="1.33333" stroke-miterlimit="8" fill="#FFD200"/><text fill="#FFFFFF" font-family="Arial,Arial_MSFontService,sans-serif" font-weight="400" font-size="24" transform="translate(633.56 478)">T2</text><rect x="360.5" y="405.5" width="76" height="38" stroke="#BC9A00" stroke-width="1.33333" stroke-miterlimit="8" fill="#FFD200"/><text fill="#FFFFFF" font-family="Arial,Arial_MSFontService,sans-serif" font-weight="400" font-size="24" transform="translate(384.083 433)">T3</text><rect x="443.5" y="360.5" width="76" height="38" stroke="#650056" stroke-width="1.33333" stroke-miterlimit="8" fill="#8C0078"/><text fill="#FFFFFF" font-family="Arial,Arial_MSFontService,sans-serif" font-weight="400" font-size="24" transform="translate(467.242 387)">T1</text><rect x="527.5" y="360.5" width="75" height="38" stroke="#650056" stroke-width="1.33333" stroke-miterlimit="8" fill="#8C0078"/><text fill="#FFFFFF" font-family="Arial,Arial_MSFontService,sans-serif" font-weight="400" font-size="24" transform="translate(550.401 387)">T1</text><rect x="610.5" y="360.5" width="75" height="38" stroke="#650056" stroke-width="1.33333" stroke-miterlimit="8" fill="#8C0078"/><text fill="#FFFFFF" font-family="Arial,Arial_MSFontService,sans-serif" font-weight="400" font-size="24" transform="translate(633.56 387)">T1</text><path d="M398 625 398 655.24" stroke="#03234B" stroke-width="4" stroke-linecap="round" stroke-miterlimit="8" fill="none" fill-rule="evenodd"/><path d="M415 224 415 259.359C415 260.464 414.105 261.359 413 261.359 411.896 261.359 411 260.464 411 259.359L411 224C411 222.895 411.895 222 413 222 414.105 222 415 222.895 415 224ZM419 257.359 413 269.359 407 257.359Z" fill="#03234B"/><path d="M414.736 306.008 440.015 350.245C440.563 351.204 440.229 352.425 439.27 352.973 438.311 353.521 437.09 353.188 436.542 352.229L411.264 307.992C410.715 307.033 411.049 305.812 412.008 305.264 412.967 304.715 414.188 305.049 414.736 306.008ZM442.495 346.523 443.24 359.919 432.076 352.477Z" fill="#8C0078"/></g></svg>