<svg width="684" height="262" xmlns="http://www.w3.org/2000/svg" xmlns:xlink="http://www.w3.org/1999/xlink" overflow="hidden"><defs><clipPath id="clip0"><rect x="50" y="220" width="684" height="262"/></clipPath></defs><g clip-path="url(#clip0)" transform="translate(-50 -220)"><rect x="50" y="224" width="650" height="181" fill="#03234B" fill-opacity="0.501961"/><text fill="#FFFFFF" font-family="Arial,Arial_MSFontService,sans-serif" font-weight="400" font-size="24" transform="translate(339.404 252)">Queue</text><path d="M0 0 498.953 0.000104987" stroke="#03234B" stroke-width="4" stroke-linecap="round" stroke-miterlimit="8" fill="none" fill-rule="evenodd" transform="matrix(-1 0 0 1 730.953 224)"/><rect x="65.5001" y="269.5" width="121" height="129" stroke="#021735" stroke-width="1.33333" stroke-miterlimit="8" fill="#03234B"/><text fill="#FFFFFF" font-family="Arial,Arial_MSFontService,sans-serif" font-weight="400" font-size="24" transform="translate(116.594 342)">Q</text><rect x="549.5" y="224.5" width="182" height="23" stroke="#021735" stroke-width="1.33333" stroke-miterlimit="8" fill="#03234B"/><text fill="#FFFFFF" font-family="Arial,Arial_MSFontService,sans-serif" font-weight="400" font-size="16" transform="translate(585.583 242)">tx_queue_send</text><path d="M234 224 234 304.719C234 305.823 233.105 306.719 232 306.719 230.896 306.719 230 305.823 230 304.719L230 224C230 222.895 230.895 222 232 222 233.105 222 234 222.895 234 224ZM238 302.719 232 314.719 226 302.719Z" fill="#03234B"/><rect x="194.5" y="360.5" width="76" height="38" stroke="#021735" stroke-width="1.33333" stroke-miterlimit="8" fill="#03234B"/><text fill="#FFFFFF" font-family="Arial,Arial_MSFontService,sans-serif" font-weight="400" font-size="24" transform="translate(215.099 387)">M1</text><rect x="194.5" y="315.5" width="76" height="37" stroke="#021735" stroke-width="1.33333" stroke-miterlimit="8" fill="#03234B"/><text fill="#FFFFFF" font-family="Arial,Arial_MSFontService,sans-serif" font-weight="400" font-size="24" transform="translate(215.099 342)">M2</text><rect x="277.5" y="360.5" width="76" height="38" stroke="#021735" stroke-width="1.33333" stroke-miterlimit="8" fill="#03234B"/><text fill="#FFFFFF" font-family="Arial,Arial_MSFontService,sans-serif" font-weight="400" font-size="24" transform="translate(298.258 387)">M1</text><rect x="277.5" y="315.5" width="76" height="37" stroke="#021735" stroke-width="1.33333" stroke-miterlimit="8" fill="#03234B"/><text fill="#FFFFFF" font-family="Arial,Arial_MSFontService,sans-serif" font-weight="400" font-size="24" transform="translate(298.258 342)">M2</text><rect x="277.5" y="269.5" width="76" height="38" stroke="#021735" stroke-width="1.33333" stroke-miterlimit="8" fill="#03234B"/><text fill="#FFFFFF" font-family="Arial,Arial_MSFontService,sans-serif" font-weight="400" font-size="24" transform="translate(298.258 297)">M3</text><path d="M324 224 324 259.359C324 260.464 323.105 261.359 322 261.359 320.896 261.359 320 260.464 320 259.359L320 224C320 222.895 320.895 222 322 222 323.105 222 324 222.895 324 224ZM328 257.359 322 269.359 316 257.359Z" fill="#03234B"/><rect x="443.5" y="360.5" width="76" height="38" stroke="#021735" stroke-width="1.33333" stroke-miterlimit="8" fill="#03234B"/><text fill="#FFFFFF" font-family="Arial,Arial_MSFontService,sans-serif" font-weight="400" font-size="24" transform="translate(464.576 387)">M2</text><rect x="443.5" y="315.5" width="76" height="37" stroke="#021735" stroke-width="1.33333" stroke-miterlimit="8" fill="#03234B"/><text fill="#FFFFFF" font-family="Arial,Arial_MSFontService,sans-serif" font-weight="400" font-size="24" transform="translate(464.576 342)">M3</text><rect x="527.5" y="360.5" width="75" height="38" stroke="#021735" stroke-width="1.33333" stroke-miterlimit="8" fill="#03234B"/><text fill="#FFFFFF" font-family="Arial,Arial_MSFontService,sans-serif" font-weight="400" font-size="24" transform="translate(547.734 387)">M3</text><rect x="610" y="360" width="75" height="38" stroke="#03234B" stroke-width="4" stroke-linejoin="round" stroke-miterlimit="10" stroke-dasharray="4 4" fill="#03234B" fill-opacity="0.501961"/><text fill="#FFFFFF" font-family="Arial,Arial_MSFontService,sans-serif" font-weight="400" font-size="24" transform="translate(632.893 387)">(0)</text><rect x="549.5" y="451.5" width="182" height="22" stroke="#021735" stroke-width="1.33333" stroke-miterlimit="8" fill="#03234B"/><text fill="#FFFFFF" font-family="Arial,Arial_MSFontService,sans-serif" font-weight="400" font-size="16" transform="translate(577.167 468)">tx_queue_receive</text><path d="M0 0 332.635 0.000104987" stroke="#03234B" stroke-width="4" stroke-linecap="round" stroke-miterlimit="8" fill="none" fill-rule="evenodd" transform="matrix(-1 0 0 1 730.635 451)"/><path d="M483 398 483 440.919C483 442.024 482.105 442.919 481 442.919 479.896 442.919 479 442.024 479 440.919L479 398C479 396.895 479.895 396 481 396 482.105 396 483 396.895 483 398ZM487 438.919 481 450.919 475 438.919Z" fill="#03234B"/><path d="M566 398 566 440.919C566 442.024 565.105 442.919 564 442.919 562.896 442.919 562 442.024 562 440.919L562 398C562 396.895 562.895 396 564 396 565.105 396 566 396.895 566 398ZM570 438.919 564 450.919 558 438.919Z" fill="#03234B"/><path d="M650 398 650 440.919C650 442.024 649.105 442.919 648 442.919 646.896 442.919 646 442.024 646 440.919L646 398C646 396.895 646.895 396 648 396 649.105 396 650 396.895 650 398ZM654 438.919 648 450.919 642 438.919Z" fill="#8C0078"/><rect x="360.5" y="360.5" width="76" height="38" stroke="#021735" stroke-width="1.33333" stroke-miterlimit="8" fill="#03234B"/><text fill="#FFFFFF" font-family="Arial,Arial_MSFontService,sans-serif" font-weight="400" font-size="24" transform="translate(381.417 387)">M1</text><rect x="360.5" y="315.5" width="76" height="37" stroke="#021735" stroke-width="1.33333" stroke-miterlimit="8" fill="#03234B"/><text fill="#FFFFFF" font-family="Arial,Arial_MSFontService,sans-serif" font-weight="400" font-size="24" transform="translate(381.417 342)">M2</text><rect x="360.5" y="269.5" width="76" height="38" stroke="#021735" stroke-width="1.33333" stroke-miterlimit="8" fill="#03234B"/><text fill="#FFFFFF" font-family="Arial,Arial_MSFontService,sans-serif" font-weight="400" font-size="24" transform="translate(381.417 297)">M3</text><path d="M400 398 400 440.919C400 442.024 399.105 442.919 398 442.919 396.896 442.919 396 442.024 396 440.919L396 398C396 396.895 396.895 396 398 396 399.105 396 400 396.895 400 398ZM404 438.919 398 450.919 392 438.919Z" fill="#03234B"/></g></svg>