<svg width="743" height="584" xmlns="http://www.w3.org/2000/svg" xmlns:xlink="http://www.w3.org/1999/xlink" overflow="hidden"><defs><clipPath id="clip0"><rect x="34" y="55" width="743" height="584"/></clipPath></defs><g clip-path="url(#clip0)" transform="translate(-34 -55)"><rect x="35.5001" y="58.5001" width="151" height="45" stroke="#338150" stroke-width="1.33333" stroke-miterlimit="8" fill="#49B170"/><text fill="#FFFFFF" font-family="Arial,Arial_MSFontService,sans-serif" font-weight="400" font-size="24" transform="translate(62.8073 89)">Thread 2</text><rect x="35.5001" y="133.5" width="151" height="46" stroke="#650056" stroke-width="1.33333" stroke-miterlimit="8" fill="#8C0078"/><text fill="#FFFFFF" font-family="Arial,Arial_MSFontService,sans-serif" font-weight="400" font-size="24" transform="translate(62.8073 164)">Thread 3</text><path d="M186 80 223.799 80.0001" stroke="#49B170" stroke-width="4" stroke-linecap="round" stroke-miterlimit="8" fill="none" fill-rule="evenodd"/><rect x="436.5" y="95.5001" width="151" height="46" stroke="#2983A9" stroke-width="1.33333" stroke-miterlimit="8" fill="#3CB4E6"/><text fill="#FFFFFF" font-family="Arial,Arial_MSFontService,sans-serif" font-weight="400" font-size="24" transform="translate(463.482 127)">Thread<tspan font-size="24" x="82.6667" y="0">1</tspan></text><path d="M186 156 223.799 156" stroke="#FFD200" stroke-width="4" stroke-linecap="round" stroke-miterlimit="8" stroke-dasharray="0 8" fill="none" fill-rule="evenodd"/><path d="M225.715 78.971 243.25 108.196C243.818 109.143 243.511 110.371 242.564 110.94 241.617 111.508 240.388 111.201 239.82 110.254L222.285 81.029C221.717 80.0818 222.024 78.8533 222.971 78.285 223.918 77.7167 225.147 78.0238 225.715 78.971ZM245.651 104.423 246.68 117.799 235.361 110.597Z" fill="#49B170"/><path d="M6.85998 7.546 6.86204 7.54943C7.4303 8.49661 7.12313 9.72512 6.17595 10.2934 5.22877 10.8616 4.00026 10.5545 3.43199 9.60729L3.42994 9.60386C2.86167 8.65668 3.16885 7.42817 4.11603 6.85991 5.06321 6.29164 6.29172 6.59882 6.85998 7.546ZM10.978 14.4094 10.9801 14.4128C11.5483 15.36 11.2412 16.5885 10.294 17.1568 9.34679 17.725 8.11828 17.4178 7.55002 16.4707L7.54796 16.4672C6.9797 15.5201 7.28687 14.2915 8.23405 13.7233 9.18123 13.155 10.4097 13.4622 10.978 14.4094ZM15.096 21.2727 15.0981 21.2762C15.6663 22.2234 15.3592 23.4519 14.412 24.0201 13.4648 24.5884 12.2363 24.2812 11.668 23.334L11.666 23.3306C11.0977 22.3834 11.4049 21.1549 12.3521 20.5867 13.2993 20.0184 14.5278 20.3256 15.096 21.2727ZM19.2137 28.1355 19.2157 28.1389C19.7843 29.0858 19.4776 30.3145 18.5307 30.8831 17.5837 31.4517 16.3551 31.145 15.7865 30.1981L15.7844 30.1946C15.2158 29.2477 15.5225 28.0191 16.4694 27.4504 17.4164 26.8818 18.645 27.1885 19.2137 28.1355ZM23.3317 34.9988 23.3337 35.0023C23.9024 35.9492 23.5957 37.1778 22.6487 37.7465 21.7017 38.3151 20.4731 38.0084 19.9045 37.0614L19.9024 37.058C19.3338 36.1111 19.6405 34.8824 20.5875 34.3138 21.5344 33.7452 22.763 34.0519 23.3317 34.9988ZM1.02899 13.3769 0 0 11.3189 7.20294Z" fill="#FFD200" transform="matrix(-1 0 0 1 246.68 118)"/><rect x="625" y="58" width="151" height="45" fill="#03234B" fill-opacity="0.501961"/><text fill="#FFFFFF" font-family="Arial,Arial_MSFontService,sans-serif" font-weight="400" font-size="24" transform="translate(660.696 89)">LED off</text><rect x="625" y="133" width="151" height="46" fill="#03234B" fill-opacity="0.501961"/><text fill="#FFFFFF" font-family="Arial,Arial_MSFontService,sans-serif" font-weight="400" font-size="24" transform="translate(660.696 164)">LED off</text><path d="M1.41421-1.41421 1.41704-1.41139C2.19809-0.630336 2.19809 0.635993 1.41704 1.41704 0.635993 2.19809-0.630336 2.19809-1.41139 1.41704L-1.41421 1.41421C-2.19526 0.633165-2.19526-0.633165-1.41421-1.41421-0.633165-2.19526 0.633165-2.19526 1.41421-1.41421ZM7.0739 4.24547 7.07672 4.2483C7.85777 5.02935 7.85777 6.29568 7.07672 7.07672 6.29568 7.85777 5.02935 7.85777 4.2483 7.07672L4.24547 7.0739C3.46442 6.29285 3.46442 5.02652 4.24547 4.24547 5.02652 3.46442 6.29285 3.46442 7.0739 4.24547ZM12.7336 9.90515 12.7364 9.90798C13.5175 10.689 13.5175 11.9554 12.7364 12.7364 11.9554 13.5175 10.689 13.5175 9.90798 12.7364L9.90515 12.7336C9.1241 11.9525 9.1241 10.6862 9.90515 9.90515 10.6862 9.1241 11.9525 9.1241 12.7336 9.90515ZM18.3933 15.5648 18.3961 15.5677C19.1771 16.3487 19.1771 17.615 18.3961 18.3961 17.615 19.1771 16.3487 19.1771 15.5677 18.3961L15.5648 18.3933C14.7838 17.6122 14.7838 16.3459 15.5648 15.5648 16.3459 14.7838 17.6122 14.7838 18.3933 15.5648ZM24.0529 21.2245 24.0558 21.2273C24.8368 22.0084 24.8368 23.2747 24.0558 24.0558 23.2747 24.8368 22.0084 24.8368 21.2273 24.0558L21.2245 24.0529C20.4435 23.2719 20.4435 22.0056 21.2245 21.2245 22.0056 20.4435 23.2719 20.4435 24.0529 21.2245ZM29.7126 26.8842 29.7155 26.887C30.4965 27.6681 30.4965 28.9344 29.7155 29.7155 28.9344 30.4965 27.6681 30.4965 26.887 29.7155L26.8842 29.7126C26.1031 28.9316 26.1031 27.6652 26.8842 26.8842 27.6652 26.1031 28.9316 26.1031 29.7126 26.8842ZM33.5568 25.0716 37.7995 37.7995 25.0716 33.5568Z" fill="#49B170" transform="matrix(1 0 0 -1 587 117.799)"/><path d="M588.414 116.586 588.417 116.589C589.198 117.37 589.198 118.636 588.417 119.417 587.636 120.198 586.37 120.198 585.589 119.417L585.586 119.414C584.805 118.633 584.805 117.367 585.586 116.586 586.367 115.805 587.633 115.805 588.414 116.586ZM594.074 122.245 594.077 122.248C594.858 123.029 594.858 124.296 594.077 125.077 593.296 125.858 592.029 125.858 591.248 125.077L591.245 125.074C590.464 124.293 590.464 123.027 591.245 122.245 592.026 121.464 593.293 121.464 594.074 122.245ZM599.734 127.905 599.736 127.908C600.517 128.689 600.517 129.955 599.736 130.736 598.955 131.517 597.689 131.517 596.908 130.736L596.905 130.734C596.124 129.953 596.124 128.686 596.905 127.905 597.686 127.124 598.953 127.124 599.734 127.905ZM605.393 133.565 605.396 133.568C606.177 134.349 606.177 135.615 605.396 136.396 604.615 137.177 603.349 137.177 602.568 136.396L602.565 136.393C601.784 135.612 601.784 134.346 602.565 133.565 603.346 132.784 604.612 132.784 605.393 133.565ZM611.053 139.225 611.056 139.227C611.837 140.008 611.837 141.275 611.056 142.056 610.275 142.837 609.008 142.837 608.227 142.056L608.224 142.053C607.443 141.272 607.443 140.006 608.224 139.225 609.006 138.443 610.272 138.443 611.053 139.225ZM616.713 144.884 616.715 144.887C617.497 145.668 617.497 146.934 616.715 147.715 615.934 148.497 614.668 148.497 613.887 147.715L613.884 147.713C613.103 146.932 613.103 145.665 613.884 144.884 614.665 144.103 615.932 144.103 616.713 144.884ZM620.557 143.072 624.799 155.799 612.072 151.557Z" fill="#FFD200"/><path d="M398 116 425.799 116C426.904 116 427.799 116.896 427.799 118 427.799 119.105 426.904 120 425.799 120L398 120C396.895 120 396 119.105 396 118 396 116.895 396.895 116 398 116ZM423.799 112 435.799 118 423.799 124Z" fill="#3CB4E6"/><rect x="35.5001" y="209.5" width="151" height="45" stroke="#650056" stroke-width="1.33333" stroke-miterlimit="8" fill="#8C0078"/><text fill="#FFFFFF" font-family="Arial,Arial_MSFontService,sans-serif" font-weight="400" font-size="24" transform="translate(62.8073 240)">Thread 2</text><rect x="35.5001" y="284.5" width="151" height="46" stroke="#338150" stroke-width="1.33333" stroke-miterlimit="8" fill="#49B170"/><text fill="#FFFFFF" font-family="Arial,Arial_MSFontService,sans-serif" font-weight="400" font-size="24" transform="translate(62.8073 316)">Thread 3</text><path d="M186 231 223.799 231" stroke="#49B170" stroke-width="4" stroke-linecap="round" stroke-miterlimit="8" stroke-dasharray="0 8" fill="none" fill-rule="evenodd"/><rect x="436.5" y="247.5" width="151" height="45" stroke="#2983A9" stroke-width="1.33333" stroke-miterlimit="8" fill="#3CB4E6"/><text fill="#FFFFFF" font-family="Arial,Arial_MSFontService,sans-serif" font-weight="400" font-size="24" transform="translate(463.482 278)">Thread<tspan font-size="24" x="82.6667" y="0">1</tspan></text><path d="M186 307 223.799 307" stroke="#FFD200" stroke-width="4" stroke-linecap="round" stroke-miterlimit="8" fill="none" fill-rule="evenodd"/><path d="M225.715 229.971 225.717 229.974C226.285 230.922 225.978 232.15 225.031 232.718 224.084 233.287 222.855 232.98 222.287 232.032L222.285 232.029C221.717 231.082 222.024 229.853 222.971 229.285 223.918 228.717 225.147 229.024 225.715 229.971ZM229.833 236.834 229.835 236.838C230.403 237.785 230.096 239.014 229.149 239.582 228.202 240.15 226.973 239.843 226.405 238.896L226.403 238.892C225.835 237.945 226.142 236.717 227.089 236.148 228.036 235.58 229.265 235.887 229.833 236.834ZM233.951 243.698 233.953 243.701C234.521 244.648 234.214 245.877 233.267 246.445 232.32 247.013 231.091 246.706 230.523 245.759L230.521 245.756C229.953 244.809 230.26 243.58 231.207 243.012 232.154 242.443 233.383 242.751 233.951 243.698ZM238.069 250.561 238.071 250.565C238.639 251.512 238.332 252.74 237.385 253.309 236.438 253.877 235.209 253.57 234.641 252.622L234.639 252.619C234.071 251.672 234.378 250.443 235.325 249.875 236.272 249.307 237.501 249.614 238.069 250.561ZM242.187 257.424 242.189 257.428C242.757 258.375 242.45 259.603 241.503 260.172 240.556 260.74 239.328 260.433 238.759 259.486L238.757 259.483C238.189 258.536 238.496 257.307 239.443 256.739 240.39 256.17 241.618 256.477 242.187 257.424ZM245.651 255.423 246.68 268.799 235.361 261.597Z" fill="#49B170"/><path d="M6.85994 7.54594 24.3947 36.7705C24.963 37.7176 24.6558 38.9462 23.7087 39.5145 22.7615 40.0828 21.533 39.7756 20.9647 38.8285L3.42997 9.60392C2.86168 8.65676 3.16881 7.42824 4.11597 6.85994 5.06313 6.29165 6.29165 6.59878 6.85994 7.54594ZM1.02899 13.3769 0 0 11.3189 7.20294Z" fill="#FFD200" transform="matrix(-1 0 0 1 246.68 269)"/><rect x="625" y="209" width="151" height="45" fill="#03234B" fill-opacity="0.501961"/><text fill="#FFFFFF" font-family="Arial,Arial_MSFontService,sans-serif" font-weight="400" font-size="24" transform="translate(660.696 240)">LED off</text><rect x="625" y="284" width="151" height="46" fill="#03234B" fill-opacity="0.501961"/><text fill="#FFFFFF" font-family="Arial,Arial_MSFontService,sans-serif" font-weight="400" font-size="24" transform="translate(660.696 316)">LED off</text><path d="M1.41421-1.41421 1.41704-1.41139C2.19809-0.630336 2.19809 0.635993 1.41704 1.41704 0.635993 2.19809-0.630336 2.19809-1.41139 1.41704L-1.41421 1.41421C-2.19526 0.633165-2.19526-0.633165-1.41421-1.41421-0.633165-2.19526 0.633165-2.19526 1.41421-1.41421ZM7.0739 4.24547 7.07672 4.2483C7.85777 5.02935 7.85777 6.29568 7.07672 7.07672 6.29568 7.85777 5.02935 7.85777 4.2483 7.07672L4.24547 7.0739C3.46442 6.29285 3.46442 5.02652 4.24547 4.24547 5.02652 3.46442 6.29285 3.46442 7.0739 4.24547ZM12.7336 9.90515 12.7364 9.90798C13.5175 10.689 13.5175 11.9554 12.7364 12.7364 11.9554 13.5175 10.689 13.5175 9.90798 12.7364L9.90515 12.7336C9.1241 11.9525 9.1241 10.6862 9.90515 9.90515 10.6862 9.1241 11.9525 9.1241 12.7336 9.90515ZM18.3933 15.5648 18.3961 15.5677C19.1771 16.3487 19.1771 17.615 18.3961 18.3961 17.615 19.1771 16.3487 19.1771 15.5677 18.3961L15.5648 18.3933C14.7838 17.6122 14.7838 16.3459 15.5648 15.5648 16.3459 14.7838 17.6122 14.7838 18.3933 15.5648ZM24.0529 21.2245 24.0558 21.2273C24.8368 22.0084 24.8368 23.2747 24.0558 24.0558 23.2747 24.8368 22.0084 24.8368 21.2273 24.0558L21.2245 24.0529C20.4435 23.2719 20.4435 22.0056 21.2245 21.2245 22.0056 20.4435 23.2719 20.4435 24.0529 21.2245ZM29.7126 26.8842 29.7155 26.887C30.4965 27.6681 30.4965 28.9344 29.7155 29.7155 28.9344 30.4965 27.6681 30.4965 26.887 29.7155L26.8842 29.7126C26.1031 28.9316 26.1031 27.6652 26.8842 26.8842 27.6652 26.1031 28.9316 26.1031 29.7126 26.8842ZM33.5568 25.0716 37.7995 37.7995 25.0716 33.5568Z" fill="#49B170" transform="matrix(1 0 0 -1 587 268.799)"/><path d="M588.414 267.586 588.417 267.589C589.198 268.37 589.198 269.636 588.417 270.417 587.636 271.198 586.37 271.198 585.589 270.417L585.586 270.414C584.805 269.633 584.805 268.367 585.586 267.586 586.367 266.805 587.633 266.805 588.414 267.586ZM594.074 273.245 594.077 273.248C594.858 274.029 594.858 275.296 594.077 276.077 593.296 276.858 592.029 276.858 591.248 276.077L591.245 276.074C590.464 275.293 590.464 274.027 591.245 273.245 592.026 272.464 593.293 272.464 594.074 273.245ZM599.734 278.905 599.736 278.908C600.517 279.689 600.517 280.955 599.736 281.736 598.955 282.517 597.689 282.517 596.908 281.736L596.905 281.734C596.124 280.953 596.124 279.686 596.905 278.905 597.686 278.124 598.953 278.124 599.734 278.905ZM605.393 284.565 605.396 284.568C606.177 285.349 606.177 286.615 605.396 287.396 604.615 288.177 603.349 288.177 602.568 287.396L602.565 287.393C601.784 286.612 601.784 285.346 602.565 284.565 603.346 283.784 604.612 283.784 605.393 284.565ZM611.053 290.225 611.056 290.227C611.837 291.008 611.837 292.275 611.056 293.056 610.275 293.837 609.008 293.837 608.227 293.056L608.224 293.053C607.443 292.272 607.443 291.006 608.224 290.225 609.006 289.443 610.272 289.443 611.053 290.225ZM616.713 295.884 616.715 295.887C617.497 296.668 617.497 297.934 616.715 298.715 615.934 299.496 614.668 299.496 613.887 298.715L613.884 298.713C613.103 297.932 613.103 296.665 613.884 295.884 614.665 295.103 615.932 295.103 616.713 295.884ZM620.557 294.072 624.799 306.799 612.072 302.557Z" fill="#FFD200"/><path d="M398 267 425.799 267C426.904 267 427.799 267.896 427.799 269 427.799 270.105 426.904 271 425.799 271L398 271C396.895 271 396 270.105 396 269 396 267.895 396.895 267 398 267ZM423.799 263 435.799 269 423.799 275Z" fill="#3CB4E6"/><rect x="35.5001" y="360.5" width="151" height="45" stroke="#650056" stroke-width="1.33333" stroke-miterlimit="8" fill="#8C0078"/><text fill="#FFFFFF" font-family="Arial,Arial_MSFontService,sans-serif" font-weight="400" font-size="24" transform="translate(62.8073 391)">Thread 2</text><rect x="35.5001" y="436.5" width="151" height="45" stroke="#650056" stroke-width="1.33333" stroke-miterlimit="8" fill="#8C0078"/><text fill="#FFFFFF" font-family="Arial,Arial_MSFontService,sans-serif" font-weight="400" font-size="24" transform="translate(62.8073 467)">Thread 3</text><path d="M186 383 223.799 383" stroke="#49B170" stroke-width="4" stroke-linecap="round" stroke-miterlimit="8" stroke-dasharray="0 8" fill="none" fill-rule="evenodd"/><rect x="436.5" y="398.5" width="151" height="45" stroke="#338150" stroke-width="1.33333" stroke-miterlimit="8" fill="#49B170"/><text fill="#FFFFFF" font-family="Arial,Arial_MSFontService,sans-serif" font-weight="400" font-size="24" transform="translate(463.482 429)">Thread<tspan font-size="24" x="82.6667" y="0">1</tspan></text><path d="M186 458 223.799 458" stroke="#FFD200" stroke-width="4" stroke-linecap="round" stroke-miterlimit="8" stroke-dasharray="0 8" fill="none" fill-rule="evenodd"/><path d="M225.715 381.971 225.717 381.974C226.285 382.922 225.978 384.15 225.031 384.718 224.084 385.287 222.855 384.98 222.287 384.032L222.285 384.029C221.717 383.082 222.024 381.853 222.971 381.285 223.918 380.717 225.147 381.024 225.715 381.971ZM229.833 388.834 229.835 388.838C230.403 389.785 230.096 391.014 229.149 391.582 228.202 392.15 226.973 391.843 226.405 390.896L226.403 390.892C225.835 389.945 226.142 388.717 227.089 388.148 228.036 387.58 229.265 387.887 229.833 388.834ZM233.951 395.698 233.953 395.701C234.521 396.648 234.214 397.877 233.267 398.445 232.32 399.013 231.091 398.706 230.523 397.759L230.521 397.756C229.953 396.809 230.26 395.58 231.207 395.012 232.154 394.443 233.383 394.751 233.951 395.698ZM238.069 402.561 238.071 402.565C238.639 403.512 238.332 404.74 237.385 405.309 236.438 405.877 235.209 405.57 234.641 404.622L234.639 404.619C234.071 403.672 234.378 402.443 235.325 401.875 236.272 401.307 237.501 401.614 238.069 402.561ZM242.187 409.424 242.189 409.428C242.757 410.375 242.45 411.603 241.503 412.172 240.556 412.74 239.328 412.433 238.759 411.486L238.757 411.483C238.189 410.536 238.496 409.307 239.443 408.739 240.39 408.17 241.618 408.477 242.187 409.424ZM245.651 407.423 246.68 420.799 235.361 413.597Z" fill="#49B170"/><path d="M6.85998 7.546 6.86204 7.54943C7.4303 8.49661 7.12313 9.72512 6.17595 10.2934 5.22877 10.8616 4.00026 10.5545 3.43199 9.60729L3.42994 9.60386C2.86167 8.65668 3.16885 7.42817 4.11603 6.85991 5.06321 6.29164 6.29172 6.59882 6.85998 7.546ZM10.978 14.4094 10.9801 14.4128C11.5483 15.36 11.2412 16.5885 10.294 17.1568 9.34679 17.725 8.11828 17.4178 7.55002 16.4707L7.54796 16.4672C6.9797 15.5201 7.28687 14.2915 8.23405 13.7233 9.18123 13.155 10.4097 13.4622 10.978 14.4094ZM15.096 21.2727 15.0981 21.2762C15.6663 22.2234 15.3592 23.4519 14.412 24.0201 13.4648 24.5884 12.2363 24.2812 11.668 23.334L11.666 23.3306C11.0977 22.3834 11.4049 21.1549 12.3521 20.5867 13.2993 20.0184 14.5278 20.3256 15.096 21.2727ZM19.2137 28.1355 19.2157 28.1389C19.7843 29.0858 19.4776 30.3145 18.5307 30.8831 17.5837 31.4517 16.3551 31.145 15.7865 30.1981L15.7844 30.1946C15.2158 29.2477 15.5225 28.0191 16.4694 27.4504 17.4164 26.8818 18.645 27.1885 19.2137 28.1355ZM23.3317 34.9988 23.3337 35.0023C23.9024 35.9492 23.5957 37.1778 22.6487 37.7465 21.7017 38.3151 20.4731 38.0084 19.9045 37.0614L19.9024 37.058C19.3338 36.1111 19.6405 34.8824 20.5875 34.3138 21.5344 33.7452 22.763 34.0519 23.3317 34.9988ZM1.02899 13.3769 0 0 11.3189 7.20294Z" fill="#FFD200" transform="matrix(-1 0 0 1 246.68 420)"/><rect x="625.5" y="360.5" width="151" height="45" stroke="#338150" stroke-width="1.33333" stroke-miterlimit="8" fill="#49B170"/><text fill="#FFFFFF" font-family="Arial,Arial_MSFontService,sans-serif" font-weight="400" font-size="24" transform="translate(660.479 391)">LED on</text><rect x="625" y="436" width="151" height="45" fill="#03234B" fill-opacity="0.501961"/><text fill="#FFFFFF" font-family="Arial,Arial_MSFontService,sans-serif" font-weight="400" font-size="24" transform="translate(660.696 467)">LED off</text><path d="M1.41421-1.41421 32.1426 29.3142C32.9237 30.0952 32.9237 31.3616 32.1426 32.1426 31.3616 32.9237 30.0952 32.9237 29.3142 32.1426L-1.41421 1.41421C-2.19526 0.633165-2.19526-0.633165-1.41421-1.41421-0.633165-2.19526 0.633165-2.19526 1.41421-1.41421ZM33.5568 25.0716 37.7995 37.7995 25.0716 33.5568Z" fill="#49B170" transform="matrix(1 0 0 -1 587 420.799)"/><path d="M588.414 418.586 588.417 418.589C589.198 419.37 589.198 420.636 588.417 421.417 587.636 422.198 586.37 422.198 585.589 421.417L585.586 421.414C584.805 420.633 584.805 419.367 585.586 418.586 586.367 417.805 587.633 417.805 588.414 418.586ZM594.074 424.245 594.077 424.248C594.858 425.029 594.858 426.296 594.077 427.077 593.296 427.858 592.029 427.858 591.248 427.077L591.245 427.074C590.464 426.293 590.464 425.027 591.245 424.245 592.026 423.464 593.293 423.464 594.074 424.245ZM599.734 429.905 599.736 429.908C600.517 430.689 600.517 431.955 599.736 432.736 598.955 433.517 597.689 433.517 596.908 432.736L596.905 432.734C596.124 431.953 596.124 430.686 596.905 429.905 597.686 429.124 598.953 429.124 599.734 429.905ZM605.393 435.565 605.396 435.568C606.177 436.349 606.177 437.615 605.396 438.396 604.615 439.177 603.349 439.177 602.568 438.396L602.565 438.393C601.784 437.612 601.784 436.346 602.565 435.565 603.346 434.784 604.612 434.784 605.393 435.565ZM611.053 441.225 611.056 441.227C611.837 442.008 611.837 443.275 611.056 444.056 610.275 444.837 609.008 444.837 608.227 444.056L608.224 444.053C607.443 443.272 607.443 442.006 608.224 441.225 609.006 440.443 610.272 440.443 611.053 441.225ZM616.713 446.884 616.715 446.887C617.497 447.668 617.497 448.934 616.715 449.715 615.934 450.496 614.668 450.496 613.887 449.715L613.884 449.713C613.103 448.932 613.103 447.665 613.884 446.884 614.665 446.103 615.932 446.103 616.713 446.884ZM620.557 445.072 624.799 457.799 612.072 453.557Z" fill="#FFD200"/><path d="M398 418 425.799 418C426.904 418 427.799 418.896 427.799 420 427.799 421.105 426.904 422 425.799 422L398 422C396.895 422 396 421.105 396 420 396 418.895 396.895 418 398 418ZM423.799 414 435.799 420 423.799 426Z" fill="#49B170"/><rect x="35.5001" y="511.5" width="151" height="46" stroke="#650056" stroke-width="1.33333" stroke-miterlimit="8" fill="#8C0078"/><text fill="#FFFFFF" font-family="Arial,Arial_MSFontService,sans-serif" font-weight="400" font-size="24" transform="translate(62.8073 542)">Thread 2</text><rect x="35.5001" y="587.5" width="151" height="45" stroke="#650056" stroke-width="1.33333" stroke-miterlimit="8" fill="#8C0078"/><text fill="#FFFFFF" font-family="Arial,Arial_MSFontService,sans-serif" font-weight="400" font-size="24" transform="translate(62.8073 618)">Thread 3</text><path d="M186 534 223.799 534" stroke="#49B170" stroke-width="4" stroke-linecap="round" stroke-miterlimit="8" stroke-dasharray="0 8" fill="none" fill-rule="evenodd"/><rect x="436.5" y="549.5" width="151" height="45" stroke="#BC9A00" stroke-width="1.33333" stroke-miterlimit="8" fill="#FFD200"/><text fill="#FFFFFF" font-family="Arial,Arial_MSFontService,sans-serif" font-weight="400" font-size="24" transform="translate(463.482 580)">Thread<tspan font-size="24" x="82.6667" y="0">1</tspan></text><path d="M186 609 223.799 609" stroke="#FFD200" stroke-width="4" stroke-linecap="round" stroke-miterlimit="8" stroke-dasharray="0 8" fill="none" fill-rule="evenodd"/><path d="M225.715 532.971 225.717 532.974C226.285 533.922 225.978 535.15 225.031 535.718 224.084 536.287 222.855 535.98 222.287 535.032L222.285 535.029C221.717 534.082 222.024 532.853 222.971 532.285 223.918 531.717 225.147 532.024 225.715 532.971ZM229.833 539.834 229.835 539.838C230.403 540.785 230.096 542.014 229.149 542.582 228.202 543.15 226.973 542.843 226.405 541.896L226.403 541.892C225.835 540.945 226.142 539.717 227.089 539.148 228.036 538.58 229.265 538.887 229.833 539.834ZM233.951 546.698 233.953 546.701C234.521 547.648 234.214 548.877 233.267 549.445 232.32 550.013 231.091 549.706 230.523 548.759L230.521 548.756C229.953 547.808 230.26 546.58 231.207 546.012 232.154 545.443 233.383 545.751 233.951 546.698ZM238.069 553.561 238.071 553.565C238.639 554.512 238.332 555.74 237.385 556.309 236.438 556.877 235.209 556.57 234.641 555.622L234.639 555.619C234.071 554.672 234.378 553.443 235.325 552.875 236.272 552.307 237.501 552.614 238.069 553.561ZM242.187 560.424 242.189 560.428C242.757 561.375 242.45 562.603 241.503 563.172 240.556 563.74 239.328 563.433 238.759 562.486L238.757 562.483C238.189 561.536 238.496 560.307 239.443 559.739 240.39 559.17 241.618 559.477 242.187 560.424ZM245.651 558.423 246.68 571.799 235.361 564.597Z" fill="#49B170"/><path d="M6.85998 7.546 6.86204 7.54943C7.4303 8.49661 7.12313 9.72512 6.17595 10.2934 5.22877 10.8616 4.00026 10.5545 3.43199 9.60729L3.42994 9.60386C2.86167 8.65668 3.16885 7.42817 4.11603 6.85991 5.06321 6.29164 6.29172 6.59882 6.85998 7.546ZM10.978 14.4094 10.9801 14.4128C11.5483 15.36 11.2412 16.5885 10.294 17.1568 9.34679 17.725 8.11828 17.4178 7.55002 16.4707L7.54796 16.4672C6.9797 15.5201 7.28687 14.2915 8.23405 13.7233 9.18123 13.155 10.4097 13.4622 10.978 14.4094ZM15.096 21.2727 15.0981 21.2762C15.6663 22.2234 15.3592 23.4519 14.412 24.0201 13.4648 24.5884 12.2363 24.2812 11.668 23.334L11.666 23.3306C11.0977 22.3834 11.4049 21.1549 12.3521 20.5867 13.2993 20.0184 14.5278 20.3256 15.096 21.2727ZM19.2137 28.1355 19.2157 28.1389C19.7843 29.0858 19.4776 30.3145 18.5307 30.8831 17.5837 31.4517 16.3551 31.145 15.7865 30.1981L15.7844 30.1946C15.2158 29.2477 15.5225 28.0191 16.4694 27.4504 17.4164 26.8818 18.645 27.1885 19.2137 28.1355ZM23.3317 34.9988 23.3337 35.0023C23.9024 35.9492 23.5957 37.1778 22.6487 37.7465 21.7017 38.3151 20.4731 38.0084 19.9045 37.0614L19.9024 37.058C19.3338 36.1111 19.6405 34.8824 20.5875 34.3138 21.5344 33.7452 22.763 34.0519 23.3317 34.9988ZM1.02899 13.3769 0 0 11.3189 7.20294Z" fill="#FFD200" transform="matrix(-1 0 0 1 246.68 572)"/><rect x="625.5" y="511.5" width="151" height="46" stroke="#338150" stroke-width="1.33333" stroke-miterlimit="8" fill="#49B170"/><text fill="#FFFFFF" font-family="Arial,Arial_MSFontService,sans-serif" font-weight="400" font-size="24" transform="translate(660.479 542)">LED on</text><rect x="625.5" y="587.5" width="151" height="45" stroke="#BC9A00" stroke-width="1.33333" stroke-miterlimit="8" fill="#FFD200"/><text fill="#FFFFFF" font-family="Arial,Arial_MSFontService,sans-serif" font-weight="400" font-size="24" transform="translate(660.479 618)">LED on</text><path d="M1.41421-1.41421 1.41704-1.41139C2.19809-0.630336 2.19809 0.635993 1.41704 1.41704 0.635993 2.19809-0.630336 2.19809-1.41139 1.41704L-1.41421 1.41421C-2.19526 0.633165-2.19526-0.633165-1.41421-1.41421-0.633165-2.19526 0.633165-2.19526 1.41421-1.41421ZM7.0739 4.24547 7.07672 4.2483C7.85777 5.02935 7.85777 6.29568 7.07672 7.07672 6.29568 7.85777 5.02935 7.85777 4.2483 7.07672L4.24547 7.0739C3.46442 6.29285 3.46442 5.02652 4.24547 4.24547 5.02652 3.46442 6.29285 3.46442 7.0739 4.24547ZM12.7336 9.90515 12.7364 9.90798C13.5175 10.689 13.5175 11.9554 12.7364 12.7364 11.9554 13.5175 10.689 13.5175 9.90798 12.7364L9.90515 12.7336C9.1241 11.9525 9.1241 10.6862 9.90515 9.90515 10.6862 9.1241 11.9525 9.1241 12.7336 9.90515ZM18.3933 15.5648 18.3961 15.5677C19.1771 16.3487 19.1771 17.615 18.3961 18.3961 17.615 19.1771 16.3487 19.1771 15.5677 18.3961L15.5648 18.3933C14.7838 17.6122 14.7838 16.3459 15.5648 15.5648 16.3459 14.7838 17.6122 14.7838 18.3933 15.5648ZM24.0529 21.2245 24.0558 21.2273C24.8368 22.0084 24.8368 23.2747 24.0558 24.0558 23.2747 24.8368 22.0084 24.8368 21.2273 24.0558L21.2245 24.0529C20.4435 23.2719 20.4435 22.0056 21.2245 21.2245 22.0056 20.4435 23.2719 20.4435 24.0529 21.2245ZM29.7126 26.8842 29.7155 26.887C30.4965 27.6681 30.4965 28.9344 29.7155 29.7155 28.9344 30.4965 27.6681 30.4965 26.887 29.7155L26.8842 29.7126C26.1031 28.9316 26.1031 27.6652 26.8842 26.8842 27.6652 26.1031 28.9316 26.1031 29.7126 26.8842ZM33.5568 25.0716 37.7995 37.7995 25.0716 33.5568Z" fill="#49B170" transform="matrix(1 0 0 -1 587 571.799)"/><path d="M588.414 570.586 619.143 601.314C619.924 602.095 619.924 603.362 619.143 604.143 618.362 604.924 617.095 604.924 616.314 604.143L585.586 573.414C584.805 572.633 584.805 571.367 585.586 570.586 586.367 569.805 587.633 569.805 588.414 570.586ZM620.557 597.072 624.799 609.799 612.072 605.557Z" fill="#FFD200"/><path d="M398 570 425.799 570C426.904 570 427.799 570.896 427.799 572 427.799 573.105 426.904 574 425.799 574L398 574C396.895 574 396 573.105 396 572 396 570.895 396.895 570 398 570ZM423.799 566 435.799 572 423.799 578Z" fill="#FFD200"/><rect x="247" y="58" width="151" height="121" fill="#03234B"/><text fill="#FFFFFF" font-family="Arial,Arial_MSFontService,sans-serif" font-weight="400" font-size="24" transform="translate(286.484 85)">Queue</text><rect x="247" y="209" width="151" height="121" fill="#03234B"/><text fill="#FFFFFF" font-family="Arial,Arial_MSFontService,sans-serif" font-weight="400" font-size="24" transform="translate(286.484 237)">Queue</text><rect x="247" y="360" width="151" height="121" fill="#03234B"/><text fill="#FFFFFF" font-family="Arial,Arial_MSFontService,sans-serif" font-weight="400" font-size="24" transform="translate(286.484 388)">Queue</text><rect x="247" y="511" width="151" height="121" fill="#03234B"/><text fill="#FFFFFF" font-family="Arial,Arial_MSFontService,sans-serif" font-weight="400" font-size="24" transform="translate(286.484 539)">Queue</text><rect x="338.5" y="95.5001" width="53" height="46" stroke="#338150" stroke-width="1.33333" stroke-miterlimit="8" fill="#49B170"/><text fill="#FFFFFF" font-family="Arial,Arial_MSFontService,sans-serif" font-weight="400" font-size="24" transform="translate(347.397 127)">M1</text><rect x="277.5" y="247.5" width="53" height="45" stroke="#BC9A00" stroke-width="1.33333" stroke-miterlimit="8" fill="#FFD200"/><text fill="#FFFFFF" font-family="Arial,Arial_MSFontService,sans-serif" font-weight="400" font-size="24" transform="translate(286.918 278)">M2</text><rect x="338.5" y="247.5" width="53" height="45" stroke="#338150" stroke-width="1.33333" stroke-miterlimit="8" fill="#49B170"/><text fill="#FFFFFF" font-family="Arial,Arial_MSFontService,sans-serif" font-weight="400" font-size="24" transform="translate(347.397 278)">M1</text><rect x="338.5" y="398.5" width="53" height="45" stroke="#BC9A00" stroke-width="1.33333" stroke-miterlimit="8" fill="#FFD200"/><text fill="#FFFFFF" font-family="Arial,Arial_MSFontService,sans-serif" font-weight="400" font-size="24" transform="translate(347.397 429)">M2</text></g></svg>