<svg width="994" height="249" xmlns="http://www.w3.org/2000/svg" xmlns:xlink="http://www.w3.org/1999/xlink" overflow="hidden"><defs><clipPath id="clip0"><rect x="50" y="160" width="994" height="249"/></clipPath></defs><g clip-path="url(#clip0)" transform="translate(-50 -160)"><rect x="50" y="163" width="802" height="242" fill="#03234B" fill-opacity="0.501961"/><text fill="#FFFFFF" font-family="Arial,Arial_MSFontService,sans-serif" font-weight="400" font-size="24" transform="translate(387.669 191)">Event Flags</text><path d="M0 0 642.591 0.000104987" stroke="#03234B" stroke-width="4" stroke-linecap="round" stroke-miterlimit="8" fill="none" fill-rule="evenodd" transform="matrix(-1 0 0 1 1040.59 209)"/><rect x="65.5001" y="360.5" width="121" height="38" stroke="#021735" stroke-width="1.33333" stroke-miterlimit="8" fill="#03234B"/><text fill="#FFFFFF" font-family="Arial,Arial_MSFontService,sans-serif" font-weight="400" font-size="24" transform="translate(117.927 387)">E</text><rect x="859.5" y="209.5" width="182" height="22" stroke="#021735" stroke-width="1.33333" stroke-miterlimit="8" fill="#03234B"/><text fill="#FFFFFF" font-family="Arial,Arial_MSFontService,sans-serif" font-weight="400" font-size="16" transform="translate(883.456 227)">tx_event_flags_set</text><path d="M400 209 400 221.68C400 222.784 399.105 223.68 398 223.68 396.896 223.68 396 222.784 396 221.68L396 209C396 207.895 396.895 207 398 207 399.105 207 400 207.895 400 209ZM404 219.68 398 231.68 392 219.68Z" fill="#03234B"/><path d="M650 209 650 221.68C650 222.784 649.105 223.68 648 223.68 646.896 223.68 646 222.784 646 221.68L646 209C646 207.895 646.895 207 648 207 649.105 207 650 207.895 650 209ZM654 219.68 648 231.68 642 219.68Z" fill="#03234B"/><rect x="247.5" y="360.5" width="53" height="38" stroke="#021735" stroke-width="1.33333" stroke-miterlimit="8" fill="#03234B"/><text fill="#FFFFFF" font-family="Arial,Arial_MSFontService,sans-serif" font-weight="400" font-size="24" transform="translate(258.678 387)">E1</text><rect x="194.5" y="360.5" width="53" height="38" stroke="#021735" stroke-width="1.33333" stroke-miterlimit="8" fill="#03234B"/><text fill="#FFFFFF" font-family="Arial,Arial_MSFontService,sans-serif" font-weight="400" font-size="24" transform="translate(205.759 387)">E2</text><rect x="489.5" y="231.5" width="53" height="38" stroke="#021735" stroke-width="1.33333" stroke-miterlimit="8" fill="#03234B"/><text fill="#FFFFFF" font-family="Arial,Arial_MSFontService,sans-serif" font-weight="400" font-size="24" transform="translate(500.595 259)">E1</text><rect x="542.5" y="231.5" width="53" height="38" stroke="#338150" stroke-width="1.33333" stroke-miterlimit="8" fill="#49B170"/><text fill="#FFFFFF" font-family="Arial,Arial_MSFontService,sans-serif" font-weight="400" font-size="24" transform="translate(553.514 259)">E0</text><rect x="436.5" y="231.5" width="53" height="38" stroke="#338150" stroke-width="1.33333" stroke-miterlimit="8" fill="#49B170"/><text fill="#FFFFFF" font-family="Arial,Arial_MSFontService,sans-serif" font-weight="400" font-size="24" transform="translate(447.676 259)">E2</text><rect x="360.5" y="231.5" width="76" height="38" stroke="#021735" stroke-width="1.33333" stroke-miterlimit="8" fill="#03234B"/><text fill="#FFFFFF" font-family="Arial,Arial_MSFontService,sans-serif" font-weight="400" font-size="24" transform="translate(380.083 259)">OR</text><rect x="731.5" y="231.5" width="53" height="38" stroke="#021735" stroke-width="1.33333" stroke-miterlimit="8" fill="#03234B"/><text fill="#FFFFFF" font-family="Arial,Arial_MSFontService,sans-serif" font-weight="400" font-size="24" transform="translate(742.512 259)">E1</text><rect x="784.5" y="231.5" width="53" height="38" stroke="#021735" stroke-width="1.33333" stroke-miterlimit="8" fill="#03234B"/><text fill="#FFFFFF" font-family="Arial,Arial_MSFontService,sans-serif" font-weight="400" font-size="24" transform="translate(795.431 259)">E0</text><rect x="678.5" y="231.5" width="53" height="38" stroke="#338150" stroke-width="1.33333" stroke-miterlimit="8" fill="#49B170"/><text fill="#FFFFFF" font-family="Arial,Arial_MSFontService,sans-serif" font-weight="400" font-size="24" transform="translate(689.592 259)">E2</text><path d="M632 298 667.359 298C668.464 298 669.359 298.896 669.359 300 669.359 301.105 668.464 302 667.359 302L632 302C630.895 302 630 301.105 630 300 630 298.895 630.895 298 632 298ZM665.359 294 677.359 300 665.359 306Z" fill="#03234B"/><path d="M632 303 632 374.819" stroke="#03234B" stroke-width="4" stroke-linecap="round" stroke-miterlimit="8" fill="none" fill-rule="evenodd"/><path d="M595 375 632.799 375" stroke="#03234B" stroke-width="4" stroke-linecap="round" stroke-miterlimit="8" fill="none" fill-rule="evenodd"/><path d="M391 298 426.359 298C427.464 298 428.359 298.896 428.359 300 428.359 301.105 427.464 302 426.359 302L391 302C389.895 302 389 301.105 389 300 389 298.895 389.895 298 391 298ZM424.359 294 436.359 300 424.359 306Z" fill="#03234B"/><path d="M391 303 391 374.819" stroke="#03234B" stroke-width="4" stroke-linecap="round" stroke-miterlimit="8" fill="none" fill-rule="evenodd"/><path d="M353 375 390.799 375" stroke="#03234B" stroke-width="4" stroke-linecap="round" stroke-miterlimit="8" fill="none" fill-rule="evenodd"/><rect x="300.5" y="360.5" width="53" height="38" stroke="#021735" stroke-width="1.33333" stroke-miterlimit="8" fill="#03234B"/><text fill="#FFFFFF" font-family="Arial,Arial_MSFontService,sans-serif" font-weight="400" font-size="24" transform="translate(311.598 387)">E0</text><path d="M464 315 464 350.359C464 351.464 463.105 352.359 462 352.359 460.896 352.359 460 351.464 460 350.359L460 315C460 313.895 460.895 313 462 313 463.105 313 464 313.895 464 315ZM468 348.359 462 360.359 456 348.359Z" fill="#03234B"/><path d="M517 315 517 350.359C517 351.464 516.105 352.359 515 352.359 513.896 352.359 513 351.464 513 350.359L513 315C513 313.895 513.895 313 515 313 516.105 313 517 313.895 517 315ZM521 348.359 515 360.359 509 348.359Z" fill="#03234B"/><path d="M570 315 570 350.359C570 351.464 569.105 352.359 568 352.359 566.896 352.359 566 351.464 566 350.359L566 315C566 313.895 566.895 313 568 313 569.105 313 570 313.895 570 315ZM574 348.359 568 360.359 562 348.359Z" fill="#03234B"/><path d="M706 315 706 350.359C706 351.464 705.105 352.359 704 352.359 702.896 352.359 702 351.464 702 350.359L702 315C702 313.895 702.895 313 704 313 705.105 313 706 313.895 706 315ZM710 348.359 704 360.359 698 348.359Z" fill="#03234B"/><path d="M759 315 759 350.359C759 351.464 758.105 352.359 757 352.359 755.896 352.359 755 351.464 755 350.359L755 315C755 313.895 755.895 313 757 313 758.105 313 759 313.895 759 315ZM763 348.359 757 360.359 751 348.359Z" fill="#03234B"/><path d="M812 315 812 350.359C812 351.464 811.105 352.359 810 352.359 808.896 352.359 808 351.464 808 350.359L808 315C808 313.895 808.895 313 810 313 811.105 313 812 313.895 812 315ZM816 348.359 810 360.359 804 348.359Z" fill="#03234B"/><rect x="489.5" y="277.5" width="53" height="38" stroke="#021735" stroke-width="1.33333" stroke-miterlimit="8" fill="#03234B"/><text fill="#FFFFFF" font-family="Arial,Arial_MSFontService,sans-serif" font-weight="400" font-size="24" transform="translate(500.595 304)">E1</text><rect x="542.5" y="277.5" width="53" height="38" stroke="#021735" stroke-width="1.33333" stroke-miterlimit="8" fill="#03234B"/><text fill="#FFFFFF" font-family="Arial,Arial_MSFontService,sans-serif" font-weight="400" font-size="24" transform="translate(553.514 304)">E0</text><rect x="436.5" y="277.5" width="53" height="38" stroke="#021735" stroke-width="1.33333" stroke-miterlimit="8" fill="#03234B"/><text fill="#FFFFFF" font-family="Arial,Arial_MSFontService,sans-serif" font-weight="400" font-size="24" transform="translate(447.676 304)">E2</text><rect x="731.5" y="277.5" width="53" height="38" stroke="#021735" stroke-width="1.33333" stroke-miterlimit="8" fill="#03234B"/><text fill="#FFFFFF" font-family="Arial,Arial_MSFontService,sans-serif" font-weight="400" font-size="24" transform="translate(742.512 304)">E1</text><rect x="784.5" y="277.5" width="53" height="38" stroke="#338150" stroke-width="1.33333" stroke-miterlimit="8" fill="#49B170"/><text fill="#FFFFFF" font-family="Arial,Arial_MSFontService,sans-serif" font-weight="400" font-size="24" transform="translate(795.431 304)">E0</text><rect x="678.5" y="277.5" width="53" height="38" stroke="#338150" stroke-width="1.33333" stroke-miterlimit="8" fill="#49B170"/><text fill="#FFFFFF" font-family="Arial,Arial_MSFontService,sans-serif" font-weight="400" font-size="24" transform="translate(689.592 304)">E2</text><rect x="489.5" y="360.5" width="53" height="38" stroke="#021735" stroke-width="1.33333" stroke-miterlimit="8" fill="#03234B"/><text fill="#FFFFFF" font-family="Arial,Arial_MSFontService,sans-serif" font-weight="400" font-size="24" transform="translate(500.595 387)">E1</text><rect x="436.5" y="360.5" width="53" height="38" stroke="#338150" stroke-width="1.33333" stroke-miterlimit="8" fill="#49B170"/><text fill="#FFFFFF" font-family="Arial,Arial_MSFontService,sans-serif" font-weight="400" font-size="24" transform="translate(447.676 387)">E2</text><rect x="731.5" y="360.5" width="53" height="38" stroke="#021735" stroke-width="1.33333" stroke-miterlimit="8" fill="#03234B"/><text fill="#FFFFFF" font-family="Arial,Arial_MSFontService,sans-serif" font-weight="400" font-size="24" transform="translate(742.512 387)">E1</text><rect x="784.5" y="360.5" width="53" height="38" stroke="#021735" stroke-width="1.33333" stroke-miterlimit="8" fill="#03234B"/><text fill="#FFFFFF" font-family="Arial,Arial_MSFontService,sans-serif" font-weight="400" font-size="24" transform="translate(795.431 387)">E0</text><rect x="678.5" y="360.5" width="53" height="38" stroke="#338150" stroke-width="1.33333" stroke-miterlimit="8" fill="#49B170"/><text fill="#FFFFFF" font-family="Arial,Arial_MSFontService,sans-serif" font-weight="400" font-size="24" transform="translate(689.592 387)">E2</text><rect x="542.5" y="360.5" width="53" height="38" stroke="#338150" stroke-width="1.33333" stroke-miterlimit="8" fill="#49B170"/><text fill="#FFFFFF" font-family="Arial,Arial_MSFontService,sans-serif" font-weight="400" font-size="24" transform="translate(553.514 387)">E0</text><rect x="602.5" y="231.5" width="76" height="38" stroke="#021735" stroke-width="1.33333" stroke-miterlimit="8" fill="#03234B"/><text fill="#FFFFFF" font-family="Arial,Arial_MSFontService,sans-serif" font-weight="400" font-size="24" transform="translate(614.667 259)">AND</text></g></svg>