<svg width="909" height="397" xmlns="http://www.w3.org/2000/svg" xmlns:xlink="http://www.w3.org/1999/xlink" overflow="hidden"><defs><clipPath id="clip0"><rect x="110" y="54" width="909" height="397"/></clipPath></defs><g clip-path="url(#clip0)" transform="translate(-110 -54)"><rect x="111.5" y="95.5001" width="302" height="38" stroke="#2983A9" stroke-width="1.33333" stroke-miterlimit="8" fill="#3CB4E6"/><text fill="#FFFFFF" font-family="Arial,Arial_MSFontService,sans-serif" font-weight="400" font-size="24" transform="translate(154.005 123)">tx_byte_pool_create</text><rect x="111.5" y="247.5" width="302" height="37" stroke="#338150" stroke-width="1.33333" stroke-miterlimit="8" fill="#49B170"/><text fill="#FFFFFF" font-family="Arial,Arial_MSFontService,sans-serif" font-weight="400" font-size="24" transform="translate(146.005 274)">tx_byte_pool_allocate</text><path d="M413 112.833 633.13 112.833 633.13 115.167 413 115.167ZM631.797 110 639.797 114 631.797 118Z" fill="#03234B"/><rect x="716" y="58" width="302" height="393" fill="#03234B" fill-opacity="0.501961"/><text fill="#FFFFFF" font-family="Arial,Arial_MSFontService,sans-serif" font-weight="400" font-size="24" transform="translate(840.13 85)">RAM</text><rect x="731" y="95" width="272" height="341" fill="#03234B" fill-opacity="0.501961"/><text fill="#FFFFFF" font-family="Arial,Arial_MSFontService,sans-serif" font-weight="400" font-size="24" transform="translate(814.797 123)">byte_pool</text><rect x="746" y="141" width="242" height="279" fill="#FFD200"/><text fill="#FFFFFF" font-family="Arial,Arial_MSFontService,sans-serif" font-weight="400" font-size="24" transform="translate(836.347 169)">buffer</text><rect x="489.5" y="58.5001" width="151" height="37" stroke="#BC9A00" stroke-width="1.33333" stroke-miterlimit="8" fill="#FFD200"/><text fill="#FFFFFF" font-family="Arial,Arial_MSFontService,sans-serif" font-weight="400" font-size="24" transform="translate(533.951 85)">buffer</text><path d="M565.167 95 565.167 103.453 562.833 103.453 562.833 95ZM568 102.12 564 110.12 560 102.12Z" fill="#03234B"/><rect x="489.5" y="141.5" width="151" height="38" stroke="#650056" stroke-width="1.33333" stroke-miterlimit="8" fill="#8C0078"/><text fill="#FFFFFF" font-family="Arial,Arial_MSFontService,sans-serif" font-weight="400" font-size="24" transform="translate(527.734 168)">pointer</text><rect x="489.5" y="186.5" width="151" height="38" stroke="#650056" stroke-width="1.33333" stroke-miterlimit="8" fill="#8C0078"/><text fill="#FFFFFF" font-family="Arial,Arial_MSFontService,sans-serif" font-weight="400" font-size="24" transform="translate(531.734 214)">length</text><rect x="746.5" y="186.5" width="242" height="38" stroke="#650056" stroke-width="1.33333" stroke-miterlimit="8" fill="#8C0078"/><text fill="#FFFFFF" font-family="Arial,Arial_MSFontService,sans-serif" font-weight="400" font-size="24" transform="translate(818.797 214)">allocated</text><path d="M413 264.833 633.13 264.833 633.13 267.167 413 267.167ZM631.797 262 639.797 266 631.797 270Z" fill="#03234B"/><path d="M0-1.16667 38.9661-1.16667 38.9661 95.3919 36.6328 95.3919 36.6328 0 37.7995 1.16667 0 1.16667ZM41.7995 94.0586 37.7995 102.059 33.7995 94.0586Z" fill="#03234B" transform="matrix(-1 1.22465e-16 1.22465e-16 1 488.799 160)"/><path d="M0 0 37.7995 0.000104987" stroke="#03234B" stroke-width="2.33333" stroke-miterlimit="8" fill="none" fill-rule="evenodd" transform="matrix(-1 0 0 1 488.799 205)"/><path d="M640.283 158.868 647.074 160.566 646.508 162.83 639.717 161.132ZM649.338 161.132 656.129 162.83 655.563 165.093 648.772 163.395ZM658.392 163.395 665.183 165.093 664.617 167.357 657.826 165.659ZM667.447 165.659 674.238 167.357 673.672 169.621 666.881 167.923ZM676.502 167.923 683.293 169.621 682.727 171.884 675.936 170.186ZM685.556 170.186 692.347 171.884 691.781 174.148 684.99 172.45ZM694.611 172.45 701.402 174.148 700.836 176.412 694.045 174.714ZM703.666 174.714 710.457 176.412 709.891 178.675 703.1 176.977ZM712.72 176.977 719.511 178.675 718.945 180.939 712.154 179.241ZM721.775 179.241 728.566 180.939 728 183.203 721.209 181.505ZM730.83 181.505 737.621 183.203 737.055 185.466 730.264 183.768ZM739.048 180.639 745.839 186.46 737.107 188.4Z" fill="#03234B"/><path d="M708 224C705.791 224 704 223.702 704 223.333L704 205.667C704 205.298 702.209 205 700 205 702.209 205 704 204.702 704 204.333L704 186.667C704 186.298 705.791 186 708 186" stroke="#03234B" stroke-width="2.33333" stroke-miterlimit="8" fill="none" fill-rule="evenodd"/><path d="M6.66667-1.16665 13.6667-1.16663 13.6667 1.1667 6.66666 1.16668ZM16-1.16663 23-1.16661 23 1.16672 16 1.1667ZM25.3333-1.16661 32.3333-1.16659 32.3333 1.16674 25.3333 1.16673ZM34.6667-1.16659 41.6667-1.16657 41.6667 1.16676 34.6667 1.16675ZM44-1.16656 45.3594-1.16656 45.3594 1.16677 44 1.16677ZM7.99999 4.00002 0 0 8.00001-3.99998Z" fill="#03234B" transform="matrix(-1 0 0 1 685.359 205)"/><rect x="111.5" y="390.5" width="302" height="38" stroke="#338150" stroke-width="1.33333" stroke-miterlimit="8" fill="#49B170"/><text fill="#FFFFFF" font-family="Arial,Arial_MSFontService,sans-serif" font-weight="400" font-size="24" transform="translate(146.005 418)">tx_byte_pool_allocate</text><rect x="489.5" y="284.5" width="151" height="38" stroke="#2983A9" stroke-width="1.33333" stroke-miterlimit="8" fill="#3CB4E6"/><text fill="#FFFFFF" font-family="Arial,Arial_MSFontService,sans-serif" font-weight="400" font-size="24" transform="translate(521.068 312)">pointer2</text><rect x="489.5" y="330.5" width="151" height="38" stroke="#2983A9" stroke-width="1.33333" stroke-miterlimit="8" fill="#3CB4E6"/><text fill="#FFFFFF" font-family="Arial,Arial_MSFontService,sans-serif" font-weight="400" font-size="24" transform="translate(520.401 357)">length*2</text><path d="M413 407.833 633.13 407.833 633.13 410.167 413 410.167ZM631.797 405 639.797 409 631.797 413Z" fill="#03234B"/><path d="M0-1.16667 38.9661-1.16667 38.9661 95.3919 36.6328 95.3919 36.6328 0 37.7995 1.16667 0 1.16667ZM41.7995 94.0586 37.7995 102.059 33.7995 94.0586Z" fill="#03234B" transform="matrix(-1 1.22465e-16 1.22465e-16 1 488.799 303)"/><path d="M0 0 37.7995 0.000104987" stroke="#03234B" stroke-width="2.33333" stroke-miterlimit="8" fill="none" fill-rule="evenodd" transform="matrix(-1 0 0 1 488.799 349)"/><path d="M708 300C705.791 300 704 299.702 704 299.333L704 262.667C704 262.298 702.209 262 700 262 702.209 262 704 261.702 704 261.333L704 224.667C704 224.298 705.791 224 708 224" stroke="#03234B" stroke-width="2.33333" stroke-miterlimit="8" fill="none" fill-rule="evenodd"/><path d="M4.11812 5.3709 7.35608 11.577 5.28738 12.6563 2.04942 6.45022ZM8.4354 13.6457 11.6734 19.8518 9.60467 20.9311 6.3667 14.725ZM12.7527 21.9205 15.9906 28.1266 13.9219 29.2059 10.684 22.9998ZM17.07 30.1953 20.3079 36.4014 18.2392 37.4807 15.0013 31.2746ZM21.3873 38.4701 24.6252 44.6762 22.5565 45.7555 19.3186 39.5494ZM25.7045 46.7449 28.9425 52.9509 26.8738 54.0303 23.6358 47.8242ZM30.0218 55.0196 33.2598 61.2257 31.1911 62.3051 27.9531 56.099ZM34.3391 63.2944 37.5771 69.5005 35.5084 70.5799 32.2704 64.3738ZM38.6564 71.5692 41.8943 77.7753 39.8256 78.8546 36.5877 72.6486ZM42.9737 79.844 46.2116 86.0501 44.1429 87.1294 40.905 80.9233ZM0.15419 8.94294 0 0 7.24687 5.24241Z" fill="#03234B" transform="matrix(-1 0 0 1 685.359 262)"/><rect x="746.5" y="224.5" width="242" height="76" stroke="#2983A9" stroke-width="1.33333" stroke-miterlimit="8" fill="#3CB4E6"/><text fill="#FFFFFF" font-family="Arial,Arial_MSFontService,sans-serif" font-weight="400" font-size="24" transform="translate(818.797 270)">allocated</text><path d="M0.7-0.933333 6.3 3.26667 4.9 5.13333-0.7 0.933333ZM8.16667 4.66667 13.7667 8.86667 12.3667 10.7333 6.76667 6.53333ZM15.6333 10.2667 21.2333 14.4667 19.8333 16.3333 14.2333 12.1333ZM23.1 15.8667 28.7 20.0667 27.3 21.9333 21.7 17.7333ZM30.5667 21.4667 36.1667 25.6667 34.7667 27.5333 29.1667 23.3333ZM38.0333 27.0667 43.6333 31.2667 42.2333 33.1333 36.6333 28.9333ZM45.5 32.6667 51.1 36.8667 49.7 38.7333 44.1 34.5333ZM52.9667 38.2667 58.5667 42.4667 57.1667 44.3333 51.5667 40.1333ZM60.4333 43.8667 66.0333 48.0667 64.6333 49.9333 59.0333 45.7333ZM67.9 49.4667 73.5 53.6667 72.1 55.5333 66.5 51.3333ZM75.3667 55.0667 80.9667 59.2667 79.5667 61.1333 73.9667 56.9333ZM82.8333 60.6667 88.4333 64.8667 87.0333 66.7333 81.4333 62.5333ZM90.3 66.2667 95.9 70.4667 94.5 72.3333 88.9 68.1333ZM97.7667 71.8667 101.205 74.4455 99.8051 76.3122 96.3667 73.7333ZM101.839 71.3789 105.839 79.3789 97.0385 77.7789Z" fill="#03234B" transform="matrix(1 0 0 -1 640 303.379)"/></g></svg>