<svg width="2425" height="1725" xmlns="http://www.w3.org/2000/svg" xmlns:xlink="http://www.w3.org/1999/xlink" overflow="hidden"><defs><clipPath id="clip0"><rect x="121" y="631" width="2425" height="1725"/></clipPath></defs><g clip-path="url(#clip0)" transform="translate(-121 -631)"><rect x="121" y="640" width="2339" height="1091" fill="#3CB4E6" fill-opacity="0.501961"/><text fill="#FFFFFF" font-family="Arial,Arial_MSFontService,sans-serif" font-weight="400" font-size="83" transform="matrix(1 0 0 1 1104.82 736)">Scheduler</text><rect x="121" y="1887" width="2339" height="312" fill="#49B170" fill-opacity="0.501961"/><text fill="#FFFFFF" font-family="Arial,Arial_MSFontService,sans-serif" font-weight="400" font-size="83" transform="matrix(1 0 0 1 1136.91 1984)">Running</text><rect x="667.5" y="2017.5" width="260" height="130" stroke="#338150" stroke-width="4.58333" stroke-miterlimit="8" fill="#49B170"/><text fill="#FFFFFF" font-family="Arial,Arial_MSFontService,sans-serif" font-weight="400" font-size="83" transform="matrix(1 0 0 1 748.569 2113)">T1</text><rect x="173" y="1238" width="2235" height="467" fill="#FFD200" fill-opacity="0.501961"/><text fill="#FFFFFF" font-family="Arial,Arial_MSFontService,sans-serif" font-weight="400" font-size="83" transform="matrix(1 0 0 1 1171.28 1334)">Ready</text><rect x="1238.5" y="2017.5" width="260" height="130" stroke="#338150" stroke-width="4.58333" stroke-miterlimit="8" fill="#49B170"/><text fill="#FFFFFF" font-family="Arial,Arial_MSFontService,sans-serif" font-weight="400" font-size="83" transform="matrix(1 0 0 1 1320.29 2113)">T2</text><rect x="1524.5" y="2017.5" width="260" height="130" stroke="#338150" stroke-width="4.58333" stroke-miterlimit="8" fill="#49B170"/><text fill="#FFFFFF" font-family="Arial,Arial_MSFontService,sans-serif" font-weight="400" font-size="83" transform="matrix(1 0 0 1 1606.14 2113)">T2</text><path d="M147.5 2037 550.5 2037 550.5 1991.5 641.5 2082.5 550.5 2173.5 550.5 2128 147.5 2128Z" stroke="#338150" stroke-width="4.58333" stroke-miterlimit="8" fill="#49B170" fill-rule="evenodd"/><text fill="#FFFFFF" font-family="Arial,Arial_MSFontService,sans-serif" font-weight="400" font-size="83" transform="matrix(1 0 0 1 190.113 2113)">Execution</text><path d="M797 2147 797.001 2276.94" stroke="#8C0078" stroke-width="13.75" stroke-linecap="round" stroke-miterlimit="8" fill="none" fill-rule="evenodd"/><path d="M797 2277 2538.14 2277" stroke="#8C0078" stroke-width="13.75" stroke-linecap="round" stroke-miterlimit="8" fill="none" fill-rule="evenodd"/><path d="M0 0 0.000360892 1377.32" stroke="#8C0078" stroke-width="13.75" stroke-linecap="round" stroke-miterlimit="8" fill="none" fill-rule="evenodd" transform="matrix(1 0 0 -1 2538 2277.32)"/><rect x="2096.5" y="2017.5" width="260" height="130" stroke="#338150" stroke-width="4.58333" stroke-miterlimit="8" fill="#49B170"/><text fill="#FFFFFF" font-family="Arial,Arial_MSFontService,sans-serif" font-weight="400" font-size="83" transform="matrix(1 0 0 1 2177.86 2113)">T2</text><rect x="173" y="770" width="2235" height="442" fill="#E6007E" fill-opacity="0.501961"/><text fill="#FFFFFF" font-family="Arial,Arial_MSFontService,sans-serif" font-weight="400" font-size="83" transform="matrix(1 0 0 1 1127.74 866)">Suspend</text><rect x="953.5" y="978.5" width="259" height="130" stroke="#650056" stroke-width="4.58333" stroke-miterlimit="8" fill="#8C0078"/><text fill="#FFFFFF" font-family="Arial,Arial_MSFontService,sans-serif" font-weight="400" font-size="83" transform="matrix(1 0 0 1 1034.43 1073)">T1</text><rect x="1238.5" y="978.5" width="260" height="130" stroke="#650056" stroke-width="4.58333" stroke-miterlimit="8" fill="#8C0078"/><text fill="#FFFFFF" font-family="Arial,Arial_MSFontService,sans-serif" font-weight="400" font-size="83" transform="matrix(1 0 0 1 1320.29 1073)">T1</text><path d="M0 0 1455.28 0.000360892" stroke="#8C0078" stroke-width="13.75" stroke-linecap="round" stroke-miterlimit="8" fill="none" fill-rule="evenodd" transform="matrix(-1 0 0 1 2538.28 900)"/><path d="M1089.88 900 1089.88 943.586C1089.88 947.383 1086.8 950.461 1083 950.461 1079.2 950.461 1076.13 947.383 1076.13 943.586L1076.13 900C1076.13 896.203 1079.2 893.125 1083 893.125 1086.8 893.125 1089.88 896.203 1089.88 900ZM1103.63 936.711 1083 977.961 1062.38 936.711Z" fill="#8C0078"/><rect x="953.5" y="2017.5" width="259" height="130" stroke="#338150" stroke-width="4.58333" stroke-miterlimit="8" fill="#49B170"/><text fill="#FFFFFF" font-family="Arial,Arial_MSFontService,sans-serif" font-weight="400" font-size="83" transform="matrix(1 0 0 1 1034.43 2113)">T2</text><rect x="225.5" y="1549.5" width="416" height="130" stroke="#BC9A00" stroke-width="4.58333" stroke-miterlimit="8" fill="#FFD200"/><text fill="#FFFFFF" font-family="Arial,Arial_MSFontService,sans-serif" font-weight="400" font-size="64" transform="matrix(1 0 0 1 271.071 1638)">P<tspan font-size="64" x="42.9688" y="0">-</tspan><tspan font-size="64" x="64.1667" y="0">15 PT</tspan>-<tspan font-size="64" x="252.565" y="0">14</tspan></text><rect x="225.5" y="1393.5" width="416" height="130" stroke="#BC9A00" stroke-width="4.58333" stroke-miterlimit="8" fill="#FFD200"/><text fill="#FFFFFF" font-family="Arial,Arial_MSFontService,sans-serif" font-weight="400" font-size="64" transform="matrix(1 0 0 1 279.906 1482)">P<tspan font-size="64" x="42.9688" y="0">-</tspan><tspan font-size="64" x="64.1667" y="0">14 PT14</tspan></text><rect x="589.5" y="2251.5" width="623" height="78" stroke="#650056" stroke-width="4.58333" stroke-miterlimit="8" fill="#8C0078"/><text fill="#FFFFFF" font-family="Arial,Arial_MSFontService,sans-serif" font-weight="400" font-size="55" transform="matrix(1 0 0 1 672.336 2310)">tx_thread_sleep<tspan font-size="55" x="389.583" y="0">(3)</tspan></text><rect x="1524.5" y="978.5" width="260" height="130" stroke="#650056" stroke-width="4.58333" stroke-miterlimit="8" fill="#8C0078"/><text fill="#FFFFFF" font-family="Arial,Arial_MSFontService,sans-serif" font-weight="400" font-size="83" transform="matrix(1 0 0 1 1606.14 1073)">T1</text><rect x="667.5" y="1549.5" width="260" height="130" stroke="#BC9A00" stroke-width="4.58333" stroke-miterlimit="8" fill="#FFD200"/><text fill="#FFFFFF" font-family="Arial,Arial_MSFontService,sans-serif" font-weight="400" font-size="83" transform="matrix(1 0 0 1 748.569 1645)">T2</text><path d="M225 1367 2031.11 1367" stroke="#E6007E" stroke-width="13.75" stroke-linecap="round" stroke-miterlimit="8" fill="none" fill-rule="evenodd"/><path d="M0-6.875 110.824-6.875 110.824 212.503C110.824 216.3 107.746 219.378 103.949 219.378 100.152 219.378 97.0736 216.3 97.0736 212.503L97.0736 0 103.949 6.875 0 6.875C-3.79696 6.875-6.875 3.79696-6.875 0-6.875-3.79696-3.79696-6.875 0-6.875ZM124.574 205.628 103.949 246.878 83.3236 205.628Z" fill="#E6007E" transform="matrix(1 0 0 -1 927 1613.88)"/><rect x="1680.5" y="1289.5" width="702" height="78" stroke="#E6007E" stroke-width="4.58333" stroke-miterlimit="8" fill="#E6007E"/><text fill="#FFFFFF" font-family="Arial,Arial_MSFontService,sans-serif" font-weight="400" font-size="55" transform="matrix(1 0 0 1 1734.03 1348)">T2 preemption threshold</text><rect x="1810.5" y="2017.5" width="260" height="130" stroke="#338150" stroke-width="4.58333" stroke-miterlimit="8" fill="#49B170"/><text fill="#FFFFFF" font-family="Arial,Arial_MSFontService,sans-serif" font-weight="400" font-size="83" transform="matrix(1 0 0 1 1892 2113)">T2</text><rect x="1810.5" y="1393.5" width="260" height="130" stroke="#BC9A00" stroke-width="4.58333" stroke-miterlimit="8" fill="#FFD200"/><text fill="#FFFFFF" font-family="Arial,Arial_MSFontService,sans-serif" font-weight="400" font-size="83" transform="matrix(1 0 0 1 1892 1489)">T1</text><rect x="2096.5" y="1393.5" width="260" height="130" stroke="#BC9A00" stroke-width="4.58333" stroke-miterlimit="8" fill="#FFD200"/><text fill="#FFFFFF" font-family="Arial,Arial_MSFontService,sans-serif" font-weight="400" font-size="83" transform="matrix(1 0 0 1 2177.86 1489)">T1</text></g></svg>