<svg width="2425" height="1855" xmlns="http://www.w3.org/2000/svg" xmlns:xlink="http://www.w3.org/1999/xlink" overflow="hidden"><defs><clipPath id="clip0"><rect x="121" y="501" width="2425" height="1855"/></clipPath></defs><g clip-path="url(#clip0)" transform="translate(-121 -501)"><rect x="121" y="510" width="2339" height="1221" fill="#3CB4E6" fill-opacity="0.501961"/><text fill="#FFFFFF" font-family="Arial,Arial_MSFontService,sans-serif" font-weight="400" font-size="83" transform="matrix(1 0 0 1 1104.82 606)">Scheduler</text><rect x="121" y="1887" width="2339" height="312" fill="#49B170" fill-opacity="0.501961"/><text fill="#FFFFFF" font-family="Arial,Arial_MSFontService,sans-serif" font-weight="400" font-size="83" transform="matrix(1 0 0 1 1136.91 1984)">Running</text><rect x="667.5" y="2017.5" width="260" height="130" stroke="#338150" stroke-width="4.58333" stroke-miterlimit="8" fill="#49B170"/><text fill="#FFFFFF" font-family="Arial,Arial_MSFontService,sans-serif" font-weight="400" font-size="83" transform="matrix(1 0 0 1 748.569 2113)">T1</text><rect x="173" y="1108" width="2235" height="597" fill="#FFD200" fill-opacity="0.501961"/><text fill="#FFFFFF" font-family="Arial,Arial_MSFontService,sans-serif" font-weight="400" font-size="83" transform="matrix(1 0 0 1 1171.28 1204)">Ready</text><rect x="1238.5" y="2017.5" width="260" height="130" stroke="#338150" stroke-width="4.58333" stroke-miterlimit="8" fill="#49B170"/><text fill="#FFFFFF" font-family="Arial,Arial_MSFontService,sans-serif" font-weight="400" font-size="83" transform="matrix(1 0 0 1 1320.29 2113)">T2</text><rect x="1524.5" y="2017.5" width="260" height="130" stroke="#338150" stroke-width="4.58333" stroke-miterlimit="8" fill="#49B170"/><text fill="#FFFFFF" font-family="Arial,Arial_MSFontService,sans-serif" font-weight="400" font-size="83" transform="matrix(1 0 0 1 1606.14 2113)">T2</text><path d="M147.5 2037 550.5 2037 550.5 1991.5 641.5 2082.5 550.5 2173.5 550.5 2128 147.5 2128Z" stroke="#338150" stroke-width="4.58333" stroke-miterlimit="8" fill="#49B170" fill-rule="evenodd"/><text fill="#FFFFFF" font-family="Arial,Arial_MSFontService,sans-serif" font-weight="400" font-size="83" transform="matrix(1 0 0 1 190.113 2113)">Execution</text><path d="M797 2147 797.001 2276.94" stroke="#8C0078" stroke-width="13.75" stroke-linecap="round" stroke-miterlimit="8" fill="none" fill-rule="evenodd"/><path d="M797 2277 2538.14 2277" stroke="#8C0078" stroke-width="13.75" stroke-linecap="round" stroke-miterlimit="8" fill="none" fill-rule="evenodd"/><path d="M0 0 0.000360892 1507.25" stroke="#8C0078" stroke-width="13.75" stroke-linecap="round" stroke-miterlimit="8" fill="none" fill-rule="evenodd" transform="matrix(1 0 0 -1 2538 2277.25)"/><rect x="2096.5" y="2017.5" width="260" height="130" stroke="#338150" stroke-width="4.58333" stroke-miterlimit="8" fill="#49B170"/><text fill="#FFFFFF" font-family="Arial,Arial_MSFontService,sans-serif" font-weight="400" font-size="83" transform="matrix(1 0 0 1 2177.86 2113)">T2</text><rect x="173" y="640" width="2235" height="442" fill="#E6007E" fill-opacity="0.501961"/><text fill="#FFFFFF" font-family="Arial,Arial_MSFontService,sans-serif" font-weight="400" font-size="83" transform="matrix(1 0 0 1 1127.74 736)">Suspend</text><rect x="953.5" y="848.5" width="259" height="130" stroke="#650056" stroke-width="4.58333" stroke-miterlimit="8" fill="#8C0078"/><text fill="#FFFFFF" font-family="Arial,Arial_MSFontService,sans-serif" font-weight="400" font-size="83" transform="matrix(1 0 0 1 1034.43 943)">T1</text><rect x="1238.5" y="848.5" width="260" height="130" stroke="#650056" stroke-width="4.58333" stroke-miterlimit="8" fill="#8C0078"/><text fill="#FFFFFF" font-family="Arial,Arial_MSFontService,sans-serif" font-weight="400" font-size="83" transform="matrix(1 0 0 1 1320.29 943)">T1</text><path d="M0 0 1455.28 0.000360892" stroke="#8C0078" stroke-width="13.75" stroke-linecap="round" stroke-miterlimit="8" fill="none" fill-rule="evenodd" transform="matrix(-1 0 0 1 2538.28 770)"/><path d="M1089.88 770 1089.88 813.586C1089.88 817.383 1086.8 820.461 1083 820.461 1079.2 820.461 1076.13 817.383 1076.13 813.586L1076.13 770C1076.13 766.203 1079.2 763.125 1083 763.125 1086.8 763.125 1089.88 766.203 1089.88 770ZM1103.63 806.711 1083 847.961 1062.38 806.711Z" fill="#8C0078"/><rect x="953.5" y="2017.5" width="259" height="130" stroke="#338150" stroke-width="4.58333" stroke-miterlimit="8" fill="#49B170"/><text fill="#FFFFFF" font-family="Arial,Arial_MSFontService,sans-serif" font-weight="400" font-size="83" transform="matrix(1 0 0 1 1034.43 2113)">T2</text><rect x="225.5" y="1549.5" width="416" height="130" stroke="#BC9A00" stroke-width="4.58333" stroke-miterlimit="8" fill="#FFD200"/><text fill="#FFFFFF" font-family="Arial,Arial_MSFontService,sans-serif" font-weight="400" font-size="64" transform="matrix(1 0 0 1 271.071 1638)">P<tspan font-size="64" x="42.9688" y="0">-</tspan><tspan font-size="64" x="64.1667" y="0">15 PT</tspan>-<tspan font-size="64" x="252.565" y="0">14</tspan></text><rect x="225.5" y="1238.5" width="416" height="129" stroke="#BC9A00" stroke-width="4.58333" stroke-miterlimit="8" fill="#FFD200"/><text fill="#FFFFFF" font-family="Arial,Arial_MSFontService,sans-serif" font-weight="400" font-size="64" transform="matrix(1 0 0 1 279.906 1326)">P<tspan font-size="64" x="42.9688" y="0">-</tspan><tspan font-size="64" x="64.1667" y="0">13 PT13</tspan></text><rect x="589.5" y="2251.5" width="623" height="78" stroke="#650056" stroke-width="4.58333" stroke-miterlimit="8" fill="#8C0078"/><text fill="#FFFFFF" font-family="Arial,Arial_MSFontService,sans-serif" font-weight="400" font-size="55" transform="matrix(1 0 0 1 672.336 2310)">tx_thread_sleep<tspan font-size="55" x="389.583" y="0">(3)</tspan></text><rect x="667.5" y="1549.5" width="260" height="130" stroke="#BC9A00" stroke-width="4.58333" stroke-miterlimit="8" fill="#FFD200"/><text fill="#FFFFFF" font-family="Arial,Arial_MSFontService,sans-serif" font-weight="400" font-size="83" transform="matrix(1 0 0 1 748.569 1645)">T2</text><path d="M225 1367 2381.93 1367" stroke="#E6007E" stroke-width="13.75" stroke-linecap="round" stroke-miterlimit="8" fill="none" fill-rule="evenodd"/><path d="M0-6.875 110.824-6.875 110.824 212.503C110.824 216.3 107.746 219.378 103.949 219.378 100.152 219.378 97.0736 216.3 97.0736 212.503L97.0736 0 103.949 6.875 0 6.875C-3.79696 6.875-6.875 3.79696-6.875 0-6.875-3.79696-3.79696-6.875 0-6.875ZM124.574 205.628 103.949 246.878 83.3236 205.628Z" fill="#E6007E" transform="matrix(1 0 0 -1 927 1613.88)"/><rect x="771.5" y="1289.5" width="701" height="78" stroke="#E6007E" stroke-width="4.58333" stroke-miterlimit="8" fill="#E6007E"/><text fill="#FFFFFF" font-family="Arial,Arial_MSFontService,sans-serif" font-weight="400" font-size="55" transform="matrix(1 0 0 1 824.476 1348)">T2 preemption threshold</text><path d="M1940 2147 1940 2276.94" stroke="#8C0078" stroke-width="13.75" stroke-linecap="round" stroke-miterlimit="8" fill="none" fill-rule="evenodd"/><path d="M1946.88 1367 1946.88 1982.3C1946.88 1986.1 1943.8 1989.18 1940 1989.18 1936.2 1989.18 1933.13 1986.1 1933.13 1982.3L1933.13 1367C1933.13 1363.2 1936.2 1360.13 1940 1360.13 1943.8 1360.13 1946.88 1363.2 1946.88 1367ZM1960.63 1975.43 1940 2016.68 1919.38 1975.43Z" fill="#49B170"/><path d="M1658.62 972.913 1919.05 1209.66C1921.86 1212.22 1922.06 1216.56 1919.51 1219.37 1916.96 1222.18 1912.61 1222.39 1909.8 1219.84L1649.38 983.087C1646.57 980.533 1646.36 976.185 1648.91 973.375 1651.47 970.566 1655.82 970.359 1658.62 972.913ZM1923.21 1194.86 1939.86 1237.87 1895.46 1225.38Z" fill="#FFD200"/><rect x="1524.5" y="848.5" width="260" height="130" stroke="#650056" stroke-width="4.58333" stroke-miterlimit="8" fill="#8C0078"/><text fill="#FFFFFF" font-family="Arial,Arial_MSFontService,sans-serif" font-weight="400" font-size="83" transform="matrix(1 0 0 1 1606.14 943)">T1</text><rect x="1810.5" y="1238.5" width="260" height="129" stroke="#BC9A00" stroke-width="4.58333" stroke-miterlimit="8" fill="#FFD200"/><text fill="#FFFFFF" font-family="Arial,Arial_MSFontService,sans-serif" font-weight="400" font-size="83" transform="matrix(1 0 0 1 1892 1333)">T1</text><rect x="1810.5" y="2017.5" width="260" height="130" stroke="#338150" stroke-width="4.58333" stroke-miterlimit="8" fill="#49B170"/><text fill="#FFFFFF" font-family="Arial,Arial_MSFontService,sans-serif" font-weight="400" font-size="83" transform="matrix(1 0 0 1 1892 2113)">T1</text><rect x="1810.5" y="1549.5" width="260" height="130" stroke="#BC9A00" stroke-width="4.58333" stroke-miterlimit="8" fill="#FFD200"/><text fill="#FFFFFF" font-family="Arial,Arial_MSFontService,sans-serif" font-weight="400" font-size="83" transform="matrix(1 0 0 1 1892 1645)">T2</text></g></svg>